<?xml version="1.0" encoding="utf-8"?>
<!-- Generator: Adobe Illustrator 19.1.0, SVG Export Plug-In . SVG Version: 6.00 Build 0)  -->
<svg version="1.1" xmlns="http://www.w3.org/2000/svg" xmlns:xlink="http://www.w3.org/1999/xlink" x="0px" y="0px"
	 viewBox="0 0 904.7 101.3" style="enable-background:new 0 0 904.7 101.3;" xml:space="preserve">
<style type="text/css">
	.st0{fill:#F9EFED;}
	.st1{fill:#0C2E2B;stroke:#A8B301;stroke-width:3;stroke-miterlimit:10;}
	.st2{fill:none;stroke:#0C2E2B;stroke-width:3;stroke-miterlimit:10;}
	.st3{fill:#0C2E2B;}
	.st4{fill:#A8B301;}
	.st5{fill:#AD79A4;}
	.st6{fill:#E2C583;stroke:#E2C583;stroke-width:0.5;stroke-linejoin:round;stroke-miterlimit:10;}
	.st7{fill:#A1B2A8;}
	.st8{fill:#B1B277;}
	.st9{fill:#B28C7B;}
	.st10{fill:#EAB6AD;}
	.st11{fill:none;stroke:#FFFFFF;stroke-width:3;stroke-miterlimit:10;}
	.st12{fill:none;stroke:#FF4C4E;stroke-miterlimit:10;}
	.st13{fill:none;stroke:#A1B2A8;stroke-miterlimit:10;}
	.st14{fill:#FFFFFF;}
	.st15{fill:#FFEBBA;}
	.st16{fill:#7BA178;}
	.st17{fill:#A1BC9F;}
	.st18{fill:#FF4C4E;}
	.st19{fill:#9C4276;}
	.st20{fill:#EDDAD6;}
	.st21{fill:#EAB0A7;}
	.st22{fill:#653C5A;}
	.st23{fill:#F2DFEE;}
	.st24{fill:#FFFFFF;stroke:#E2C583;stroke-width:0.5;stroke-linecap:round;stroke-linejoin:round;stroke-miterlimit:10;}
	.st25{fill:none;stroke:#653C5A;stroke-width:2;stroke-miterlimit:10;}
	.st26{fill:none;stroke:#FF4C4E;stroke-width:2;stroke-miterlimit:10;}
	.st27{fill:#E2C583;}
	.st28{fill:none;stroke:#A8B301;stroke-width:2;stroke-miterlimit:10;}
	.st29{fill:none;stroke:#042311;stroke-width:2;stroke-miterlimit:10;}
	.st30{fill:#042311;}
	.st31{fill:#FFF6F5;}
	.st32{fill:#A1B2A8;stroke:#FFFFFF;stroke-miterlimit:10;}
	.st33{fill:#5B270D;}
	.st34{fill:none;stroke:#AD79A4;stroke-miterlimit:10;}
	.st35{fill:#FCFCFC;}
	.st36{fill:#3D281F;}
	.st37{fill:#34183A;}
	.st38{fill:#C19ABD;}
	.st39{fill:none;stroke:#FF4C4E;stroke-width:3;stroke-miterlimit:10;}
	.st40{fill:#E27479;}
	.st41{fill:#16514A;}
	.st42{fill:none;stroke:#FFFFFF;stroke-miterlimit:10;}
	.st43{fill:none;stroke:#653C5A;stroke-width:6;stroke-miterlimit:10;}
	.st44{fill:none;stroke:#EF898E;stroke-width:6;stroke-miterlimit:10;}
	.st45{fill:#EF898E;}
	.st46{fill:none;stroke:#A1B2A8;stroke-width:6;stroke-miterlimit:10;}
	.st47{fill:none;stroke:#16514A;stroke-width:6;stroke-miterlimit:10;}
	.st48{fill:none;stroke:#5B270D;stroke-miterlimit:10;}
	.st49{fill:#5B270D;stroke:#B28C7B;stroke-miterlimit:10;}
	.st50{fill:none;stroke:#AD79A4;stroke-linecap:round;stroke-miterlimit:10;}
	.st51{fill:#FCFCFC;stroke:#3D281F;stroke-miterlimit:10;}
	.st52{fill:#AD79A4;stroke:#34183A;stroke-miterlimit:10;}
	.st53{fill:none;stroke:#C19ABD;stroke-linecap:round;stroke-miterlimit:10;}
	.st54{fill:none;stroke:#F9EFED;stroke-width:3;stroke-miterlimit:10;}
	.st55{fill:none;stroke:#E2E2E2;stroke-width:3;stroke-miterlimit:10;}
	.st56{fill:none;stroke:#0C2E2B;stroke-miterlimit:10;}
	.st57{fill:none;stroke:#0C2E2B;stroke-width:2;stroke-miterlimit:10;}
	.st58{fill:#EAB6AD;stroke:#0C2E2B;stroke-miterlimit:10;}
	.st59{fill:#AD79A4;stroke:#0C2E2B;stroke-miterlimit:10;}
	.st60{fill:#E2C583;stroke:#0C2E2B;stroke-width:0.5;stroke-linejoin:round;stroke-miterlimit:10;}
	.st61{fill:#B1B277;stroke:#0C2E2B;stroke-miterlimit:10;}
	.st62{fill:#A1B2A8;stroke:#0C2E2B;stroke-miterlimit:10;}
	.st63{fill:#FFF6E1;}
</style>
<g id="graphic_resume">
</g>
<g id="pallet">
	<g id="Skills">
		<g>
			<g>
				<polyline class="st2" points="0.2,14.5 171.7,50.5 329.4,50.5 400.1,50.5 470.8,50.5 541.6,50.5 612.3,50.5 683,50.5 748,50.5 
									"/>
				<g>
					<circle class="st3" cx="747.4" cy="50.5" r="5.6"/>
				</g>
			</g>
		</g>
		<g>
			<g>
				<path class="st3" d="M366.1,73.5h-3.8v-1l1.3-1.8c0.3-0.5,0.6-0.9,0.7-1.1c0.1-0.2,0.2-0.5,0.3-0.7c0.1-0.2,0.1-0.4,0.1-0.7
					c0-0.3-0.1-0.5-0.2-0.6s-0.3-0.2-0.5-0.2c-0.2,0-0.3,0-0.5,0.1c-0.2,0.1-0.3,0.3-0.5,0.5l-0.7-0.8c0.3-0.4,0.7-0.7,1-0.8
					c0.3-0.1,0.6-0.2,1-0.2c0.6,0,1,0.2,1.4,0.5c0.3,0.3,0.5,0.8,0.5,1.4c0,0.3,0,0.5-0.1,0.8s-0.1,0.5-0.3,0.7
					c-0.1,0.2-0.3,0.5-0.4,0.8c-0.2,0.3-0.6,0.9-1.4,1.8v0h2.3V73.5z"/>
				<path class="st3" d="M371,69.9c0,1.3-0.2,2.2-0.5,2.8c-0.3,0.6-0.8,0.9-1.5,0.9c-0.7,0-1.2-0.3-1.5-0.9
					c-0.3-0.6-0.5-1.5-0.5-2.8c0-1.3,0.2-2.2,0.5-2.8c0.3-0.6,0.8-0.9,1.5-0.9c0.7,0,1.2,0.3,1.5,0.9C370.8,67.7,371,68.6,371,69.9z
					 M368.4,69.9c0,1,0,1.7,0.1,2c0.1,0.3,0.2,0.5,0.5,0.5c0.2,0,0.3-0.1,0.4-0.2c0.1-0.2,0.2-0.4,0.2-0.7s0.1-0.9,0.1-1.6
					c0-1,0-1.7-0.1-2c-0.1-0.4-0.3-0.5-0.5-0.5c-0.2,0-0.4,0.2-0.5,0.5C368.4,68.3,368.4,68.9,368.4,69.9z"/>
				<path class="st3" d="M375.8,69.9c0,1.3-0.2,2.2-0.5,2.8c-0.3,0.6-0.8,0.9-1.5,0.9c-0.7,0-1.2-0.3-1.5-0.9
					c-0.3-0.6-0.5-1.5-0.5-2.8c0-1.3,0.2-2.2,0.5-2.8c0.3-0.6,0.8-0.9,1.5-0.9c0.7,0,1.2,0.3,1.5,0.9
					C375.7,67.7,375.8,68.6,375.8,69.9z M373.2,69.9c0,1,0,1.7,0.1,2c0.1,0.3,0.3,0.5,0.5,0.5c0.2,0,0.3-0.1,0.4-0.2
					c0.1-0.2,0.2-0.4,0.2-0.7s0.1-0.9,0.1-1.6c0-1,0-1.7-0.1-2c-0.1-0.4-0.3-0.5-0.5-0.5c-0.2,0-0.4,0.2-0.5,0.5
					C373.3,68.3,373.2,68.9,373.2,69.9z"/>
				<path class="st3" d="M377.2,73.5l2-6h-2.5v-1.2h3.8v0.9l-2,6.2H377.2z"/>
				<path class="st3" d="M315.4,79.9h2.2v3.7c-0.6,0.3-1.3,0.4-2,0.4c-0.8,0-1.5-0.3-1.9-0.9c-0.4-0.6-0.7-1.5-0.7-2.7
					c0-1.1,0.3-2,0.8-2.7c0.5-0.6,1.2-1,2.2-1c0.6,0,1.1,0.1,1.6,0.4l-0.4,1.1c-0.4-0.2-0.8-0.4-1.1-0.4c-0.5,0-0.9,0.2-1.2,0.7
					c-0.3,0.5-0.4,1.1-0.4,1.8c0,0.8,0.1,1.4,0.3,1.8c0.2,0.4,0.5,0.6,0.9,0.6c0.2,0,0.4,0,0.7-0.1v-1.6h-0.9V79.9z"/>
				<path class="st3" d="M321.1,78.3c0.2,0,0.3,0,0.5,0.1l-0.2,1.3c-0.1,0-0.2,0-0.4,0c-0.3,0-0.6,0.1-0.7,0.4
					c-0.2,0.2-0.3,0.6-0.3,1.1v2.8h-1.3v-5.4h1.1l0.1,0.8h0c0.1-0.3,0.3-0.6,0.5-0.7C320.7,78.4,320.9,78.3,321.1,78.3z"/>
				<path class="st3" d="M325,83.8l-0.3-0.7h0c-0.2,0.3-0.4,0.5-0.6,0.7c-0.2,0.1-0.5,0.2-0.8,0.2c-0.4,0-0.7-0.1-0.9-0.4
					c-0.2-0.3-0.3-0.7-0.3-1.3c0-0.6,0.2-1,0.5-1.3c0.3-0.3,0.8-0.4,1.4-0.5l0.7,0v-0.4c0-0.5-0.2-0.8-0.7-0.8
					c-0.3,0-0.7,0.1-1.1,0.4l-0.4-0.9c0.5-0.3,1.1-0.5,1.8-0.5c0.6,0,1,0.2,1.3,0.5c0.3,0.3,0.5,0.8,0.5,1.4v3.7H325z M323.9,82.9
					c0.2,0,0.4-0.1,0.6-0.3c0.1-0.2,0.2-0.5,0.2-0.9v-0.5l-0.4,0c-0.3,0-0.5,0.1-0.7,0.3c-0.1,0.2-0.2,0.4-0.2,0.7
					C323.4,82.7,323.6,82.9,323.9,82.9z"/>
				<path class="st3" d="M328.6,83.9c-0.5,0-0.9-0.2-1.2-0.7c-0.3-0.5-0.4-1.2-0.4-2.1s0.1-1.6,0.4-2.1c0.3-0.5,0.7-0.8,1.2-0.8
					c0.2,0,0.5,0.1,0.6,0.2s0.3,0.3,0.5,0.6h0.1c0-0.5-0.1-0.8-0.1-1v-1.8h1.3v7.6h-1l-0.2-0.7h0C329.6,83.7,329.2,83.9,328.6,83.9z
					 M329.1,82.8c0.2,0,0.4-0.1,0.5-0.3s0.2-0.6,0.2-1.2v-0.2c0-0.6-0.1-1.1-0.2-1.3c-0.1-0.3-0.3-0.4-0.6-0.4
					c-0.2,0-0.4,0.1-0.5,0.4c-0.1,0.3-0.2,0.7-0.2,1.3c0,0.6,0.1,1,0.2,1.3C328.6,82.7,328.8,82.8,329.1,82.8z"/>
				<path class="st3" d="M335.3,83.8l-0.2-0.7h-0.1c-0.1,0.2-0.3,0.4-0.5,0.6s-0.5,0.2-0.8,0.2c-0.5,0-0.9-0.2-1.1-0.5
					s-0.4-0.8-0.4-1.5v-3.5h1.3v3.2c0,0.4,0,0.7,0.1,0.9c0.1,0.2,0.2,0.3,0.5,0.3c0.3,0,0.5-0.1,0.6-0.4c0.1-0.3,0.2-0.7,0.2-1.4
					v-2.6h1.3v5.4H335.3z"/>
				<path class="st3" d="M340.3,83.8l-0.3-0.7h0c-0.2,0.3-0.4,0.5-0.6,0.7c-0.2,0.1-0.5,0.2-0.8,0.2c-0.4,0-0.7-0.1-0.9-0.4
					c-0.2-0.3-0.3-0.7-0.3-1.3c0-0.6,0.2-1,0.5-1.3c0.3-0.3,0.8-0.4,1.4-0.5l0.7,0v-0.4c0-0.5-0.2-0.8-0.7-0.8
					c-0.3,0-0.7,0.1-1.1,0.4l-0.4-0.9c0.5-0.3,1.1-0.5,1.8-0.5c0.6,0,1,0.2,1.3,0.5c0.3,0.3,0.5,0.8,0.5,1.4v3.7H340.3z M339.2,82.9
					c0.2,0,0.4-0.1,0.6-0.3c0.1-0.2,0.2-0.5,0.2-0.9v-0.5l-0.4,0c-0.3,0-0.5,0.1-0.7,0.3c-0.1,0.2-0.2,0.4-0.2,0.7
					C338.7,82.7,338.9,82.9,339.2,82.9z"/>
				<path class="st3" d="M344.4,82.8c0.2,0,0.4,0,0.6-0.1v1c-0.2,0.1-0.5,0.2-1,0.2c-0.5,0-0.8-0.1-1-0.4c-0.2-0.3-0.3-0.7-0.3-1.3
					v-2.8h-0.5v-0.6l0.7-0.5l0.3-1.2h0.8v1.2h1v1h-1v2.9C344,82.7,344.1,82.8,344.4,82.8z"/>
				<path class="st3" d="M347.9,83.9c-0.7,0-1.2-0.2-1.6-0.7c-0.4-0.5-0.6-1.2-0.6-2.1c0-0.9,0.2-1.6,0.5-2.1
					c0.4-0.5,0.8-0.8,1.5-0.8c0.6,0,1.1,0.2,1.4,0.6c0.3,0.4,0.5,1,0.5,1.8v0.7h-2.6c0,0.5,0.1,0.8,0.3,1.1c0.2,0.2,0.4,0.4,0.8,0.4
					c0.4,0,0.9-0.1,1.3-0.4v1.1C349,83.8,348.5,83.9,347.9,83.9z M347.8,79.3c-0.2,0-0.3,0.1-0.5,0.3c-0.1,0.2-0.2,0.5-0.2,0.9h1.3
					c0-0.4-0.1-0.7-0.2-0.9C348.1,79.4,348,79.3,347.8,79.3z"/>
				<path class="st3" d="M352.2,83.9c-0.5,0-0.9-0.2-1.2-0.7c-0.3-0.5-0.4-1.2-0.4-2.1s0.1-1.6,0.4-2.1c0.3-0.5,0.7-0.8,1.2-0.8
					c0.2,0,0.5,0.1,0.6,0.2s0.3,0.3,0.5,0.6h0.1c0-0.5-0.1-0.8-0.1-1v-1.8h1.3v7.6h-1l-0.2-0.7h0C353.1,83.7,352.7,83.9,352.2,83.9z
					 M352.6,82.8c0.2,0,0.4-0.1,0.5-0.3c0.1-0.2,0.2-0.6,0.2-1.2v-0.2c0-0.6-0.1-1.1-0.2-1.3c-0.1-0.3-0.3-0.4-0.6-0.4
					c-0.2,0-0.4,0.1-0.5,0.4c-0.1,0.3-0.2,0.7-0.2,1.3c0,0.6,0.1,1,0.2,1.3C352.2,82.7,352.3,82.8,352.6,82.8z"/>
				<path class="st3" d="M357.5,82.8c-0.2,0.7-0.5,1.4-0.9,2.3h-1c0.2-0.9,0.4-1.7,0.5-2.5h1.3L357.5,82.8z"/>
				<path class="st3" d="M365.9,76.7v4.6c0,0.8-0.2,1.5-0.6,1.9c-0.4,0.4-0.9,0.7-1.7,0.7c-0.7,0-1.3-0.2-1.6-0.7s-0.6-1.1-0.6-2
					v-4.6h1.3v4.7c0,0.9,0.3,1.4,0.9,1.4c0.3,0,0.5-0.1,0.6-0.3c0.2-0.2,0.2-0.6,0.2-1v-4.7H365.9z"/>
				<path class="st3" d="M370,83.8v-3.2c0-0.4,0-0.7-0.1-0.9c-0.1-0.2-0.2-0.3-0.5-0.3c-0.3,0-0.5,0.1-0.6,0.4
					c-0.1,0.3-0.2,0.7-0.2,1.4v2.6h-1.3v-5.4h1l0.2,0.7h0.1c0.1-0.2,0.3-0.4,0.5-0.6c0.2-0.1,0.5-0.2,0.8-0.2c0.5,0,0.9,0.2,1.1,0.5
					c0.2,0.3,0.4,0.8,0.4,1.5v3.5H370z"/>
				<path class="st3" d="M372.5,77c0-0.2,0.1-0.4,0.2-0.5c0.1-0.1,0.3-0.2,0.5-0.2c0.2,0,0.4,0.1,0.5,0.2c0.1,0.1,0.2,0.3,0.2,0.5
					c0,0.2-0.1,0.4-0.2,0.5c-0.1,0.1-0.3,0.2-0.5,0.2c-0.2,0-0.4-0.1-0.5-0.2C372.6,77.4,372.5,77.2,372.5,77z M373.9,83.8h-1.3
					v-5.4h1.3V83.8z"/>
				<path class="st3" d="M376.1,83.8l-1.4-5.4h1.3l0.7,3.1c0,0.1,0.1,0.4,0.1,0.6c0,0.3,0.1,0.5,0.1,0.6h0c0-0.1,0-0.2,0-0.4
					c0-0.2,0.1-0.3,0.1-0.5c0-0.2,0.3-1.3,0.8-3.5h1.3l-1.4,5.4H376.1z"/>
				<path class="st3" d="M381.8,83.9c-0.7,0-1.2-0.2-1.6-0.7c-0.4-0.5-0.6-1.2-0.6-2.1c0-0.9,0.2-1.6,0.5-2.1
					c0.4-0.5,0.8-0.8,1.5-0.8c0.6,0,1.1,0.2,1.4,0.6c0.3,0.4,0.5,1,0.5,1.8v0.7H381c0,0.5,0.1,0.8,0.3,1.1c0.2,0.2,0.4,0.4,0.8,0.4
					c0.4,0,0.9-0.1,1.3-0.4v1.1C382.9,83.8,382.4,83.9,381.8,83.9z M381.7,79.3c-0.2,0-0.3,0.1-0.5,0.3c-0.1,0.2-0.2,0.5-0.2,0.9
					h1.3c0-0.4-0.1-0.7-0.2-0.9C382,79.4,381.9,79.3,381.7,79.3z"/>
				<path class="st3" d="M387,78.3c0.2,0,0.3,0,0.5,0.1l-0.2,1.3c-0.1,0-0.2,0-0.4,0c-0.3,0-0.6,0.1-0.7,0.4s-0.3,0.6-0.3,1.1v2.8
					h-1.3v-5.4h1.1l0.1,0.8h0c0.1-0.3,0.3-0.6,0.5-0.7S386.7,78.3,387,78.3z"/>
				<path class="st3" d="M391.1,82.3c0,0.5-0.2,0.9-0.5,1.2c-0.3,0.3-0.8,0.4-1.4,0.4c-0.5,0-1-0.1-1.3-0.3v-1.1
					c0.2,0.1,0.4,0.2,0.6,0.3c0.2,0.1,0.4,0.1,0.6,0.1c0.2,0,0.4,0,0.5-0.1c0.1-0.1,0.2-0.2,0.2-0.4c0-0.2-0.1-0.3-0.2-0.4
					c-0.1-0.1-0.3-0.3-0.6-0.5c-0.4-0.2-0.7-0.5-0.8-0.7c-0.2-0.3-0.3-0.6-0.3-0.9c0-0.5,0.2-0.8,0.5-1.1c0.3-0.3,0.8-0.4,1.3-0.4
					c0.5,0,0.9,0.1,1.4,0.4l-0.4,0.9c-0.3-0.2-0.7-0.3-0.9-0.3c-0.2,0-0.3,0-0.4,0.1s-0.1,0.2-0.1,0.3c0,0.1,0.1,0.3,0.2,0.4
					c0.1,0.1,0.3,0.3,0.6,0.4c0.3,0.2,0.6,0.4,0.7,0.5c0.1,0.1,0.2,0.3,0.3,0.5C391.1,81.8,391.1,82,391.1,82.3z"/>
				<path class="st3" d="M392.1,77c0-0.2,0.1-0.4,0.2-0.5c0.1-0.1,0.3-0.2,0.5-0.2c0.2,0,0.4,0.1,0.5,0.2c0.1,0.1,0.2,0.3,0.2,0.5
					c0,0.2-0.1,0.4-0.2,0.5c-0.1,0.1-0.3,0.2-0.5,0.2c-0.2,0-0.4-0.1-0.5-0.2C392.2,77.4,392.1,77.2,392.1,77z M393.5,83.8h-1.3
					v-5.4h1.3V83.8z"/>
				<path class="st3" d="M396.7,82.8c0.2,0,0.4,0,0.6-0.1v1c-0.2,0.1-0.5,0.2-1,0.2c-0.5,0-0.8-0.1-1-0.4c-0.2-0.3-0.3-0.7-0.3-1.3
					v-2.8h-0.5v-0.6l0.7-0.5l0.3-1.2h0.8v1.2h1v1h-1v2.9C396.2,82.7,396.4,82.8,396.7,82.8z"/>
				<path class="st3" d="M397.7,78.4h1.3l0.8,3.1c0.1,0.3,0.1,0.7,0.2,1.1h0c0-0.1,0-0.2,0-0.4c0-0.2,0-0.4,0.1-0.5
					c0-0.1,0.2-1.2,0.7-3.3h1.4l-1.6,5.8c-0.2,0.7-0.4,1.2-0.8,1.5s-0.7,0.5-1.3,0.5c-0.3,0-0.5,0-0.7-0.1v-1.1
					c0.1,0,0.3,0.1,0.4,0.1c0.4,0,0.7-0.3,0.9-0.9l0.1-0.3L397.7,78.4z"/>
				<path class="st3" d="M409.6,81.1c0,0.9-0.2,1.6-0.6,2.1c-0.4,0.5-0.9,0.7-1.6,0.7c-0.4,0-0.8-0.1-1.1-0.3
					c-0.3-0.2-0.6-0.6-0.7-1c-0.2-0.4-0.3-0.9-0.3-1.5c0-0.9,0.2-1.6,0.6-2.1c0.4-0.5,0.9-0.7,1.6-0.7c0.6,0,1.2,0.3,1.5,0.8
					C409.4,79.6,409.6,80.3,409.6,81.1z M406.7,81.1c0,0.6,0.1,1,0.2,1.3c0.1,0.3,0.3,0.4,0.6,0.4c0.5,0,0.8-0.6,0.8-1.7
					c0-0.6-0.1-1-0.2-1.3c-0.1-0.3-0.3-0.4-0.6-0.4c-0.3,0-0.5,0.1-0.6,0.4C406.7,80.1,406.7,80.6,406.7,81.1z"/>
				<path class="st3" d="M413.1,79.4h-0.9v4.4h-1.3v-4.4h-0.6v-0.6l0.6-0.4V78c0-0.6,0.1-1.1,0.4-1.4c0.3-0.3,0.7-0.4,1.2-0.4
					c0.4,0,0.7,0.1,1,0.2l-0.3,1c-0.2-0.1-0.3-0.1-0.5-0.1c-0.2,0-0.3,0.1-0.3,0.2s-0.1,0.3-0.1,0.5v0.4h0.9V79.4z"/>
				<path class="st3" d="M419.2,83.8l-1.4-6.1h-0.1c0.1,0.5,0.1,0.9,0.1,1.3v4.8h-1.2v-7.1h2l1.2,5.6h0l1.2-5.6h2.1v7.1h-1.3V79
					c0-0.4,0-0.8,0.1-1.2h0l-1.4,6.1H419.2z"/>
				<path class="st3" d="M429.7,83.8H428l-2.2-5.2h-0.1c0.1,0.4,0.1,0.8,0.1,1.3v3.9h-1.2v-7.1h1.6l2.2,5.1h0.1
					c-0.1-0.3-0.1-0.7-0.1-1.2v-3.9h1.2V83.8z"/>
				<path class="st3" d="M338.4,87.1h1.8c0.7,0,1.3,0.1,1.6,0.4s0.5,0.7,0.5,1.4c0,0.4-0.1,0.8-0.3,1s-0.4,0.4-0.7,0.5v0
					c0.4,0.1,0.7,0.3,0.9,0.6c0.2,0.3,0.3,0.6,0.3,1.1c0,0.6-0.2,1.2-0.5,1.5s-0.8,0.5-1.4,0.5h-2.1V87.1z M339.7,90h0.6
					c0.3,0,0.5-0.1,0.6-0.2c0.1-0.1,0.2-0.4,0.2-0.7c0-0.3-0.1-0.5-0.2-0.6c-0.1-0.1-0.3-0.2-0.6-0.2h-0.6V90z M339.7,91.1v2h0.7
					c0.3,0,0.5-0.1,0.6-0.3c0.1-0.2,0.2-0.4,0.2-0.8c0-0.6-0.3-1-0.8-1H339.7z"/>
				<path class="st3" d="M343.6,93.6c0-0.3,0.1-0.4,0.2-0.6c0.1-0.1,0.3-0.2,0.6-0.2c0.3,0,0.5,0.1,0.6,0.2c0.1,0.1,0.2,0.3,0.2,0.6
					c0,0.3-0.1,0.5-0.2,0.6c-0.1,0.1-0.3,0.2-0.6,0.2c-0.3,0-0.5-0.1-0.6-0.2S343.6,93.8,343.6,93.6z"/>
				<path class="st3" d="M350,94.2l-0.4-1.8h-1.9l-0.4,1.8H346l1.8-7.2h1.8l1.8,7.2H350z M349.3,91.2l-0.4-1.7
					c0-0.1-0.1-0.4-0.2-0.8c-0.1-0.4-0.1-0.7-0.1-0.8c0,0.3-0.1,0.6-0.2,0.9c-0.1,0.3-0.2,1.1-0.5,2.3H349.3z"/>
				<path class="st3" d="M352.1,93.6c0-0.3,0.1-0.4,0.2-0.6c0.1-0.1,0.3-0.2,0.6-0.2c0.3,0,0.5,0.1,0.6,0.2c0.1,0.1,0.2,0.3,0.2,0.6
					c0,0.3-0.1,0.5-0.2,0.6c-0.1,0.1-0.3,0.2-0.6,0.2c-0.3,0-0.5-0.1-0.6-0.2S352.1,93.8,352.1,93.6z"/>
				<path class="st3" d="M356.5,93.2c-0.2,0.7-0.5,1.4-0.9,2.3h-1c0.2-0.9,0.4-1.7,0.5-2.5h1.3L356.5,93.2z"/>
				<path class="st3" d="M360.6,94.2v-7.1h1.3v6h1.8v1.2H360.6z"/>
				<path class="st3" d="M364.7,87.4c0-0.2,0.1-0.4,0.2-0.5c0.1-0.1,0.3-0.2,0.5-0.2c0.2,0,0.4,0.1,0.5,0.2c0.1,0.1,0.2,0.3,0.2,0.5
					c0,0.2-0.1,0.4-0.2,0.5c-0.1,0.1-0.3,0.2-0.5,0.2c-0.2,0-0.4-0.1-0.5-0.2C364.8,87.8,364.7,87.6,364.7,87.4z M366.1,94.2h-1.3
					v-5.4h1.3V94.2z"/>
				<path class="st3" d="M370.1,94.2V91c0-0.4,0-0.7-0.1-0.9c-0.1-0.2-0.2-0.3-0.5-0.3c-0.3,0-0.5,0.1-0.6,0.4
					c-0.1,0.3-0.2,0.7-0.2,1.4v2.6h-1.3v-5.4h1l0.2,0.7h0.1c0.1-0.2,0.3-0.4,0.5-0.6c0.2-0.1,0.5-0.2,0.8-0.2c0.5,0,0.9,0.2,1.1,0.5
					c0.2,0.3,0.4,0.8,0.4,1.5v3.5H370.1z"/>
				<path class="st3" d="M376.6,88.8v0.8l-0.6,0.1c0.1,0.2,0.2,0.5,0.2,0.9c0,0.6-0.2,1-0.5,1.4c-0.3,0.3-0.7,0.5-1.3,0.5
					c-0.2,0-0.3,0-0.4,0c-0.1,0.1-0.1,0.1-0.2,0.2c-0.1,0.1-0.1,0.2-0.1,0.3c0,0.2,0.2,0.3,0.6,0.3h0.8c0.5,0,0.8,0.1,1.1,0.4
					s0.4,0.6,0.4,1.1c0,0.6-0.2,1.1-0.6,1.5c-0.4,0.3-1,0.5-1.8,0.5c-0.6,0-1.1-0.1-1.4-0.4c-0.3-0.3-0.5-0.6-0.5-1.1
					c0-0.3,0.1-0.6,0.3-0.8s0.4-0.4,0.8-0.5c-0.2-0.1-0.3-0.2-0.4-0.3c-0.1-0.1-0.2-0.3-0.2-0.5c0-0.1,0-0.2,0-0.3
					c0-0.1,0.1-0.2,0.1-0.3c0.1-0.1,0.2-0.2,0.4-0.4c-0.2-0.1-0.4-0.3-0.5-0.6c-0.1-0.3-0.2-0.6-0.2-0.9c0-0.6,0.2-1.1,0.5-1.4
					c0.3-0.3,0.8-0.5,1.3-0.5c0.1,0,0.2,0,0.4,0c0.1,0,0.3,0.1,0.3,0.1H376.6z M373.4,95c0,0.2,0.1,0.4,0.2,0.5
					c0.1,0.1,0.3,0.2,0.6,0.2c0.4,0,0.7-0.1,0.9-0.2c0.2-0.1,0.3-0.4,0.3-0.6c0-0.2-0.1-0.3-0.2-0.4c-0.1-0.1-0.3-0.1-0.6-0.1h-0.6
					c-0.2,0-0.3,0.1-0.4,0.2C373.4,94.6,373.4,94.8,373.4,95z M373.8,90.6c0,0.6,0.2,1,0.5,1c0.4,0,0.5-0.3,0.5-1c0-0.7-0.2-1-0.5-1
					C373.9,89.6,373.8,89.9,373.8,90.6z"/>
				<path class="st3" d="M380.4,94.2l-0.2-0.7h-0.1c-0.1,0.2-0.3,0.4-0.5,0.6c-0.2,0.1-0.5,0.2-0.8,0.2c-0.5,0-0.9-0.2-1.1-0.5
					c-0.3-0.3-0.4-0.8-0.4-1.5v-3.5h1.3V92c0,0.4,0,0.7,0.1,0.9c0.1,0.2,0.2,0.3,0.5,0.3c0.3,0,0.5-0.1,0.6-0.4
					c0.1-0.3,0.2-0.7,0.2-1.4v-2.6h1.3v5.4H380.4z"/>
				<path class="st3" d="M382.6,87.4c0-0.2,0.1-0.4,0.2-0.5c0.1-0.1,0.3-0.2,0.5-0.2c0.2,0,0.4,0.1,0.5,0.2c0.1,0.1,0.2,0.3,0.2,0.5
					c0,0.2-0.1,0.4-0.2,0.5c-0.1,0.1-0.3,0.2-0.5,0.2c-0.2,0-0.4-0.1-0.5-0.2C382.7,87.8,382.6,87.6,382.6,87.4z M384,94.2h-1.3
					v-5.4h1.3V94.2z"/>
				<path class="st3" d="M388.2,92.6c0,0.5-0.2,0.9-0.5,1.2s-0.8,0.4-1.4,0.4c-0.5,0-1-0.1-1.3-0.3v-1.1c0.2,0.1,0.4,0.2,0.6,0.3
					c0.2,0.1,0.5,0.1,0.6,0.1c0.2,0,0.4,0,0.5-0.1c0.1-0.1,0.2-0.2,0.2-0.4c0-0.2-0.1-0.3-0.2-0.4c-0.1-0.1-0.3-0.3-0.6-0.5
					c-0.4-0.2-0.7-0.5-0.8-0.7c-0.2-0.3-0.3-0.6-0.3-0.9c0-0.5,0.2-0.8,0.5-1.1c0.3-0.3,0.8-0.4,1.3-0.4c0.5,0,0.9,0.1,1.4,0.4
					l-0.4,0.9c-0.3-0.2-0.7-0.3-0.9-0.3c-0.2,0-0.3,0-0.4,0.1s-0.1,0.2-0.1,0.3c0,0.1,0.1,0.3,0.2,0.4c0.1,0.1,0.3,0.3,0.6,0.4
					c0.3,0.2,0.6,0.4,0.7,0.5c0.1,0.1,0.2,0.3,0.3,0.5C388.2,92.2,388.2,92.4,388.2,92.6z"/>
				<path class="st3" d="M391.1,93.2c0.2,0,0.4,0,0.6-0.1v1c-0.2,0.1-0.5,0.2-1,0.2c-0.5,0-0.8-0.1-1-0.4c-0.2-0.3-0.3-0.7-0.3-1.3
					v-2.8h-0.5v-0.6l0.7-0.5l0.3-1.2h0.8v1.2h1v1h-1v2.9C390.7,93,390.8,93.2,391.1,93.2z"/>
				<path class="st3" d="M392.6,87.4c0-0.2,0.1-0.4,0.2-0.5c0.1-0.1,0.3-0.2,0.5-0.2c0.2,0,0.4,0.1,0.5,0.2c0.1,0.1,0.2,0.3,0.2,0.5
					c0,0.2-0.1,0.4-0.2,0.5c-0.1,0.1-0.3,0.2-0.5,0.2c-0.2,0-0.4-0.1-0.5-0.2C392.7,87.8,392.6,87.6,392.6,87.4z M394,94.2h-1.3
					v-5.4h1.3V94.2z"/>
				<path class="st3" d="M397.1,94.3c-0.6,0-1.1-0.2-1.5-0.7c-0.3-0.5-0.5-1.2-0.5-2.1c0-1,0.2-1.7,0.5-2.1c0.3-0.5,0.8-0.7,1.5-0.7
					c0.2,0,0.4,0,0.6,0.1c0.2,0.1,0.4,0.1,0.6,0.3l-0.4,1c-0.3-0.2-0.5-0.2-0.7-0.2c-0.3,0-0.5,0.1-0.6,0.4s-0.2,0.7-0.2,1.3
					c0,0.6,0.1,1,0.2,1.3c0.1,0.3,0.3,0.4,0.6,0.4c0.3,0,0.7-0.1,1-0.3V94C397.9,94.2,397.5,94.3,397.1,94.3z"/>
				<path class="st3" d="M402.1,92.6c0,0.5-0.2,0.9-0.5,1.2c-0.3,0.3-0.8,0.4-1.4,0.4c-0.5,0-1-0.1-1.3-0.3v-1.1
					c0.2,0.1,0.4,0.2,0.6,0.3c0.2,0.1,0.5,0.1,0.6,0.1c0.2,0,0.4,0,0.5-0.1c0.1-0.1,0.2-0.2,0.2-0.4c0-0.2-0.1-0.3-0.2-0.4
					c-0.1-0.1-0.3-0.3-0.6-0.5c-0.4-0.2-0.7-0.5-0.8-0.7c-0.2-0.3-0.3-0.6-0.3-0.9c0-0.5,0.2-0.8,0.5-1.1c0.3-0.3,0.8-0.4,1.3-0.4
					c0.5,0,0.9,0.1,1.4,0.4l-0.4,0.9c-0.3-0.2-0.7-0.3-0.9-0.3c-0.2,0-0.3,0-0.4,0.1s-0.1,0.2-0.1,0.3c0,0.1,0.1,0.3,0.2,0.4
					c0.1,0.1,0.3,0.3,0.6,0.4c0.3,0.2,0.6,0.4,0.7,0.5c0.1,0.1,0.2,0.3,0.3,0.5C402.1,92.2,402.1,92.4,402.1,92.6z"/>
			</g>
		</g>
		<g>
			<g>
				<path class="st3" d="M568.6,73.5h-3.8v-1l1.3-1.8c0.3-0.5,0.6-0.9,0.7-1.1c0.1-0.2,0.2-0.5,0.3-0.7c0.1-0.2,0.1-0.4,0.1-0.7
					c0-0.3-0.1-0.5-0.2-0.6s-0.3-0.2-0.5-0.2c-0.2,0-0.3,0-0.5,0.1c-0.2,0.1-0.3,0.3-0.5,0.5l-0.7-0.8c0.3-0.4,0.7-0.7,1-0.8
					c0.3-0.1,0.6-0.2,1-0.2c0.6,0,1,0.2,1.4,0.5c0.3,0.3,0.5,0.8,0.5,1.4c0,0.3,0,0.5-0.1,0.8s-0.1,0.5-0.3,0.7
					c-0.1,0.2-0.3,0.5-0.4,0.8c-0.2,0.3-0.6,0.9-1.4,1.8v0h2.3V73.5z"/>
				<path class="st3" d="M573.5,69.9c0,1.3-0.2,2.2-0.5,2.8c-0.3,0.6-0.8,0.9-1.5,0.9c-0.7,0-1.2-0.3-1.5-0.9
					c-0.3-0.6-0.5-1.5-0.5-2.8c0-1.3,0.2-2.2,0.5-2.8c0.3-0.6,0.8-0.9,1.5-0.9c0.7,0,1.2,0.3,1.5,0.9
					C573.4,67.7,573.5,68.6,573.5,69.9z M570.9,69.9c0,1,0,1.7,0.1,2c0.1,0.3,0.2,0.5,0.5,0.5c0.2,0,0.3-0.1,0.4-0.2
					c0.1-0.2,0.2-0.4,0.2-0.7s0.1-0.9,0.1-1.6c0-1,0-1.7-0.1-2c-0.1-0.4-0.3-0.5-0.5-0.5c-0.2,0-0.4,0.2-0.5,0.5
					C571,68.3,570.9,68.9,570.9,69.9z"/>
				<path class="st3" d="M577.6,73.5h-1.3v-4.2c0-0.5,0-1,0.1-1.6c0,0-0.1,0.1-0.3,0.3c-0.1,0.2-0.4,0.5-0.8,0.9l-0.7-0.8l1.9-1.8
					h1.2V73.5z"/>
				<path class="st3" d="M581.3,69c0.5,0,1,0.2,1.3,0.6c0.3,0.4,0.5,0.9,0.5,1.5c0,0.8-0.2,1.4-0.6,1.8c-0.4,0.4-0.9,0.6-1.6,0.6
					c-0.6,0-1.1-0.1-1.5-0.4V72c0.2,0.1,0.4,0.2,0.6,0.3c0.3,0.1,0.5,0.1,0.7,0.1c0.7,0,1-0.4,1-1.2c0-0.8-0.3-1.1-1-1.1
					c-0.3,0-0.6,0.1-0.9,0.2l-0.4-0.3l0.2-3.6h3v1.2h-1.9l-0.1,1.5C580.9,69,581.1,69,581.3,69z"/>
				<path class="st3" d="M522.2,83.8h-3.2v-7.1h3.2v1.1h-1.9v1.7h1.8v1.2h-1.8v2h1.9V83.8z"/>
				<path class="st3" d="M526,83.8v-3.2c0-0.4,0-0.7-0.1-0.9c-0.1-0.2-0.2-0.3-0.5-0.3c-0.3,0-0.5,0.1-0.6,0.4
					c-0.1,0.3-0.2,0.7-0.2,1.4v2.6h-1.3v-5.4h1l0.2,0.7h0.1c0.1-0.2,0.3-0.4,0.5-0.6c0.2-0.1,0.5-0.2,0.8-0.2c0.5,0,0.9,0.2,1.1,0.5
					c0.2,0.3,0.4,0.8,0.4,1.5v3.5H526z"/>
				<path class="st3" d="M530.9,78.3c0.2,0,0.3,0,0.5,0.1l-0.2,1.3c-0.1,0-0.2,0-0.4,0c-0.3,0-0.6,0.1-0.7,0.4
					c-0.2,0.2-0.3,0.6-0.3,1.1v2.8h-1.3v-5.4h1.1l0.1,0.8h0c0.1-0.3,0.3-0.6,0.5-0.7C530.5,78.4,530.7,78.3,530.9,78.3z"/>
				<path class="st3" d="M536.2,81.1c0,0.9-0.2,1.6-0.6,2.1c-0.4,0.5-0.9,0.7-1.6,0.7c-0.4,0-0.8-0.1-1.1-0.3
					c-0.3-0.2-0.6-0.6-0.7-1c-0.2-0.4-0.3-0.9-0.3-1.5c0-0.9,0.2-1.6,0.6-2.1c0.4-0.5,0.9-0.7,1.6-0.7c0.6,0,1.2,0.3,1.5,0.8
					C536,79.6,536.2,80.3,536.2,81.1z M533.3,81.1c0,0.6,0.1,1,0.2,1.3c0.1,0.3,0.3,0.4,0.6,0.4c0.5,0,0.8-0.6,0.8-1.7
					c0-0.6-0.1-1-0.2-1.3c-0.1-0.3-0.3-0.4-0.6-0.4c-0.3,0-0.5,0.1-0.6,0.4C533.4,80.1,533.3,80.6,533.3,81.1z"/>
				<path class="st3" d="M538.6,83.8h-1.3v-7.6h1.3V83.8z"/>
				<path class="st3" d="M541.2,83.8h-1.3v-7.6h1.3V83.8z"/>
				<path class="st3" d="M544.5,83.9c-0.7,0-1.2-0.2-1.6-0.7c-0.4-0.5-0.6-1.2-0.6-2.1c0-0.9,0.2-1.6,0.5-2.1
					c0.4-0.5,0.8-0.8,1.5-0.8c0.6,0,1.1,0.2,1.4,0.6c0.3,0.4,0.5,1,0.5,1.8v0.7h-2.6c0,0.5,0.1,0.8,0.3,1.1c0.2,0.2,0.4,0.4,0.8,0.4
					c0.4,0,0.9-0.1,1.3-0.4v1.1C545.6,83.8,545.1,83.9,544.5,83.9z M544.3,79.3c-0.2,0-0.3,0.1-0.5,0.3c-0.1,0.2-0.2,0.5-0.2,0.9
					h1.3c0-0.4-0.1-0.7-0.2-0.9C544.6,79.4,544.5,79.3,544.3,79.3z"/>
				<path class="st3" d="M548.7,83.9c-0.5,0-0.9-0.2-1.2-0.7c-0.3-0.5-0.4-1.2-0.4-2.1s0.1-1.6,0.4-2.1c0.3-0.5,0.7-0.8,1.2-0.8
					c0.2,0,0.5,0.1,0.6,0.2s0.3,0.3,0.5,0.6h0.1c0-0.5-0.1-0.8-0.1-1v-1.8h1.3v7.6h-1l-0.2-0.7h0C549.6,83.7,549.2,83.9,548.7,83.9z
					 M549.1,82.8c0.2,0,0.4-0.1,0.5-0.3c0.1-0.2,0.2-0.6,0.2-1.2v-0.2c0-0.6-0.1-1.1-0.2-1.3c-0.1-0.3-0.3-0.4-0.6-0.4
					c-0.2,0-0.4,0.1-0.5,0.4c-0.1,0.3-0.2,0.7-0.2,1.3c0,0.6,0.1,1,0.2,1.3C548.7,82.7,548.9,82.8,549.1,82.8z"/>
				<path class="st3" d="M554,82.8c-0.2,0.7-0.5,1.4-0.9,2.3h-1c0.2-0.9,0.4-1.7,0.5-2.5h1.3L554,82.8z"/>
				<path class="st3" d="M562.6,80.2c0,1.2-0.2,2.1-0.7,2.7c-0.5,0.6-1.2,0.9-2.1,0.9h-1.7v-7.1h1.9c0.8,0,1.5,0.3,1.9,0.9
					C562.4,78.2,562.6,79.1,562.6,80.2z M561.3,80.3c0-1.6-0.4-2.4-1.3-2.4h-0.5v4.8h0.4c0.5,0,0.8-0.2,1.1-0.6
					S561.3,81.1,561.3,80.3z"/>
				<path class="st3" d="M565.8,83.9c-0.7,0-1.2-0.2-1.6-0.7s-0.6-1.2-0.6-2.1c0-0.9,0.2-1.6,0.5-2.1c0.4-0.5,0.8-0.8,1.5-0.8
					c0.6,0,1.1,0.2,1.4,0.6c0.3,0.4,0.5,1,0.5,1.8v0.7h-2.6c0,0.5,0.1,0.8,0.3,1.1c0.2,0.2,0.4,0.4,0.8,0.4c0.4,0,0.9-0.1,1.3-0.4
					v1.1C566.9,83.8,566.4,83.9,565.8,83.9z M565.6,79.3c-0.2,0-0.3,0.1-0.5,0.3c-0.1,0.2-0.2,0.5-0.2,0.9h1.3
					c0-0.4-0.1-0.7-0.2-0.9S565.8,79.3,565.6,79.3z"/>
				<path class="st3" d="M572.6,78.9c0,0.8-0.2,1.3-0.6,1.7c-0.4,0.4-0.9,0.6-1.7,0.6H570v2.6h-1.3v-7.1h1.8
					C571.9,76.7,572.6,77.4,572.6,78.9z M570,80.1h0.3c0.3,0,0.6-0.1,0.7-0.3c0.2-0.2,0.2-0.5,0.2-0.9c0-0.4-0.1-0.7-0.2-0.8
					s-0.4-0.3-0.7-0.3H570V80.1z"/>
				<path class="st3" d="M576.2,83.8l-0.3-0.7h0c-0.2,0.3-0.4,0.5-0.6,0.7c-0.2,0.1-0.5,0.2-0.8,0.2c-0.4,0-0.7-0.1-0.9-0.4
					c-0.2-0.3-0.3-0.7-0.3-1.3c0-0.6,0.2-1,0.5-1.3c0.3-0.3,0.8-0.4,1.4-0.5l0.7,0v-0.4c0-0.5-0.2-0.8-0.7-0.8
					c-0.3,0-0.7,0.1-1.1,0.4l-0.4-0.9c0.5-0.3,1.1-0.5,1.8-0.5c0.6,0,1,0.2,1.3,0.5c0.3,0.3,0.5,0.8,0.5,1.4v3.7H576.2z M575.1,82.9
					c0.2,0,0.4-0.1,0.6-0.3c0.1-0.2,0.2-0.5,0.2-0.9v-0.5l-0.4,0c-0.3,0-0.5,0.1-0.7,0.3c-0.1,0.2-0.2,0.4-0.2,0.7
					C574.6,82.7,574.8,82.9,575.1,82.9z"/>
				<path class="st3" d="M581.4,83.8l-0.2-0.7h-0.1c-0.1,0.2-0.3,0.4-0.5,0.6c-0.2,0.1-0.5,0.2-0.8,0.2c-0.5,0-0.9-0.2-1.1-0.5
					c-0.3-0.3-0.4-0.8-0.4-1.5v-3.5h1.3v3.2c0,0.4,0,0.7,0.1,0.9c0.1,0.2,0.2,0.3,0.5,0.3c0.3,0,0.5-0.1,0.6-0.4
					c0.1-0.3,0.2-0.7,0.2-1.4v-2.6h1.3v5.4H581.4z"/>
				<path class="st3" d="M585,83.8h-1.3v-7.6h1.3V83.8z"/>
				<path class="st3" d="M593.4,76.7v4.6c0,0.8-0.2,1.5-0.6,1.9c-0.4,0.4-0.9,0.7-1.7,0.7c-0.7,0-1.3-0.2-1.6-0.7s-0.6-1.1-0.6-2
					v-4.6h1.3v4.7c0,0.9,0.3,1.4,0.9,1.4c0.3,0,0.5-0.1,0.6-0.3c0.2-0.2,0.2-0.6,0.2-1v-4.7H593.4z"/>
				<path class="st3" d="M597.5,83.8v-3.2c0-0.4,0-0.7-0.1-0.9c-0.1-0.2-0.2-0.3-0.5-0.3c-0.3,0-0.5,0.1-0.6,0.4
					c-0.1,0.3-0.2,0.7-0.2,1.4v2.6h-1.3v-5.4h1l0.2,0.7h0.1c0.1-0.2,0.3-0.4,0.5-0.6c0.2-0.1,0.5-0.2,0.8-0.2c0.5,0,0.9,0.2,1.1,0.5
					c0.2,0.3,0.4,0.8,0.4,1.5v3.5H597.5z"/>
				<path class="st3" d="M600,77c0-0.2,0.1-0.4,0.2-0.5c0.1-0.1,0.3-0.2,0.5-0.2c0.2,0,0.4,0.1,0.5,0.2c0.1,0.1,0.2,0.3,0.2,0.5
					c0,0.2-0.1,0.4-0.2,0.5c-0.1,0.1-0.3,0.2-0.5,0.2c-0.2,0-0.4-0.1-0.5-0.2C600.1,77.4,600,77.2,600,77z M601.4,83.8h-1.3v-5.4
					h1.3V83.8z"/>
				<path class="st3" d="M603.6,83.8l-1.4-5.4h1.3l0.7,3.1c0,0.1,0.1,0.4,0.1,0.6c0,0.3,0.1,0.5,0.1,0.6h0c0-0.1,0-0.2,0-0.4
					c0-0.2,0.1-0.3,0.1-0.5c0-0.2,0.3-1.3,0.8-3.5h1.3l-1.4,5.4H603.6z"/>
				<path class="st3" d="M609.3,83.9c-0.7,0-1.2-0.2-1.6-0.7s-0.6-1.2-0.6-2.1c0-0.9,0.2-1.6,0.5-2.1c0.4-0.5,0.8-0.8,1.5-0.8
					c0.6,0,1.1,0.2,1.4,0.6c0.3,0.4,0.5,1,0.5,1.8v0.7h-2.6c0,0.5,0.1,0.8,0.3,1.1c0.2,0.2,0.4,0.4,0.8,0.4c0.4,0,0.9-0.1,1.3-0.4
					v1.1C610.4,83.8,609.9,83.9,609.3,83.9z M609.2,79.3c-0.2,0-0.3,0.1-0.5,0.3c-0.1,0.2-0.2,0.5-0.2,0.9h1.3
					c0-0.4-0.1-0.7-0.2-0.9S609.4,79.3,609.2,79.3z"/>
				<path class="st3" d="M614.5,78.3c0.2,0,0.3,0,0.5,0.1l-0.2,1.3c-0.1,0-0.2,0-0.4,0c-0.3,0-0.6,0.1-0.7,0.4s-0.3,0.6-0.3,1.1v2.8
					h-1.3v-5.4h1.1l0.1,0.8h0c0.1-0.3,0.3-0.6,0.5-0.7S614.2,78.3,614.5,78.3z"/>
				<path class="st3" d="M618.6,82.3c0,0.5-0.2,0.9-0.5,1.2s-0.8,0.4-1.4,0.4c-0.5,0-1-0.1-1.3-0.3v-1.1c0.2,0.1,0.4,0.2,0.6,0.3
					c0.2,0.1,0.5,0.1,0.6,0.1c0.2,0,0.4,0,0.5-0.1c0.1-0.1,0.2-0.2,0.2-0.4c0-0.2-0.1-0.3-0.2-0.4c-0.1-0.1-0.3-0.3-0.6-0.5
					c-0.4-0.2-0.7-0.5-0.8-0.7c-0.2-0.3-0.3-0.6-0.3-0.9c0-0.5,0.2-0.8,0.5-1.1c0.3-0.3,0.8-0.4,1.3-0.4c0.5,0,0.9,0.1,1.4,0.4
					l-0.4,0.9c-0.3-0.2-0.7-0.3-0.9-0.3c-0.2,0-0.3,0-0.4,0.1s-0.1,0.2-0.1,0.3c0,0.1,0.1,0.3,0.2,0.4c0.1,0.1,0.3,0.3,0.6,0.4
					c0.3,0.2,0.6,0.4,0.7,0.5c0.1,0.1,0.2,0.3,0.3,0.5C618.6,81.8,618.6,82,618.6,82.3z"/>
				<path class="st3" d="M619.6,77c0-0.2,0.1-0.4,0.2-0.5c0.1-0.1,0.3-0.2,0.5-0.2c0.2,0,0.4,0.1,0.5,0.2c0.1,0.1,0.2,0.3,0.2,0.5
					c0,0.2-0.1,0.4-0.2,0.5c-0.1,0.1-0.3,0.2-0.5,0.2c-0.2,0-0.4-0.1-0.5-0.2C619.7,77.4,619.6,77.2,619.6,77z M621,83.8h-1.3v-5.4
					h1.3V83.8z"/>
				<path class="st3" d="M624.2,82.8c0.2,0,0.4,0,0.6-0.1v1c-0.2,0.1-0.5,0.2-1,0.2c-0.5,0-0.8-0.1-1-0.4c-0.2-0.3-0.3-0.7-0.3-1.3
					v-2.8h-0.5v-0.6l0.7-0.5l0.3-1.2h0.8v1.2h1v1h-1v2.9C623.7,82.7,623.9,82.8,624.2,82.8z"/>
				<path class="st3" d="M625.2,78.4h1.3l0.8,3.1c0.1,0.3,0.1,0.7,0.2,1.1h0c0-0.1,0-0.2,0-0.4c0-0.2,0-0.4,0.1-0.5
					c0-0.1,0.2-1.2,0.7-3.3h1.4l-1.6,5.8c-0.2,0.7-0.4,1.2-0.8,1.5s-0.7,0.5-1.3,0.5c-0.3,0-0.5,0-0.7-0.1v-1.1
					c0.1,0,0.3,0.1,0.4,0.1c0.4,0,0.7-0.3,0.9-0.9l0.1-0.3L625.2,78.4z"/>
				<path class="st3" d="M503.6,94.2l-1.4-6.1h-0.1c0.1,0.5,0.1,0.9,0.1,1.3v4.8H501v-7.1h2l1.2,5.6h0l1.2-5.6h2.1v7.1h-1.3v-4.8
					c0-0.4,0-0.8,0.1-1.2h0l-1.4,6.1H503.6z"/>
				<path class="st3" d="M509,93.6c0-0.3,0.1-0.4,0.2-0.6c0.1-0.1,0.3-0.2,0.6-0.2s0.5,0.1,0.6,0.2c0.1,0.1,0.2,0.3,0.2,0.6
					c0,0.3-0.1,0.5-0.2,0.6c-0.1,0.1-0.3,0.2-0.6,0.2c-0.3,0-0.5-0.1-0.6-0.2S509,93.8,509,93.6z"/>
				<path class="st3" d="M515.2,92.3c0,0.7-0.2,1.2-0.5,1.5c-0.3,0.4-0.8,0.5-1.5,0.5c-0.6,0-1.2-0.1-1.6-0.4v-1.3
					c0.5,0.3,1,0.5,1.5,0.5c0.3,0,0.4-0.1,0.6-0.2c0.1-0.1,0.2-0.3,0.2-0.6c0-0.2-0.1-0.5-0.2-0.7c-0.2-0.2-0.4-0.4-0.8-0.7
					c-0.3-0.2-0.5-0.4-0.7-0.6c-0.2-0.2-0.3-0.4-0.4-0.7c-0.1-0.2-0.1-0.5-0.1-0.8c0-0.6,0.2-1.1,0.5-1.5c0.3-0.4,0.8-0.5,1.4-0.5
					c0.5,0,1.1,0.2,1.6,0.5l-0.4,1.1c-0.2-0.1-0.3-0.2-0.5-0.2c-0.2-0.1-0.4-0.1-0.5-0.1c-0.2,0-0.4,0.1-0.5,0.2
					c-0.1,0.1-0.2,0.3-0.2,0.6c0,0.2,0.1,0.5,0.2,0.6c0.1,0.2,0.4,0.4,0.7,0.6c0.5,0.3,0.8,0.6,1,1
					C515.1,91.5,515.2,91.8,515.2,92.3z"/>
				<path class="st3" d="M516.2,93.6c0-0.3,0.1-0.4,0.2-0.6c0.1-0.1,0.3-0.2,0.6-0.2c0.3,0,0.5,0.1,0.6,0.2c0.1,0.1,0.2,0.3,0.2,0.6
					c0,0.3-0.1,0.5-0.2,0.6c-0.1,0.1-0.3,0.2-0.6,0.2c-0.3,0-0.5-0.1-0.6-0.2S516.2,93.8,516.2,93.6z"/>
				<path class="st3" d="M520.7,93.2c-0.2,0.7-0.5,1.4-0.9,2.3h-1c0.2-0.9,0.4-1.7,0.5-2.5h1.3L520.7,93.2z"/>
				<path class="st3" d="M529.2,94.2h-1.3v-3.1h-1.8v3.1h-1.3v-7.1h1.3v2.8h1.8v-2.8h1.3V94.2z"/>
				<path class="st3" d="M533.5,94.2l-0.2-0.7h-0.1c-0.1,0.2-0.3,0.4-0.5,0.6s-0.5,0.2-0.8,0.2c-0.5,0-0.9-0.2-1.1-0.5
					s-0.4-0.8-0.4-1.5v-3.5h1.3V92c0,0.4,0,0.7,0.1,0.9c0.1,0.2,0.2,0.3,0.5,0.3c0.3,0,0.5-0.1,0.6-0.4c0.1-0.3,0.2-0.7,0.2-1.4
					v-2.6h1.3v5.4H533.5z"/>
				<path class="st3" d="M541.2,94.2V91c0-0.8-0.2-1.2-0.6-1.2c-0.3,0-0.5,0.1-0.6,0.4c-0.1,0.3-0.2,0.7-0.2,1.4v2.6h-1.3V91
					c0-0.8-0.2-1.2-0.6-1.2c-0.3,0-0.5,0.1-0.6,0.4s-0.2,0.8-0.2,1.4v2.6h-1.3v-5.4h1l0.2,0.7h0.1c0.1-0.3,0.3-0.5,0.5-0.6
					c0.2-0.1,0.5-0.2,0.7-0.2c0.7,0,1.1,0.3,1.3,0.9h0c0.3-0.6,0.7-0.9,1.3-0.9c0.5,0,0.8,0.2,1.1,0.5c0.2,0.3,0.4,0.8,0.4,1.5v3.5
					H541.2z"/>
				<path class="st3" d="M546.4,94.2l-0.3-0.7h0c-0.2,0.3-0.4,0.5-0.6,0.7c-0.2,0.1-0.5,0.2-0.8,0.2c-0.4,0-0.7-0.1-0.9-0.4
					c-0.2-0.3-0.3-0.7-0.3-1.3c0-0.6,0.2-1,0.5-1.3c0.3-0.3,0.8-0.4,1.4-0.5l0.7,0v-0.4c0-0.5-0.2-0.8-0.7-0.8
					c-0.3,0-0.7,0.1-1.1,0.4l-0.4-0.9c0.5-0.3,1.1-0.5,1.8-0.5c0.6,0,1,0.2,1.3,0.5c0.3,0.3,0.5,0.8,0.5,1.4v3.7H546.4z M545.3,93.3
					c0.2,0,0.4-0.1,0.6-0.3c0.1-0.2,0.2-0.5,0.2-0.9v-0.5l-0.4,0c-0.3,0-0.5,0.1-0.7,0.3c-0.1,0.2-0.2,0.4-0.2,0.7
					C544.8,93.1,545,93.3,545.3,93.3z"/>
				<path class="st3" d="M551.3,94.2V91c0-0.4,0-0.7-0.1-0.9c-0.1-0.2-0.2-0.3-0.5-0.3c-0.3,0-0.5,0.1-0.6,0.4
					c-0.1,0.3-0.2,0.7-0.2,1.4v2.6h-1.3v-5.4h1l0.2,0.7h0.1c0.1-0.2,0.3-0.4,0.5-0.6c0.2-0.1,0.5-0.2,0.8-0.2c0.5,0,0.9,0.2,1.1,0.5
					c0.2,0.3,0.4,0.8,0.4,1.5v3.5H551.3z"/>
				<path class="st3" d="M553.7,92.1V91h2.5v1.1H553.7z"/>
				<path class="st3" d="M559.7,88.1c-0.4,0-0.7,0.2-0.9,0.7c-0.2,0.4-0.3,1.1-0.3,1.9c0,1.7,0.4,2.5,1.3,2.5c0.4,0,0.8-0.1,1.2-0.4
					V94c-0.3,0.2-0.8,0.3-1.3,0.3c-0.8,0-1.4-0.3-1.9-1s-0.6-1.5-0.6-2.7c0-1.2,0.2-2.1,0.7-2.7c0.4-0.6,1.1-1,1.9-1
					c0.3,0,0.5,0,0.7,0.1c0.2,0.1,0.5,0.2,0.8,0.4l-0.4,1.1c-0.1-0.1-0.3-0.2-0.5-0.3S559.9,88.1,559.7,88.1z"/>
				<path class="st3" d="M566.1,91.5c0,0.9-0.2,1.6-0.6,2.1c-0.4,0.5-0.9,0.7-1.6,0.7c-0.4,0-0.8-0.1-1.1-0.3
					c-0.3-0.2-0.6-0.6-0.7-1c-0.2-0.4-0.3-0.9-0.3-1.5c0-0.9,0.2-1.6,0.6-2.1c0.4-0.5,0.9-0.7,1.6-0.7c0.6,0,1.2,0.3,1.5,0.8
					C565.9,89.9,566.1,90.6,566.1,91.5z M563.2,91.5c0,0.6,0.1,1,0.2,1.3c0.1,0.3,0.3,0.4,0.6,0.4c0.5,0,0.8-0.6,0.8-1.7
					c0-0.6-0.1-1-0.2-1.3c-0.1-0.3-0.3-0.4-0.6-0.4c-0.3,0-0.5,0.1-0.6,0.4C563.3,90.5,563.2,90.9,563.2,91.5z"/>
				<path class="st3" d="M572.6,94.2V91c0-0.8-0.2-1.2-0.6-1.2c-0.3,0-0.5,0.1-0.6,0.4c-0.1,0.3-0.2,0.7-0.2,1.4v2.6h-1.3V91
					c0-0.8-0.2-1.2-0.6-1.2c-0.3,0-0.5,0.1-0.6,0.4s-0.2,0.8-0.2,1.4v2.6h-1.3v-5.4h1l0.2,0.7h0.1c0.1-0.3,0.3-0.5,0.5-0.6
					c0.2-0.1,0.5-0.2,0.7-0.2c0.7,0,1.1,0.3,1.3,0.9h0c0.3-0.6,0.7-0.9,1.3-0.9c0.5,0,0.8,0.2,1.1,0.5c0.2,0.3,0.4,0.8,0.4,1.5v3.5
					H572.6z"/>
				<path class="st3" d="M577.6,94.3c-0.2,0-0.4-0.1-0.6-0.2c-0.2-0.1-0.3-0.3-0.5-0.6h-0.1c0.1,0.4,0.1,0.7,0.1,0.8v2.2h-1.3v-7.8
					h1l0.2,0.7h0.1c0.3-0.5,0.7-0.8,1.2-0.8c0.5,0,0.9,0.2,1.2,0.7c0.3,0.5,0.4,1.2,0.4,2.1c0,0.9-0.1,1.6-0.4,2.1
					C578.5,94.1,578.1,94.3,577.6,94.3z M577.2,89.8c-0.3,0-0.4,0.1-0.5,0.4c-0.1,0.2-0.2,0.6-0.2,1.2v0.2c0,0.6,0.1,1,0.2,1.3
					c0.1,0.3,0.3,0.4,0.6,0.4c0.5,0,0.7-0.6,0.7-1.7c0-0.6-0.1-1-0.2-1.3C577.6,89.9,577.5,89.8,577.2,89.8z"/>
				<path class="st3" d="M583.3,94.2l-0.2-0.7h-0.1c-0.1,0.2-0.3,0.4-0.5,0.6c-0.2,0.1-0.5,0.2-0.8,0.2c-0.5,0-0.9-0.2-1.1-0.5
					c-0.3-0.3-0.4-0.8-0.4-1.5v-3.5h1.3V92c0,0.4,0,0.7,0.1,0.9c0.1,0.2,0.2,0.3,0.5,0.3c0.3,0,0.5-0.1,0.6-0.4
					c0.1-0.3,0.2-0.7,0.2-1.4v-2.6h1.3v5.4H583.3z"/>
				<path class="st3" d="M587.5,93.2c0.2,0,0.4,0,0.6-0.1v1c-0.2,0.1-0.5,0.2-1,0.2c-0.5,0-0.8-0.1-1-0.4c-0.2-0.3-0.3-0.7-0.3-1.3
					v-2.8h-0.5v-0.6l0.7-0.5l0.3-1.2h0.8v1.2h1v1h-1v2.9C587.1,93,587.2,93.2,587.5,93.2z"/>
				<path class="st3" d="M591.1,94.3c-0.7,0-1.2-0.2-1.6-0.7c-0.4-0.5-0.6-1.2-0.6-2.1c0-0.9,0.2-1.6,0.5-2.1
					c0.4-0.5,0.8-0.8,1.5-0.8c0.6,0,1.1,0.2,1.4,0.6c0.3,0.4,0.5,1,0.5,1.8v0.7h-2.6c0,0.5,0.1,0.8,0.3,1.1c0.2,0.2,0.4,0.4,0.8,0.4
					c0.4,0,0.9-0.1,1.3-0.4v1.1C592.2,94.2,591.7,94.3,591.1,94.3z M590.9,89.7c-0.2,0-0.3,0.1-0.5,0.3c-0.1,0.2-0.2,0.5-0.2,0.9
					h1.3c0-0.4-0.1-0.7-0.2-0.9C591.2,89.8,591.1,89.7,590.9,89.7z"/>
				<path class="st3" d="M596.2,88.7c0.2,0,0.3,0,0.5,0.1l-0.2,1.3c-0.1,0-0.2,0-0.4,0c-0.3,0-0.6,0.1-0.7,0.4s-0.3,0.6-0.3,1.1v2.8
					h-1.3v-5.4h1.1l0.1,0.8h0c0.1-0.3,0.3-0.6,0.5-0.7S596,88.7,596.2,88.7z"/>
				<path class="st3" d="M600.4,94.2v-7.1h1.3v7.1H600.4z"/>
				<path class="st3" d="M606,94.2V91c0-0.4,0-0.7-0.1-0.9c-0.1-0.2-0.2-0.3-0.5-0.3c-0.3,0-0.5,0.1-0.6,0.4
					c-0.1,0.3-0.2,0.7-0.2,1.4v2.6h-1.3v-5.4h1l0.2,0.7h0.1c0.1-0.2,0.3-0.4,0.5-0.6c0.2-0.1,0.5-0.2,0.8-0.2c0.5,0,0.9,0.2,1.1,0.5
					c0.2,0.3,0.4,0.8,0.4,1.5v3.5H606z"/>
				<path class="st3" d="M610.5,93.2c0.2,0,0.4,0,0.6-0.1v1c-0.2,0.1-0.5,0.2-1,0.2c-0.5,0-0.8-0.1-1-0.4c-0.2-0.3-0.3-0.7-0.3-1.3
					v-2.8h-0.5v-0.6l0.7-0.5l0.3-1.2h0.8v1.2h1v1h-1v2.9C610,93,610.2,93.2,610.5,93.2z"/>
				<path class="st3" d="M614,94.3c-0.7,0-1.2-0.2-1.6-0.7s-0.6-1.2-0.6-2.1c0-0.9,0.2-1.6,0.5-2.1c0.4-0.5,0.8-0.8,1.5-0.8
					c0.6,0,1.1,0.2,1.4,0.6c0.3,0.4,0.5,1,0.5,1.8v0.7h-2.6c0,0.5,0.1,0.8,0.3,1.1c0.2,0.2,0.4,0.4,0.8,0.4c0.4,0,0.9-0.1,1.3-0.4
					v1.1C615.1,94.2,614.6,94.3,614,94.3z M613.8,89.7c-0.2,0-0.3,0.1-0.5,0.3c-0.1,0.2-0.2,0.5-0.2,0.9h1.3c0-0.4-0.1-0.7-0.2-0.9
					S614,89.7,613.8,89.7z"/>
				<path class="st3" d="M619.1,88.7c0.2,0,0.3,0,0.5,0.1l-0.2,1.3c-0.1,0-0.2,0-0.4,0c-0.3,0-0.6,0.1-0.7,0.4s-0.3,0.6-0.3,1.1v2.8
					h-1.3v-5.4h1.1l0.1,0.8h0c0.1-0.3,0.3-0.6,0.5-0.7S618.9,88.7,619.1,88.7z"/>
				<path class="st3" d="M623.1,94.2l-0.3-0.7h0c-0.2,0.3-0.4,0.5-0.6,0.7c-0.2,0.1-0.5,0.2-0.8,0.2c-0.4,0-0.7-0.1-0.9-0.4
					c-0.2-0.3-0.3-0.7-0.3-1.3c0-0.6,0.2-1,0.5-1.3s0.8-0.4,1.4-0.5l0.7,0v-0.4c0-0.5-0.2-0.8-0.7-0.8c-0.3,0-0.7,0.1-1.1,0.4
					l-0.4-0.9c0.5-0.3,1.1-0.5,1.8-0.5c0.6,0,1,0.2,1.3,0.5c0.3,0.3,0.5,0.8,0.5,1.4v3.7H623.1z M621.9,93.3c0.2,0,0.4-0.1,0.6-0.3
					c0.1-0.2,0.2-0.5,0.2-0.9v-0.5l-0.4,0c-0.3,0-0.5,0.1-0.7,0.3c-0.1,0.2-0.2,0.4-0.2,0.7C621.4,93.1,621.6,93.3,621.9,93.3z"/>
				<path class="st3" d="M627,94.3c-0.6,0-1.1-0.2-1.5-0.7c-0.3-0.5-0.5-1.2-0.5-2.1c0-1,0.2-1.7,0.5-2.1c0.3-0.5,0.8-0.7,1.5-0.7
					c0.2,0,0.4,0,0.6,0.1c0.2,0.1,0.4,0.1,0.6,0.3l-0.4,1c-0.3-0.2-0.5-0.2-0.7-0.2c-0.3,0-0.5,0.1-0.6,0.4s-0.2,0.7-0.2,1.3
					c0,0.6,0.1,1,0.2,1.3c0.1,0.3,0.3,0.4,0.6,0.4c0.3,0,0.7-0.1,1-0.3V94C627.8,94.2,627.5,94.3,627,94.3z"/>
				<path class="st3" d="M631.1,93.2c0.2,0,0.4,0,0.6-0.1v1c-0.2,0.1-0.5,0.2-1,0.2c-0.5,0-0.8-0.1-1-0.4c-0.2-0.3-0.3-0.7-0.3-1.3
					v-2.8h-0.5v-0.6l0.7-0.5l0.3-1.2h0.8v1.2h1v1h-1v2.9C630.6,93,630.8,93.2,631.1,93.2z"/>
				<path class="st3" d="M632.6,87.4c0-0.2,0.1-0.4,0.2-0.5c0.1-0.1,0.3-0.2,0.5-0.2c0.2,0,0.4,0.1,0.5,0.2c0.1,0.1,0.2,0.3,0.2,0.5
					c0,0.2-0.1,0.4-0.2,0.5c-0.1,0.1-0.3,0.2-0.5,0.2c-0.2,0-0.4-0.1-0.5-0.2C632.6,87.8,632.6,87.6,632.6,87.4z M633.9,94.2h-1.3
					v-5.4h1.3V94.2z"/>
				<path class="st3" d="M639.3,91.5c0,0.9-0.2,1.6-0.6,2.1c-0.4,0.5-0.9,0.7-1.6,0.7c-0.4,0-0.8-0.1-1.1-0.3
					c-0.3-0.2-0.6-0.6-0.7-1c-0.2-0.4-0.3-0.9-0.3-1.5c0-0.9,0.2-1.6,0.6-2.1c0.4-0.5,0.9-0.7,1.6-0.7c0.6,0,1.2,0.3,1.5,0.8
					C639.1,89.9,639.3,90.6,639.3,91.5z M636.4,91.5c0,0.6,0.1,1,0.2,1.3c0.1,0.3,0.3,0.4,0.6,0.4c0.5,0,0.8-0.6,0.8-1.7
					c0-0.6-0.1-1-0.2-1.3c-0.1-0.3-0.3-0.4-0.6-0.4c-0.3,0-0.5,0.1-0.6,0.4C636.4,90.5,636.4,90.9,636.4,91.5z"/>
				<path class="st3" d="M643.1,94.2V91c0-0.4,0-0.7-0.1-0.9c-0.1-0.2-0.2-0.3-0.5-0.3c-0.3,0-0.5,0.1-0.6,0.4s-0.2,0.7-0.2,1.4v2.6
					h-1.3v-5.4h1l0.2,0.7h0.1c0.1-0.2,0.3-0.4,0.5-0.6s0.5-0.2,0.8-0.2c0.5,0,0.9,0.2,1.1,0.5c0.2,0.3,0.4,0.8,0.4,1.5v3.5H643.1z"
					/>
			</g>
		</g>
		<g>
			<g>
				<path class="st3" d="M702,73.5h-3.8v-1l1.3-1.8c0.3-0.5,0.6-0.9,0.7-1.1c0.1-0.2,0.2-0.5,0.3-0.7c0.1-0.2,0.1-0.4,0.1-0.7
					c0-0.3-0.1-0.5-0.2-0.6s-0.3-0.2-0.5-0.2c-0.2,0-0.3,0-0.5,0.1c-0.2,0.1-0.3,0.3-0.5,0.5l-0.7-0.8c0.3-0.4,0.7-0.7,1-0.8
					c0.3-0.1,0.6-0.2,1-0.2c0.6,0,1,0.2,1.4,0.5c0.3,0.3,0.5,0.8,0.5,1.4c0,0.3,0,0.5-0.1,0.8s-0.1,0.5-0.3,0.7
					c-0.1,0.2-0.3,0.5-0.4,0.8c-0.2,0.3-0.6,0.9-1.4,1.8v0h2.3V73.5z"/>
				<path class="st3" d="M706.9,69.9c0,1.3-0.2,2.2-0.5,2.8c-0.3,0.6-0.8,0.9-1.5,0.9c-0.7,0-1.2-0.3-1.5-0.9
					c-0.3-0.6-0.5-1.5-0.5-2.8c0-1.3,0.2-2.2,0.5-2.8c0.3-0.6,0.8-0.9,1.5-0.9c0.7,0,1.2,0.3,1.5,0.9
					C706.8,67.7,706.9,68.6,706.9,69.9z M704.3,69.9c0,1,0,1.7,0.1,2c0.1,0.3,0.2,0.5,0.5,0.5c0.2,0,0.3-0.1,0.4-0.2
					c0.1-0.2,0.2-0.4,0.2-0.7s0.1-0.9,0.1-1.6c0-1,0-1.7-0.1-2c-0.1-0.4-0.3-0.5-0.5-0.5c-0.2,0-0.4,0.2-0.5,0.5
					C704.4,68.3,704.3,68.9,704.3,69.9z"/>
				<path class="st3" d="M711,73.5h-1.3v-4.2c0-0.5,0-1,0.1-1.6c0,0-0.1,0.1-0.3,0.3c-0.1,0.2-0.4,0.5-0.8,0.9l-0.7-0.8l1.9-1.8h1.2
					V73.5z"/>
				<path class="st3" d="M712.7,70.4c0-1.5,0.2-2.5,0.7-3.2c0.5-0.7,1.1-1,2.1-1c0.1,0,0.3,0,0.4,0c0.1,0,0.3,0,0.3,0.1v1.1
					c-0.2-0.1-0.4-0.1-0.7-0.1c-0.4,0-0.7,0.1-0.9,0.2c-0.2,0.2-0.4,0.4-0.5,0.7c-0.1,0.3-0.2,0.8-0.2,1.4h0.1
					c0.1-0.3,0.3-0.5,0.5-0.6c0.2-0.1,0.4-0.2,0.7-0.2c0.5,0,0.9,0.2,1.1,0.6c0.3,0.4,0.4,0.9,0.4,1.7c0,0.8-0.2,1.4-0.5,1.8
					c-0.4,0.4-0.8,0.7-1.4,0.7c-0.6,0-1.1-0.3-1.5-0.8C712.8,72.3,712.7,71.5,712.7,70.4z M714.6,72.5c0.2,0,0.4-0.1,0.5-0.3
					c0.1-0.2,0.2-0.6,0.2-1c0-0.4-0.1-0.7-0.2-0.9c-0.1-0.2-0.3-0.3-0.5-0.3c-0.2,0-0.3,0.1-0.5,0.3c-0.1,0.2-0.2,0.4-0.2,0.8
					c0,0.5,0.1,0.8,0.2,1.1C714.3,72.3,714.4,72.5,714.6,72.5z"/>
				<path class="st3" d="M656.4,76.7v4.6c0,0.8-0.2,1.5-0.6,1.9c-0.4,0.4-0.9,0.7-1.7,0.7c-0.7,0-1.3-0.2-1.6-0.7s-0.6-1.1-0.6-2
					v-4.6h1.3v4.7c0,0.9,0.3,1.4,0.9,1.4c0.3,0,0.5-0.1,0.6-0.3c0.2-0.2,0.2-0.6,0.2-1v-4.7H656.4z"/>
				<path class="st3" d="M660.7,82.3c0,0.5-0.2,0.9-0.5,1.2c-0.3,0.3-0.8,0.4-1.4,0.4c-0.5,0-1-0.1-1.3-0.3v-1.1
					c0.2,0.1,0.4,0.2,0.6,0.3c0.2,0.1,0.5,0.1,0.6,0.1c0.2,0,0.4,0,0.5-0.1c0.1-0.1,0.2-0.2,0.2-0.4c0-0.2-0.1-0.3-0.2-0.4
					c-0.1-0.1-0.3-0.3-0.6-0.5c-0.4-0.2-0.7-0.5-0.8-0.7c-0.2-0.3-0.3-0.6-0.3-0.9c0-0.5,0.2-0.8,0.5-1.1c0.3-0.3,0.8-0.4,1.3-0.4
					c0.5,0,0.9,0.1,1.4,0.4l-0.4,0.9c-0.3-0.2-0.7-0.3-0.9-0.3c-0.2,0-0.3,0-0.4,0.1s-0.1,0.2-0.1,0.3c0,0.1,0.1,0.3,0.2,0.4
					c0.1,0.1,0.3,0.3,0.6,0.4c0.3,0.2,0.6,0.4,0.7,0.5c0.1,0.1,0.2,0.3,0.3,0.5C660.7,81.8,660.7,82,660.7,82.3z"/>
				<path class="st3" d="M663.7,83.9c-0.7,0-1.2-0.2-1.6-0.7c-0.4-0.5-0.6-1.2-0.6-2.1c0-0.9,0.2-1.6,0.5-2.1
					c0.4-0.5,0.8-0.8,1.5-0.8c0.6,0,1.1,0.2,1.4,0.6c0.3,0.4,0.5,1,0.5,1.8v0.7h-2.6c0,0.5,0.1,0.8,0.3,1.1c0.2,0.2,0.4,0.4,0.8,0.4
					c0.4,0,0.9-0.1,1.3-0.4v1.1C664.8,83.8,664.3,83.9,663.7,83.9z M663.5,79.3c-0.2,0-0.3,0.1-0.5,0.3c-0.1,0.2-0.2,0.5-0.2,0.9
					h1.3c0-0.4-0.1-0.7-0.2-0.9C663.9,79.4,663.7,79.3,663.5,79.3z"/>
				<path class="st3" d="M668.8,78.3c0.2,0,0.3,0,0.5,0.1l-0.2,1.3c-0.1,0-0.2,0-0.4,0c-0.3,0-0.6,0.1-0.7,0.4s-0.3,0.6-0.3,1.1v2.8
					h-1.3v-5.4h1.1l0.1,0.8h0c0.1-0.3,0.3-0.6,0.5-0.7S668.6,78.3,668.8,78.3z"/>
				<path class="st3" d="M676.1,83.8h-3.2v-7.1h3.2v1.1h-1.9v1.7h1.8v1.2h-1.8v2h1.9V83.8z"/>
				<path class="st3" d="M678.2,81.1l-1.4-2.7h1.3l0.7,1.7l0.7-1.7h1.3l-1.4,2.7l1.4,2.8h-1.4l-0.8-1.7l-0.7,1.7h-1.4L678.2,81.1z"
					/>
				<path class="st3" d="M684.2,83.9c-0.2,0-0.4-0.1-0.6-0.2c-0.2-0.1-0.3-0.3-0.5-0.6H683c0.1,0.4,0.1,0.7,0.1,0.8v2.2h-1.3v-7.8h1
					l0.2,0.7h0.1c0.3-0.5,0.7-0.8,1.2-0.8c0.5,0,0.9,0.2,1.2,0.7c0.3,0.5,0.4,1.2,0.4,2.1c0,0.9-0.1,1.6-0.4,2.1
					C685.1,83.7,684.7,83.9,684.2,83.9z M683.8,79.4c-0.3,0-0.4,0.1-0.5,0.4c-0.1,0.2-0.2,0.6-0.2,1.2v0.2c0,0.6,0.1,1,0.2,1.3
					c0.1,0.3,0.3,0.4,0.6,0.4c0.5,0,0.7-0.6,0.7-1.7c0-0.6-0.1-1-0.2-1.3C684.2,79.6,684,79.4,683.8,79.4z"/>
				<path class="st3" d="M688.9,83.9c-0.7,0-1.2-0.2-1.6-0.7c-0.4-0.5-0.6-1.2-0.6-2.1c0-0.9,0.2-1.6,0.5-2.1
					c0.4-0.5,0.8-0.8,1.5-0.8c0.6,0,1.1,0.2,1.4,0.6c0.3,0.4,0.5,1,0.5,1.8v0.7h-2.6c0,0.5,0.1,0.8,0.3,1.1c0.2,0.2,0.4,0.4,0.8,0.4
					c0.4,0,0.9-0.1,1.3-0.4v1.1C690,83.8,689.5,83.9,688.9,83.9z M688.7,79.3c-0.2,0-0.3,0.1-0.5,0.3c-0.1,0.2-0.2,0.5-0.2,0.9h1.3
					c0-0.4-0.1-0.7-0.2-0.9C689.1,79.4,688.9,79.3,688.7,79.3z"/>
				<path class="st3" d="M694,78.3c0.2,0,0.3,0,0.5,0.1l-0.2,1.3c-0.1,0-0.2,0-0.4,0c-0.3,0-0.6,0.1-0.7,0.4s-0.3,0.6-0.3,1.1v2.8
					h-1.3v-5.4h1.1l0.1,0.8h0c0.1-0.3,0.3-0.6,0.5-0.7S693.8,78.3,694,78.3z"/>
				<path class="st3" d="M695.3,77c0-0.2,0.1-0.4,0.2-0.5c0.1-0.1,0.3-0.2,0.5-0.2c0.2,0,0.4,0.1,0.5,0.2c0.1,0.1,0.2,0.3,0.2,0.5
					c0,0.2-0.1,0.4-0.2,0.5s-0.3,0.2-0.5,0.2c-0.2,0-0.4-0.1-0.5-0.2S695.3,77.2,695.3,77z M696.6,83.8h-1.3v-5.4h1.3V83.8z"/>
				<path class="st3" d="M699.9,83.9c-0.7,0-1.2-0.2-1.6-0.7c-0.4-0.5-0.6-1.2-0.6-2.1c0-0.9,0.2-1.6,0.5-2.1
					c0.4-0.5,0.8-0.8,1.5-0.8c0.6,0,1.1,0.2,1.4,0.6c0.3,0.4,0.5,1,0.5,1.8v0.7H699c0,0.5,0.1,0.8,0.3,1.1c0.2,0.2,0.4,0.4,0.8,0.4
					c0.4,0,0.9-0.1,1.3-0.4v1.1C701,83.8,700.5,83.9,699.9,83.9z M699.7,79.3c-0.2,0-0.3,0.1-0.5,0.3c-0.1,0.2-0.2,0.5-0.2,0.9h1.3
					c0-0.4-0.1-0.7-0.2-0.9C700.1,79.4,699.9,79.3,699.7,79.3z"/>
				<path class="st3" d="M705.4,83.8v-3.2c0-0.4,0-0.7-0.1-0.9c-0.1-0.2-0.2-0.3-0.5-0.3c-0.3,0-0.5,0.1-0.6,0.4
					c-0.1,0.3-0.2,0.7-0.2,1.4v2.6h-1.3v-5.4h1l0.2,0.7h0.1c0.1-0.2,0.3-0.4,0.5-0.6c0.2-0.1,0.5-0.2,0.8-0.2c0.5,0,0.9,0.2,1.1,0.5
					c0.2,0.3,0.4,0.8,0.4,1.5v3.5H705.4z"/>
				<path class="st3" d="M709.8,83.9c-0.6,0-1.1-0.2-1.5-0.7c-0.3-0.5-0.5-1.2-0.5-2.1c0-1,0.2-1.7,0.5-2.1c0.3-0.5,0.8-0.7,1.5-0.7
					c0.2,0,0.4,0,0.6,0.1c0.2,0.1,0.4,0.1,0.6,0.3l-0.4,1c-0.3-0.2-0.5-0.2-0.7-0.2c-0.3,0-0.5,0.1-0.6,0.4s-0.2,0.7-0.2,1.3
					c0,0.6,0.1,1,0.2,1.3c0.1,0.3,0.3,0.4,0.6,0.4c0.3,0,0.7-0.1,1-0.3v1.1C710.6,83.8,710.2,83.9,709.8,83.9z"/>
				<path class="st3" d="M713.9,83.9c-0.7,0-1.2-0.2-1.6-0.7c-0.4-0.5-0.6-1.2-0.6-2.1c0-0.9,0.2-1.6,0.5-2.1
					c0.4-0.5,0.8-0.8,1.5-0.8c0.6,0,1.1,0.2,1.4,0.6c0.3,0.4,0.5,1,0.5,1.8v0.7H713c0,0.5,0.1,0.8,0.3,1.1c0.2,0.2,0.4,0.4,0.8,0.4
					c0.4,0,0.9-0.1,1.3-0.4v1.1C715,83.8,714.5,83.9,713.9,83.9z M713.7,79.3c-0.2,0-0.3,0.1-0.5,0.3c-0.1,0.2-0.2,0.5-0.2,0.9h1.3
					c0-0.4-0.1-0.7-0.2-0.9C714.1,79.4,713.9,79.3,713.7,79.3z"/>
				<path class="st3" d="M720.8,81.1v2.8h-1.3v-7.1h1.7c0.7,0,1.3,0.2,1.6,0.5c0.4,0.3,0.5,0.9,0.5,1.6c0,0.9-0.3,1.5-0.9,1.9
					l1.4,3.1h-1.4l-1.1-2.8H720.8z M720.8,79.9h0.3c0.3,0,0.5-0.1,0.7-0.3c0.1-0.2,0.2-0.4,0.2-0.8c0-0.4-0.1-0.6-0.2-0.8
					c-0.1-0.2-0.4-0.2-0.7-0.2h-0.3V79.9z"/>
				<path class="st3" d="M726.6,83.9c-0.7,0-1.2-0.2-1.6-0.7s-0.6-1.2-0.6-2.1c0-0.9,0.2-1.6,0.5-2.1c0.4-0.5,0.8-0.8,1.5-0.8
					c0.6,0,1.1,0.2,1.4,0.6c0.3,0.4,0.5,1,0.5,1.8v0.7h-2.6c0,0.5,0.1,0.8,0.3,1.1c0.2,0.2,0.4,0.4,0.8,0.4c0.4,0,0.9-0.1,1.3-0.4
					v1.1C727.7,83.8,727.2,83.9,726.6,83.9z M726.4,79.3c-0.2,0-0.3,0.1-0.5,0.3c-0.1,0.2-0.2,0.5-0.2,0.9h1.3
					c0-0.4-0.1-0.7-0.2-0.9S726.6,79.3,726.4,79.3z"/>
				<path class="st3" d="M732.3,82.3c0,0.5-0.2,0.9-0.5,1.2c-0.3,0.3-0.8,0.4-1.4,0.4c-0.5,0-1-0.1-1.3-0.3v-1.1
					c0.2,0.1,0.4,0.2,0.6,0.3c0.2,0.1,0.4,0.1,0.6,0.1c0.2,0,0.4,0,0.5-0.1c0.1-0.1,0.2-0.2,0.2-0.4c0-0.2-0.1-0.3-0.2-0.4
					c-0.1-0.1-0.3-0.3-0.6-0.5c-0.4-0.2-0.7-0.5-0.8-0.7c-0.2-0.3-0.3-0.6-0.3-0.9c0-0.5,0.2-0.8,0.5-1.1c0.3-0.3,0.8-0.4,1.3-0.4
					c0.5,0,0.9,0.1,1.4,0.4l-0.4,0.9c-0.3-0.2-0.7-0.3-0.9-0.3c-0.2,0-0.3,0-0.4,0.1s-0.1,0.2-0.1,0.3c0,0.1,0.1,0.3,0.2,0.4
					c0.1,0.1,0.3,0.3,0.6,0.4c0.3,0.2,0.6,0.4,0.7,0.5c0.1,0.1,0.2,0.3,0.3,0.5C732.2,81.8,732.3,82,732.3,82.3z"/>
				<path class="st3" d="M735.3,83.9c-0.7,0-1.2-0.2-1.6-0.7c-0.4-0.5-0.6-1.2-0.6-2.1c0-0.9,0.2-1.6,0.5-2.1
					c0.4-0.5,0.8-0.8,1.5-0.8c0.6,0,1.1,0.2,1.4,0.6c0.3,0.4,0.5,1,0.5,1.8v0.7h-2.6c0,0.5,0.1,0.8,0.3,1.1c0.2,0.2,0.4,0.4,0.8,0.4
					c0.4,0,0.9-0.1,1.3-0.4v1.1C736.4,83.8,735.9,83.9,735.3,83.9z M735.1,79.3c-0.2,0-0.3,0.1-0.5,0.3c-0.1,0.2-0.2,0.5-0.2,0.9
					h1.3c0-0.4-0.1-0.7-0.2-0.9C735.5,79.4,735.3,79.3,735.1,79.3z"/>
				<path class="st3" d="M740.8,83.8l-0.3-0.7h0c-0.2,0.3-0.4,0.5-0.6,0.7c-0.2,0.1-0.5,0.2-0.8,0.2c-0.4,0-0.7-0.1-0.9-0.4
					c-0.2-0.3-0.3-0.7-0.3-1.3c0-0.6,0.2-1,0.5-1.3c0.3-0.3,0.8-0.4,1.4-0.5l0.7,0v-0.4c0-0.5-0.2-0.8-0.7-0.8
					c-0.3,0-0.7,0.1-1.1,0.4l-0.4-0.9c0.5-0.3,1.1-0.5,1.8-0.5c0.6,0,1,0.2,1.3,0.5c0.3,0.3,0.5,0.8,0.5,1.4v3.7H740.8z M739.6,82.9
					c0.2,0,0.4-0.1,0.6-0.3c0.1-0.2,0.2-0.5,0.2-0.9v-0.5l-0.4,0c-0.3,0-0.5,0.1-0.7,0.3c-0.1,0.2-0.2,0.4-0.2,0.7
					C739.2,82.7,739.3,82.9,739.6,82.9z"/>
				<path class="st3" d="M745.3,78.3c0.2,0,0.3,0,0.5,0.1l-0.2,1.3c-0.1,0-0.2,0-0.4,0c-0.3,0-0.6,0.1-0.7,0.4
					c-0.2,0.2-0.3,0.6-0.3,1.1v2.8H743v-5.4h1.1l0.1,0.8h0c0.1-0.3,0.3-0.6,0.5-0.7C744.9,78.4,745.1,78.3,745.3,78.3z"/>
				<path class="st3" d="M748.3,83.9c-0.6,0-1.1-0.2-1.5-0.7c-0.3-0.5-0.5-1.2-0.5-2.1c0-1,0.2-1.7,0.5-2.1c0.3-0.5,0.8-0.7,1.5-0.7
					c0.2,0,0.4,0,0.6,0.1s0.4,0.1,0.6,0.3l-0.4,1c-0.3-0.2-0.5-0.2-0.7-0.2c-0.3,0-0.5,0.1-0.6,0.4s-0.2,0.7-0.2,1.3
					c0,0.6,0.1,1,0.2,1.3s0.3,0.4,0.6,0.4c0.3,0,0.7-0.1,1-0.3v1.1C749.1,83.8,748.8,83.9,748.3,83.9z"/>
				<path class="st3" d="M753.2,83.8v-3.2c0-0.8-0.2-1.2-0.6-1.2c-0.3,0-0.5,0.2-0.6,0.5c-0.1,0.3-0.2,0.8-0.2,1.4v2.6h-1.3v-7.6
					h1.3v1.7c0,0.2,0,0.6-0.1,1.2h0.1c0.3-0.5,0.7-0.8,1.2-0.8c0.5,0,0.9,0.2,1.1,0.5s0.4,0.8,0.4,1.5v3.5H753.2z"/>
				<path class="st3" d="M757.7,83.9c-0.7,0-1.2-0.2-1.6-0.7c-0.4-0.5-0.6-1.2-0.6-2.1c0-0.9,0.2-1.6,0.5-2.1
					c0.4-0.5,0.8-0.8,1.5-0.8c0.6,0,1.1,0.2,1.4,0.6c0.3,0.4,0.5,1,0.5,1.8v0.7h-2.6c0,0.5,0.1,0.8,0.3,1.1c0.2,0.2,0.4,0.4,0.8,0.4
					c0.4,0,0.9-0.1,1.3-0.4v1.1C758.8,83.8,758.3,83.9,757.7,83.9z M757.5,79.3c-0.2,0-0.3,0.1-0.5,0.3c-0.1,0.2-0.2,0.5-0.2,0.9
					h1.3c0-0.4-0.1-0.7-0.2-0.9C757.9,79.4,757.7,79.3,757.5,79.3z"/>
				<path class="st3" d="M762.8,78.3c0.2,0,0.3,0,0.5,0.1l-0.2,1.3c-0.1,0-0.2,0-0.4,0c-0.3,0-0.6,0.1-0.7,0.4
					c-0.2,0.2-0.3,0.6-0.3,1.1v2.8h-1.3v-5.4h1.1l0.1,0.8h0c0.1-0.3,0.3-0.6,0.5-0.7C762.4,78.4,762.6,78.3,762.8,78.3z"/>
				<path class="st3" d="M674.8,94.2h-1.3v-6h-1.4v-1.2h4.1v1.2h-1.4V94.2z"/>
				<path class="st3" d="M679.8,94.2V91c0-0.8-0.2-1.2-0.6-1.2c-0.3,0-0.5,0.2-0.6,0.5c-0.1,0.3-0.2,0.8-0.2,1.4v2.6h-1.3v-7.6h1.3
					v1.7c0,0.2,0,0.6-0.1,1.2h0.1c0.3-0.5,0.7-0.8,1.2-0.8c0.5,0,0.9,0.2,1.1,0.5s0.4,0.8,0.4,1.5v3.5H679.8z"/>
				<path class="st3" d="M686.4,91.5c0,0.9-0.2,1.6-0.6,2.1c-0.4,0.5-0.9,0.7-1.6,0.7c-0.4,0-0.8-0.1-1.1-0.3
					c-0.3-0.2-0.6-0.6-0.7-1c-0.2-0.4-0.3-0.9-0.3-1.5c0-0.9,0.2-1.6,0.6-2.1c0.4-0.5,0.9-0.7,1.6-0.7c0.6,0,1.2,0.3,1.5,0.8
					C686.2,89.9,686.4,90.6,686.4,91.5z M683.5,91.5c0,0.6,0.1,1,0.2,1.3c0.1,0.3,0.3,0.4,0.6,0.4c0.5,0,0.8-0.6,0.8-1.7
					c0-0.6-0.1-1-0.2-1.3c-0.1-0.3-0.3-0.4-0.6-0.4c-0.3,0-0.5,0.1-0.6,0.4C683.6,90.5,683.5,90.9,683.5,91.5z"/>
				<path class="st3" d="M692.9,94.2V91c0-0.8-0.2-1.2-0.6-1.2c-0.3,0-0.5,0.1-0.6,0.4c-0.1,0.3-0.2,0.7-0.2,1.4v2.6h-1.3V91
					c0-0.8-0.2-1.2-0.6-1.2c-0.3,0-0.5,0.1-0.6,0.4s-0.2,0.8-0.2,1.4v2.6h-1.3v-5.4h1l0.2,0.7h0.1c0.1-0.3,0.3-0.5,0.5-0.6
					c0.2-0.1,0.5-0.2,0.7-0.2c0.7,0,1.1,0.3,1.3,0.9h0c0.3-0.6,0.7-0.9,1.3-0.9c0.5,0,0.8,0.2,1.1,0.5c0.2,0.3,0.4,0.8,0.4,1.5v3.5
					H692.9z"/>
				<path class="st3" d="M698.4,92.6c0,0.5-0.2,0.9-0.5,1.2s-0.8,0.4-1.4,0.4c-0.5,0-1-0.1-1.3-0.3v-1.1c0.2,0.1,0.4,0.2,0.6,0.3
					c0.2,0.1,0.5,0.1,0.6,0.1c0.2,0,0.4,0,0.5-0.1c0.1-0.1,0.2-0.2,0.2-0.4c0-0.2-0.1-0.3-0.2-0.4c-0.1-0.1-0.3-0.3-0.6-0.5
					c-0.4-0.2-0.7-0.5-0.8-0.7c-0.2-0.3-0.3-0.6-0.3-0.9c0-0.5,0.2-0.8,0.5-1.1c0.3-0.3,0.8-0.4,1.3-0.4c0.5,0,0.9,0.1,1.4,0.4
					l-0.4,0.9c-0.3-0.2-0.7-0.3-0.9-0.3c-0.2,0-0.3,0-0.4,0.1s-0.1,0.2-0.1,0.3c0,0.1,0.1,0.3,0.2,0.4c0.1,0.1,0.3,0.3,0.6,0.4
					c0.3,0.2,0.6,0.4,0.7,0.5c0.1,0.1,0.2,0.3,0.3,0.5C698.3,92.2,698.4,92.4,698.4,92.6z"/>
				<path class="st3" d="M703.4,91.5c0,0.9-0.2,1.6-0.6,2.1c-0.4,0.5-0.9,0.7-1.6,0.7c-0.4,0-0.8-0.1-1.1-0.3
					c-0.3-0.2-0.6-0.6-0.7-1c-0.2-0.4-0.3-0.9-0.3-1.5c0-0.9,0.2-1.6,0.6-2.1c0.4-0.5,0.9-0.7,1.6-0.7c0.6,0,1.2,0.3,1.5,0.8
					C703.2,89.9,703.4,90.6,703.4,91.5z M700.5,91.5c0,0.6,0.1,1,0.2,1.3c0.1,0.3,0.3,0.4,0.6,0.4c0.5,0,0.8-0.6,0.8-1.7
					c0-0.6-0.1-1-0.2-1.3c-0.1-0.3-0.3-0.4-0.6-0.4c-0.3,0-0.5,0.1-0.6,0.4C700.6,90.5,700.5,90.9,700.5,91.5z"/>
				<path class="st3" d="M707.2,94.2V91c0-0.4,0-0.7-0.1-0.9c-0.1-0.2-0.2-0.3-0.5-0.3c-0.3,0-0.5,0.1-0.6,0.4
					c-0.1,0.3-0.2,0.7-0.2,1.4v2.6h-1.3v-5.4h1l0.2,0.7h0.1c0.1-0.2,0.3-0.4,0.5-0.6c0.2-0.1,0.5-0.2,0.8-0.2c0.5,0,0.9,0.2,1.1,0.5
					c0.2,0.3,0.4,0.8,0.4,1.5v3.5H707.2z"/>
				<path class="st3" d="M713.9,91.4v2.8h-1.3v-7.1h1.7c0.7,0,1.3,0.2,1.6,0.5c0.4,0.3,0.5,0.9,0.5,1.6c0,0.9-0.3,1.5-0.9,1.9
					l1.4,3.1h-1.4l-1.1-2.8H713.9z M713.9,90.3h0.3c0.3,0,0.5-0.1,0.7-0.3c0.1-0.2,0.2-0.4,0.2-0.8c0-0.4-0.1-0.6-0.2-0.8
					c-0.1-0.2-0.4-0.2-0.7-0.2h-0.3V90.3z"/>
				<path class="st3" d="M719.7,94.3c-0.7,0-1.2-0.2-1.6-0.7c-0.4-0.5-0.6-1.2-0.6-2.1c0-0.9,0.2-1.6,0.5-2.1
					c0.4-0.5,0.8-0.8,1.5-0.8c0.6,0,1.1,0.2,1.4,0.6c0.3,0.4,0.5,1,0.5,1.8v0.7h-2.6c0,0.5,0.1,0.8,0.3,1.1c0.2,0.2,0.4,0.4,0.8,0.4
					c0.4,0,0.9-0.1,1.3-0.4v1.1C720.8,94.2,720.3,94.3,719.7,94.3z M719.5,89.7c-0.2,0-0.3,0.1-0.5,0.3c-0.1,0.2-0.2,0.5-0.2,0.9
					h1.3c0-0.4-0.1-0.7-0.2-0.9C719.8,89.8,719.7,89.7,719.5,89.7z"/>
				<path class="st3" d="M725.4,94.2l-0.2-0.7h-0.1c-0.1,0.2-0.3,0.4-0.5,0.6s-0.5,0.2-0.8,0.2c-0.5,0-0.9-0.2-1.1-0.5
					s-0.4-0.8-0.4-1.5v-3.5h1.3V92c0,0.4,0,0.7,0.1,0.9c0.1,0.2,0.2,0.3,0.5,0.3c0.3,0,0.5-0.1,0.6-0.4c0.1-0.3,0.2-0.7,0.2-1.4
					v-2.6h1.3v5.4H725.4z"/>
				<path class="st3" d="M729.6,93.2c0.2,0,0.4,0,0.6-0.1v1c-0.2,0.1-0.5,0.2-1,0.2c-0.5,0-0.8-0.1-1-0.4c-0.2-0.3-0.3-0.7-0.3-1.3
					v-2.8h-0.5v-0.6l0.7-0.5l0.3-1.2h0.8v1.2h1v1h-1v2.9C729.2,93,729.3,93.2,729.6,93.2z"/>
				<path class="st3" d="M733.2,94.3c-0.7,0-1.2-0.2-1.6-0.7c-0.4-0.5-0.6-1.2-0.6-2.1c0-0.9,0.2-1.6,0.5-2.1
					c0.4-0.5,0.8-0.8,1.5-0.8c0.6,0,1.1,0.2,1.4,0.6c0.3,0.4,0.5,1,0.5,1.8v0.7h-2.6c0,0.5,0.1,0.8,0.3,1.1c0.2,0.2,0.4,0.4,0.8,0.4
					c0.4,0,0.9-0.1,1.3-0.4v1.1C734.3,94.2,733.8,94.3,733.2,94.3z M733,89.7c-0.2,0-0.3,0.1-0.5,0.3c-0.1,0.2-0.2,0.5-0.2,0.9h1.3
					c0-0.4-0.1-0.7-0.2-0.9C733.4,89.8,733.2,89.7,733,89.7z"/>
				<path class="st3" d="M738.3,88.7c0.2,0,0.3,0,0.5,0.1l-0.2,1.3c-0.1,0-0.2,0-0.4,0c-0.3,0-0.6,0.1-0.7,0.4
					c-0.2,0.2-0.3,0.6-0.3,1.1v2.8H736v-5.4h1.1l0.1,0.8h0c0.1-0.3,0.3-0.6,0.5-0.7C737.9,88.8,738.1,88.7,738.3,88.7z"/>
				<path class="st3" d="M742.5,92.6c0,0.5-0.2,0.9-0.5,1.2c-0.3,0.3-0.8,0.4-1.4,0.4c-0.5,0-1-0.1-1.3-0.3v-1.1
					c0.2,0.1,0.4,0.2,0.6,0.3c0.2,0.1,0.5,0.1,0.6,0.1c0.2,0,0.4,0,0.5-0.1c0.1-0.1,0.2-0.2,0.2-0.4c0-0.2-0.1-0.3-0.2-0.4
					c-0.1-0.1-0.3-0.3-0.6-0.5c-0.4-0.2-0.7-0.5-0.8-0.7c-0.2-0.3-0.3-0.6-0.3-0.9c0-0.5,0.2-0.8,0.5-1.1c0.3-0.3,0.8-0.4,1.3-0.4
					c0.5,0,0.9,0.1,1.4,0.4L742,90c-0.3-0.2-0.7-0.3-0.9-0.3c-0.2,0-0.3,0-0.4,0.1s-0.1,0.2-0.1,0.3c0,0.1,0.1,0.3,0.2,0.4
					c0.1,0.1,0.3,0.3,0.6,0.4c0.3,0.2,0.6,0.4,0.7,0.5c0.1,0.1,0.2,0.3,0.3,0.5C742.4,92.2,742.5,92.4,742.5,92.6z"/>
			</g>
		</g>
		<g>
			<g>
				<path class="st3" d="M390.7,12.3h2.2v3.7c-0.6,0.3-1.3,0.4-2,0.4c-0.8,0-1.5-0.3-1.9-0.9c-0.4-0.6-0.7-1.5-0.7-2.7
					c0-1.1,0.3-2,0.8-2.7c0.5-0.6,1.2-1,2.2-1c0.6,0,1.1,0.1,1.6,0.4l-0.4,1.1c-0.4-0.2-0.8-0.4-1.1-0.4c-0.5,0-0.9,0.2-1.2,0.7
					c-0.3,0.4-0.4,1.1-0.4,1.8c0,0.8,0.1,1.4,0.3,1.8c0.2,0.4,0.5,0.6,0.9,0.6c0.2,0,0.4,0,0.7-0.1v-1.6h-0.9V12.3z"/>
				<path class="st3" d="M396.4,10.7c0.2,0,0.3,0,0.5,0.1l-0.2,1.3c-0.1,0-0.2,0-0.4,0c-0.3,0-0.6,0.1-0.7,0.4
					c-0.2,0.2-0.3,0.6-0.3,1.1v2.8h-1.3v-5.4h1.1l0.1,0.8h0c0.1-0.3,0.3-0.6,0.5-0.7C396,10.8,396.2,10.7,396.4,10.7z"/>
				<path class="st3" d="M400.4,16.2l-0.3-0.7h0c-0.2,0.3-0.4,0.5-0.6,0.7c-0.2,0.1-0.5,0.2-0.8,0.2c-0.4,0-0.7-0.2-0.9-0.4
					c-0.2-0.3-0.3-0.7-0.3-1.3c0-0.6,0.2-1,0.5-1.3c0.3-0.3,0.8-0.4,1.4-0.5l0.7,0v-0.4c0-0.5-0.2-0.8-0.7-0.8
					c-0.3,0-0.7,0.1-1.1,0.4l-0.4-0.9c0.5-0.3,1.1-0.5,1.8-0.5c0.6,0,1,0.2,1.3,0.5c0.3,0.3,0.5,0.8,0.5,1.4v3.7H400.4z M399.2,15.3
					c0.2,0,0.4-0.1,0.6-0.3c0.1-0.2,0.2-0.5,0.2-0.9v-0.5l-0.4,0c-0.3,0-0.5,0.1-0.7,0.3c-0.1,0.2-0.2,0.4-0.2,0.7
					C398.8,15.1,398.9,15.3,399.2,15.3z"/>
				<path class="st3" d="M405,16.3c-0.2,0-0.4-0.1-0.6-0.2c-0.2-0.1-0.3-0.3-0.5-0.6h-0.1c0.1,0.4,0.1,0.7,0.1,0.8v2.2h-1.3v-7.8h1
					l0.2,0.7h0.1c0.3-0.5,0.7-0.8,1.2-0.8c0.5,0,0.9,0.2,1.2,0.7c0.3,0.5,0.4,1.2,0.4,2.1c0,0.9-0.1,1.6-0.4,2.1
					C405.9,16.1,405.5,16.3,405,16.3z M404.6,11.8c-0.3,0-0.4,0.1-0.5,0.4c-0.1,0.2-0.2,0.6-0.2,1.2v0.2c0,0.6,0.1,1,0.2,1.3
					s0.3,0.4,0.6,0.4c0.5,0,0.7-0.6,0.7-1.7c0-0.6-0.1-1-0.2-1.3C405,11.9,404.8,11.8,404.6,11.8z"/>
				<path class="st3" d="M410.4,16.2V13c0-0.8-0.2-1.2-0.6-1.2c-0.3,0-0.5,0.2-0.6,0.5c-0.1,0.3-0.2,0.8-0.2,1.4v2.6h-1.3V8.6h1.3
					v1.7c0,0.2,0,0.6-0.1,1.2h0.1c0.3-0.5,0.7-0.8,1.2-0.8c0.5,0,0.9,0.2,1.1,0.5s0.4,0.8,0.4,1.5v3.5H410.4z"/>
				<path class="st3" d="M413,9.4c0-0.2,0.1-0.4,0.2-0.5c0.1-0.1,0.3-0.2,0.5-0.2c0.2,0,0.4,0.1,0.5,0.2c0.1,0.1,0.2,0.3,0.2,0.5
					c0,0.2-0.1,0.4-0.2,0.5c-0.1,0.1-0.3,0.2-0.5,0.2c-0.2,0-0.4-0.1-0.5-0.2C413,9.8,413,9.6,413,9.4z M414.3,16.2H413v-5.4h1.3
					V16.2z"/>
				<path class="st3" d="M417.4,16.3c-0.6,0-1.1-0.2-1.5-0.7c-0.3-0.5-0.5-1.2-0.5-2.1c0-1,0.2-1.7,0.5-2.1c0.3-0.5,0.8-0.7,1.5-0.7
					c0.2,0,0.4,0,0.6,0.1c0.2,0.1,0.4,0.1,0.6,0.3l-0.4,1c-0.3-0.2-0.5-0.2-0.7-0.2c-0.3,0-0.5,0.1-0.6,0.4s-0.2,0.7-0.2,1.3
					c0,0.6,0.1,1,0.2,1.3c0.1,0.3,0.3,0.4,0.6,0.4c0.3,0,0.7-0.1,1-0.3V16C418.2,16.2,417.8,16.3,417.4,16.3z"/>
				<path class="st3" d="M426.8,12.6c0,1.2-0.2,2.1-0.7,2.7c-0.5,0.6-1.2,0.9-2.1,0.9h-1.7V9.1h1.9c0.8,0,1.5,0.3,1.9,0.9
					C426.6,10.6,426.8,11.5,426.8,12.6z M425.5,12.6c0-1.6-0.4-2.4-1.3-2.4h-0.5v4.8h0.4c0.5,0,0.8-0.2,1.1-0.6
					C425.3,14.1,425.5,13.4,425.5,12.6z"/>
				<path class="st3" d="M430,16.3c-0.7,0-1.2-0.2-1.6-0.7s-0.6-1.2-0.6-2.1c0-0.9,0.2-1.6,0.5-2.1c0.4-0.5,0.8-0.8,1.5-0.8
					c0.6,0,1.1,0.2,1.4,0.6c0.3,0.4,0.5,1,0.5,1.8v0.7h-2.6c0,0.5,0.1,0.8,0.3,1.1c0.2,0.2,0.4,0.4,0.8,0.4c0.4,0,0.9-0.1,1.3-0.4
					V16C431.1,16.2,430.6,16.3,430,16.3z M429.8,11.7c-0.2,0-0.3,0.1-0.5,0.3c-0.1,0.2-0.2,0.5-0.2,0.9h1.3c0-0.4-0.1-0.7-0.2-0.9
					S430,11.7,429.8,11.7z"/>
				<path class="st3" d="M435.7,14.6c0,0.5-0.2,0.9-0.5,1.2s-0.8,0.4-1.4,0.4c-0.5,0-1-0.1-1.3-0.3v-1.1c0.2,0.1,0.4,0.2,0.6,0.3
					c0.2,0.1,0.5,0.1,0.6,0.1c0.2,0,0.4-0.1,0.5-0.1c0.1-0.1,0.2-0.2,0.2-0.4c0-0.2-0.1-0.3-0.2-0.4c-0.1-0.1-0.3-0.3-0.6-0.5
					c-0.4-0.2-0.7-0.5-0.8-0.7c-0.2-0.3-0.3-0.6-0.3-0.9c0-0.5,0.2-0.8,0.5-1.1c0.3-0.3,0.8-0.4,1.3-0.4c0.5,0,0.9,0.1,1.4,0.4
					l-0.4,0.9c-0.3-0.2-0.7-0.3-0.9-0.3c-0.2,0-0.3,0-0.4,0.1s-0.1,0.2-0.1,0.3c0,0.1,0.1,0.3,0.2,0.4c0.1,0.1,0.3,0.3,0.6,0.4
					c0.3,0.2,0.6,0.4,0.7,0.5c0.1,0.1,0.2,0.3,0.3,0.5C435.7,14.2,435.7,14.4,435.7,14.6z"/>
				<path class="st3" d="M436.7,9.4c0-0.2,0.1-0.4,0.2-0.5c0.1-0.1,0.3-0.2,0.5-0.2c0.2,0,0.4,0.1,0.5,0.2c0.1,0.1,0.2,0.3,0.2,0.5
					c0,0.2-0.1,0.4-0.2,0.5c-0.1,0.1-0.3,0.2-0.5,0.2c-0.2,0-0.4-0.1-0.5-0.2C436.7,9.8,436.7,9.6,436.7,9.4z M438,16.2h-1.3v-5.4
					h1.3V16.2z"/>
				<path class="st3" d="M443.3,10.8v0.8l-0.6,0.1c0.1,0.2,0.2,0.5,0.2,0.9c0,0.6-0.2,1-0.5,1.4c-0.3,0.3-0.7,0.5-1.3,0.5
					c-0.2,0-0.3,0-0.4,0c-0.1,0.1-0.1,0.1-0.2,0.2c-0.1,0.1-0.1,0.2-0.1,0.3c0,0.2,0.2,0.3,0.6,0.3h0.8c0.5,0,0.8,0.1,1.1,0.4
					s0.4,0.6,0.4,1.1c0,0.6-0.2,1.1-0.6,1.5c-0.4,0.3-1,0.5-1.8,0.5c-0.6,0-1.1-0.1-1.4-0.4c-0.3-0.3-0.5-0.6-0.5-1.1
					c0-0.3,0.1-0.6,0.3-0.8s0.4-0.4,0.8-0.5c-0.2-0.1-0.3-0.2-0.4-0.3c-0.1-0.1-0.2-0.3-0.2-0.5c0-0.1,0-0.2,0-0.3
					c0-0.1,0.1-0.2,0.1-0.3c0.1-0.1,0.2-0.2,0.4-0.4c-0.2-0.1-0.4-0.3-0.5-0.6c-0.1-0.3-0.2-0.6-0.2-0.9c0-0.6,0.2-1.1,0.5-1.4
					c0.3-0.3,0.8-0.5,1.3-0.5c0.1,0,0.2,0,0.4,0c0.1,0,0.3,0,0.3,0.1H443.3z M440.1,17c0,0.2,0.1,0.4,0.2,0.5
					c0.1,0.1,0.3,0.2,0.6,0.2c0.4,0,0.7-0.1,0.9-0.2c0.2-0.2,0.3-0.4,0.3-0.6c0-0.2-0.1-0.4-0.2-0.4c-0.1-0.1-0.3-0.1-0.6-0.1h-0.6
					c-0.2,0-0.3,0.1-0.4,0.2C440.1,16.6,440.1,16.8,440.1,17z M440.5,12.6c0,0.6,0.2,1,0.5,1c0.4,0,0.5-0.3,0.5-1c0-0.7-0.2-1-0.5-1
					C440.6,11.6,440.5,11.9,440.5,12.6z"/>
				<path class="st3" d="M446.8,16.2V13c0-0.4,0-0.7-0.1-0.9c-0.1-0.2-0.2-0.3-0.5-0.3c-0.3,0-0.5,0.1-0.6,0.4
					c-0.1,0.3-0.2,0.7-0.2,1.4v2.6h-1.3v-5.4h1l0.2,0.7h0.1c0.1-0.3,0.3-0.4,0.5-0.6c0.2-0.1,0.5-0.2,0.8-0.2c0.5,0,0.9,0.2,1.1,0.5
					c0.2,0.3,0.4,0.8,0.4,1.5v3.5H446.8z"/>
				<path class="st3" d="M452.4,16.2V9.1h1.3v7.1H452.4z"/>
				<path class="st3" d="M458,16.2V13c0-0.4,0-0.7-0.1-0.9c-0.1-0.2-0.2-0.3-0.5-0.3c-0.3,0-0.5,0.1-0.6,0.4s-0.2,0.7-0.2,1.4v2.6
					h-1.3v-5.4h1l0.2,0.7h0.1c0.1-0.3,0.3-0.4,0.5-0.6s0.5-0.2,0.8-0.2c0.5,0,0.9,0.2,1.1,0.5c0.2,0.3,0.4,0.8,0.4,1.5v3.5H458z"/>
				<path class="st3" d="M462.4,15.2c0.2,0,0.4,0,0.6-0.1v1c-0.2,0.1-0.5,0.2-1,0.2c-0.5,0-0.8-0.1-1-0.4c-0.2-0.3-0.3-0.7-0.3-1.3
					v-2.8h-0.5v-0.6l0.7-0.5l0.3-1.2h0.8v1.2h1v1h-1v2.9C462,15,462.1,15.2,462.4,15.2z"/>
				<path class="st3" d="M466,16.3c-0.7,0-1.2-0.2-1.6-0.7c-0.4-0.5-0.6-1.2-0.6-2.1c0-0.9,0.2-1.6,0.5-2.1c0.4-0.5,0.8-0.8,1.5-0.8
					c0.6,0,1.1,0.2,1.4,0.6c0.3,0.4,0.5,1,0.5,1.8v0.7h-2.6c0,0.5,0.1,0.8,0.3,1.1c0.2,0.2,0.4,0.4,0.8,0.4c0.4,0,0.9-0.1,1.3-0.4
					V16C467,16.2,466.6,16.3,466,16.3z M465.8,11.7c-0.2,0-0.3,0.1-0.5,0.3c-0.1,0.2-0.2,0.5-0.2,0.9h1.3c0-0.4-0.1-0.7-0.2-0.9
					C466.1,11.8,466,11.7,465.8,11.7z"/>
				<path class="st3" d="M471.1,10.7c0.2,0,0.3,0,0.5,0.1l-0.2,1.3c-0.1,0-0.2,0-0.4,0c-0.3,0-0.6,0.1-0.7,0.4
					c-0.2,0.2-0.3,0.6-0.3,1.1v2.8h-1.3v-5.4h1.1l0.1,0.8h0c0.1-0.3,0.3-0.6,0.5-0.7C470.7,10.8,470.9,10.7,471.1,10.7z"/>
				<path class="st3" d="M475,16.2V13c0-0.4,0-0.7-0.1-0.9c-0.1-0.2-0.2-0.3-0.5-0.3c-0.3,0-0.5,0.1-0.6,0.4s-0.2,0.7-0.2,1.4v2.6
					h-1.3v-5.4h1l0.2,0.7h0.1c0.1-0.3,0.3-0.4,0.5-0.6s0.5-0.2,0.8-0.2c0.5,0,0.9,0.2,1.1,0.5c0.2,0.3,0.4,0.8,0.4,1.5v3.5H475z"/>
				<path class="st3" d="M480.5,14.6c0,0.5-0.2,0.9-0.5,1.2s-0.8,0.4-1.4,0.4c-0.5,0-1-0.1-1.3-0.3v-1.1c0.2,0.1,0.4,0.2,0.6,0.3
					c0.2,0.1,0.5,0.1,0.6,0.1c0.2,0,0.4-0.1,0.5-0.1c0.1-0.1,0.2-0.2,0.2-0.4c0-0.2-0.1-0.3-0.2-0.4c-0.1-0.1-0.3-0.3-0.6-0.5
					c-0.4-0.2-0.7-0.5-0.8-0.7c-0.2-0.3-0.3-0.6-0.3-0.9c0-0.5,0.2-0.8,0.5-1.1c0.3-0.3,0.8-0.4,1.3-0.4c0.5,0,0.9,0.1,1.4,0.4
					l-0.4,0.9c-0.3-0.2-0.7-0.3-0.9-0.3c-0.2,0-0.3,0-0.4,0.1s-0.1,0.2-0.1,0.3c0,0.1,0.1,0.3,0.2,0.4c0.1,0.1,0.3,0.3,0.6,0.4
					c0.3,0.2,0.6,0.4,0.7,0.5c0.1,0.1,0.2,0.3,0.3,0.5C480.5,14.2,480.5,14.4,480.5,14.6z"/>
				<path class="st3" d="M484.2,16.2V13c0-0.8-0.2-1.2-0.6-1.2c-0.3,0-0.5,0.2-0.6,0.5c-0.1,0.3-0.2,0.8-0.2,1.4v2.6h-1.3V8.6h1.3
					v1.7c0,0.2,0,0.6-0.1,1.2h0.1c0.3-0.5,0.7-0.8,1.2-0.8c0.5,0,0.9,0.2,1.1,0.5s0.4,0.8,0.4,1.5v3.5H484.2z"/>
				<path class="st3" d="M486.8,9.4c0-0.2,0.1-0.4,0.2-0.5c0.1-0.1,0.3-0.2,0.5-0.2c0.2,0,0.4,0.1,0.5,0.2c0.1,0.1,0.2,0.3,0.2,0.5
					c0,0.2-0.1,0.4-0.2,0.5s-0.3,0.2-0.5,0.2c-0.2,0-0.4-0.1-0.5-0.2S486.8,9.6,486.8,9.4z M488.1,16.2h-1.3v-5.4h1.3V16.2z"/>
				<path class="st3" d="M491.9,16.3c-0.2,0-0.4-0.1-0.6-0.2c-0.2-0.1-0.3-0.3-0.5-0.6h-0.1c0.1,0.4,0.1,0.7,0.1,0.8v2.2h-1.3v-7.8
					h1l0.2,0.7h0.1c0.3-0.5,0.7-0.8,1.2-0.8c0.5,0,0.9,0.2,1.2,0.7c0.3,0.5,0.4,1.2,0.4,2.1c0,0.9-0.1,1.6-0.4,2.1
					C492.8,16.1,492.4,16.3,491.9,16.3z M491.5,11.8c-0.3,0-0.4,0.1-0.5,0.4c-0.1,0.2-0.2,0.6-0.2,1.2v0.2c0,0.6,0.1,1,0.2,1.3
					c0.1,0.3,0.3,0.4,0.6,0.4c0.5,0,0.7-0.6,0.7-1.7c0-0.6-0.1-1-0.2-1.3C491.9,11.9,491.7,11.8,491.5,11.8z"/>
				<path class="st3" d="M407.3,26.6v-7.1h1.3v6h1.8v1.2H407.3z"/>
				<path class="st3" d="M413.4,26.7c-0.7,0-1.2-0.2-1.6-0.7c-0.4-0.5-0.6-1.2-0.6-2.1c0-0.9,0.2-1.6,0.5-2.1
					c0.4-0.5,0.8-0.8,1.5-0.8c0.6,0,1.1,0.2,1.4,0.6c0.3,0.4,0.5,1,0.5,1.8v0.7h-2.6c0,0.5,0.1,0.8,0.3,1.1c0.2,0.2,0.4,0.4,0.8,0.4
					c0.4,0,0.9-0.1,1.3-0.4v1.1C414.5,26.6,414,26.7,413.4,26.7z M413.2,22.1c-0.2,0-0.3,0.1-0.5,0.3c-0.1,0.2-0.2,0.5-0.2,0.9h1.3
					c0-0.4-0.1-0.7-0.2-0.9C413.6,22.2,413.4,22.1,413.2,22.1z"/>
				<path class="st3" d="M417.1,26.6l-1.4-5.4h1.3l0.7,3.1c0,0.1,0.1,0.4,0.1,0.6c0,0.3,0.1,0.5,0.1,0.6h0c0-0.1,0-0.2,0-0.4
					c0-0.2,0-0.3,0.1-0.5c0-0.2,0.3-1.3,0.8-3.5h1.3l-1.4,5.4H417.1z"/>
				<path class="st3" d="M422.9,26.7c-0.7,0-1.2-0.2-1.6-0.7c-0.4-0.5-0.6-1.2-0.6-2.1c0-0.9,0.2-1.6,0.5-2.1
					c0.4-0.5,0.8-0.8,1.5-0.8c0.6,0,1.1,0.2,1.4,0.6c0.3,0.4,0.5,1,0.5,1.8v0.7H422c0,0.5,0.1,0.8,0.3,1.1c0.2,0.2,0.4,0.4,0.8,0.4
					c0.4,0,0.9-0.1,1.3-0.4v1.1C424,26.6,423.5,26.7,422.9,26.7z M422.7,22.1c-0.2,0-0.3,0.1-0.5,0.3c-0.1,0.2-0.2,0.5-0.2,0.9h1.3
					c0-0.4-0.1-0.7-0.2-0.9C423,22.2,422.9,22.1,422.7,22.1z"/>
				<path class="st3" d="M427,26.6h-1.3V19h1.3V26.6z"/>
				<path class="st3" d="M431,19.5h1.8c0.7,0,1.3,0.1,1.6,0.4s0.5,0.7,0.5,1.4c0,0.4-0.1,0.8-0.3,1s-0.4,0.4-0.7,0.5v0
					c0.4,0.1,0.7,0.3,0.9,0.6c0.2,0.3,0.3,0.6,0.3,1.1c0,0.6-0.2,1.2-0.5,1.5s-0.8,0.5-1.4,0.5H431V19.5z M432.2,22.3h0.6
					c0.3,0,0.5-0.1,0.6-0.2c0.1-0.1,0.2-0.4,0.2-0.7c0-0.3-0.1-0.5-0.2-0.6c-0.1-0.1-0.3-0.2-0.6-0.2h-0.6V22.3z M432.2,23.4v2h0.7
					c0.3,0,0.5-0.1,0.6-0.3c0.1-0.2,0.2-0.4,0.2-0.8c0-0.6-0.3-1-0.8-1H432.2z"/>
				<path class="st3" d="M438.5,21.1c0.2,0,0.3,0,0.5,0.1l-0.2,1.3c-0.1,0-0.2,0-0.4,0c-0.3,0-0.6,0.1-0.7,0.4
					c-0.2,0.2-0.3,0.6-0.3,1.1v2.8h-1.3v-5.4h1.1l0.1,0.8h0c0.1-0.3,0.3-0.6,0.5-0.7C438.1,21.1,438.3,21.1,438.5,21.1z"/>
				<path class="st3" d="M442.4,26.6l-0.3-0.7h0c-0.2,0.3-0.4,0.5-0.6,0.7c-0.2,0.1-0.5,0.2-0.8,0.2c-0.4,0-0.7-0.1-0.9-0.4
					c-0.2-0.3-0.3-0.7-0.3-1.3c0-0.6,0.2-1,0.5-1.3c0.3-0.3,0.8-0.4,1.4-0.5l0.7,0v-0.4c0-0.5-0.2-0.8-0.7-0.8
					c-0.3,0-0.7,0.1-1.1,0.4l-0.4-0.9c0.5-0.3,1.1-0.5,1.8-0.5c0.6,0,1,0.2,1.3,0.5c0.3,0.3,0.5,0.8,0.5,1.4v3.7H442.4z M441.3,25.7
					c0.2,0,0.4-0.1,0.6-0.3c0.1-0.2,0.2-0.5,0.2-0.9v-0.5l-0.4,0c-0.3,0-0.5,0.1-0.7,0.3c-0.1,0.2-0.2,0.4-0.2,0.7
					C440.8,25.5,441,25.7,441.3,25.7z"/>
				<path class="st3" d="M447.3,26.6v-3.2c0-0.4,0-0.7-0.1-0.9c-0.1-0.2-0.2-0.3-0.5-0.3c-0.3,0-0.5,0.1-0.6,0.4
					c-0.1,0.3-0.2,0.7-0.2,1.4v2.6h-1.3v-5.4h1l0.2,0.7h0.1c0.1-0.2,0.3-0.4,0.5-0.6c0.2-0.1,0.5-0.2,0.8-0.2c0.5,0,0.9,0.2,1.1,0.5
					c0.2,0.3,0.4,0.8,0.4,1.5v3.5H447.3z"/>
				<path class="st3" d="M451.3,26.7c-0.5,0-0.9-0.2-1.2-0.7c-0.3-0.5-0.4-1.2-0.4-2.1s0.1-1.6,0.4-2.1c0.3-0.5,0.7-0.8,1.2-0.8
					c0.2,0,0.5,0.1,0.6,0.2s0.3,0.3,0.5,0.6h0.1c0-0.5-0.1-0.8-0.1-1V19h1.3v7.6h-1l-0.2-0.7h0C452.3,26.4,451.9,26.7,451.3,26.7z
					 M451.7,25.6c0.2,0,0.4-0.1,0.5-0.3c0.1-0.2,0.2-0.6,0.2-1.2v-0.2c0-0.6-0.1-1.1-0.2-1.3c-0.1-0.3-0.3-0.4-0.6-0.4
					c-0.2,0-0.4,0.1-0.5,0.4c-0.1,0.3-0.2,0.7-0.2,1.3c0,0.6,0.1,1,0.2,1.3C451.3,25.5,451.5,25.6,451.7,25.6z"/>
				<path class="st3" d="M456.6,25.5c-0.2,0.7-0.5,1.4-0.9,2.3h-1c0.2-0.9,0.4-1.7,0.5-2.5h1.3L456.6,25.5z"/>
				<path class="st3" d="M460.9,26.6v-7.1h1.3v7.1H460.9z"/>
				<path class="st3" d="M466.5,26.6v-3.2c0-0.4,0-0.7-0.1-0.9c-0.1-0.2-0.2-0.3-0.5-0.3c-0.3,0-0.5,0.1-0.6,0.4
					c-0.1,0.3-0.2,0.7-0.2,1.4v2.6h-1.3v-5.4h1l0.2,0.7h0.1c0.1-0.2,0.3-0.4,0.5-0.6c0.2-0.1,0.5-0.2,0.8-0.2c0.5,0,0.9,0.2,1.1,0.5
					c0.2,0.3,0.4,0.8,0.4,1.5v3.5H466.5z"/>
				<path class="st3" d="M470.9,26.7c-0.6,0-1.1-0.2-1.5-0.7c-0.3-0.5-0.5-1.2-0.5-2.1c0-1,0.2-1.7,0.5-2.1c0.3-0.5,0.8-0.7,1.5-0.7
					c0.2,0,0.4,0,0.6,0.1c0.2,0.1,0.4,0.1,0.6,0.3l-0.4,1c-0.3-0.2-0.5-0.2-0.7-0.2c-0.3,0-0.5,0.1-0.6,0.4s-0.2,0.7-0.2,1.3
					c0,0.6,0.1,1,0.2,1.3c0.1,0.3,0.3,0.4,0.6,0.4c0.3,0,0.7-0.1,1-0.3v1.1C471.7,26.6,471.3,26.7,470.9,26.7z"/>
				<path class="st3" d="M473,25.9c0-0.3,0.1-0.4,0.2-0.6c0.1-0.1,0.3-0.2,0.6-0.2c0.3,0,0.5,0.1,0.6,0.2c0.1,0.1,0.2,0.3,0.2,0.6
					c0,0.3-0.1,0.5-0.2,0.6c-0.1,0.1-0.3,0.2-0.6,0.2c-0.3,0-0.5-0.1-0.6-0.2S473,26.2,473,25.9z"/>
				<path class="st3" d="M435.5,37h-3.8v-1l1.3-1.8c0.3-0.5,0.6-0.9,0.7-1.1c0.1-0.2,0.2-0.5,0.3-0.7c0.1-0.2,0.1-0.4,0.1-0.7
					c0-0.3-0.1-0.5-0.2-0.6s-0.3-0.2-0.5-0.2c-0.2,0-0.3,0-0.5,0.1c-0.2,0.1-0.3,0.3-0.5,0.5l-0.7-0.8c0.3-0.4,0.7-0.7,1-0.8
					c0.3-0.1,0.6-0.2,1-0.2c0.6,0,1,0.2,1.4,0.5c0.3,0.3,0.5,0.8,0.5,1.4c0,0.3,0,0.5-0.1,0.8s-0.1,0.5-0.3,0.7
					c-0.1,0.2-0.3,0.5-0.4,0.8c-0.2,0.3-0.6,0.9-1.4,1.8v0h2.3V37z"/>
				<path class="st3" d="M440.4,33.4c0,1.3-0.2,2.2-0.5,2.8c-0.3,0.6-0.8,0.9-1.5,0.9c-0.7,0-1.2-0.3-1.5-0.9
					c-0.3-0.6-0.5-1.5-0.5-2.8c0-1.3,0.2-2.2,0.5-2.8c0.3-0.6,0.8-0.9,1.5-0.9c0.7,0,1.2,0.3,1.5,0.9
					C440.3,31.1,440.4,32.1,440.4,33.4z M437.9,33.4c0,1,0,1.7,0.1,2c0.1,0.3,0.2,0.5,0.5,0.5c0.2,0,0.3-0.1,0.4-0.2
					c0.1-0.1,0.2-0.4,0.2-0.7s0.1-0.9,0.1-1.6c0-1,0-1.7-0.1-2c-0.1-0.4-0.3-0.5-0.5-0.5c-0.2,0-0.4,0.2-0.5,0.5
					C437.9,31.7,437.9,32.4,437.9,33.4z"/>
				<path class="st3" d="M445.3,33.4c0,1.3-0.2,2.2-0.5,2.8c-0.3,0.6-0.8,0.9-1.5,0.9c-0.7,0-1.2-0.3-1.5-0.9
					c-0.3-0.6-0.5-1.5-0.5-2.8c0-1.3,0.2-2.2,0.5-2.8c0.3-0.6,0.8-0.9,1.5-0.9c0.7,0,1.2,0.3,1.5,0.9
					C445.1,31.1,445.3,32.1,445.3,33.4z M442.7,33.4c0,1,0,1.7,0.1,2c0.1,0.3,0.3,0.5,0.5,0.5c0.2,0,0.3-0.1,0.4-0.2
					c0.1-0.1,0.2-0.4,0.2-0.7s0.1-0.9,0.1-1.6c0-1,0-1.7-0.1-2c-0.1-0.4-0.3-0.5-0.5-0.5c-0.2,0-0.4,0.2-0.5,0.5
					C442.7,31.7,442.7,32.4,442.7,33.4z"/>
				<path class="st3" d="M450.1,32.9c0,2.8-0.9,4.1-2.8,4.1c-0.3,0-0.6,0-0.8-0.1v-1.1c0.2,0.1,0.4,0.1,0.6,0.1c0.5,0,1-0.2,1.2-0.6
					c0.3-0.4,0.4-1,0.5-1.8h0c-0.1,0.3-0.3,0.5-0.4,0.6c-0.2,0.1-0.4,0.2-0.7,0.2c-0.5,0-0.9-0.2-1.1-0.6c-0.3-0.4-0.4-0.9-0.4-1.6
					c0-0.8,0.2-1.4,0.5-1.8c0.4-0.4,0.8-0.7,1.4-0.7c0.6,0,1.1,0.3,1.5,0.8C449.9,31.1,450.1,31.9,450.1,32.9z M448.1,30.9
					c-0.2,0-0.4,0.1-0.5,0.3c-0.1,0.2-0.2,0.5-0.2,1c0,0.4,0.1,0.7,0.2,0.9c0.1,0.2,0.3,0.3,0.5,0.3c0.2,0,0.3-0.1,0.5-0.3
					c0.1-0.2,0.2-0.5,0.2-0.7c0-0.4-0.1-0.8-0.2-1C448.5,31,448.3,30.9,448.1,30.9z"/>
			</g>
		</g>
		<g>
			<g>
				<path class="st3" d="M596.2,9.1v4.6c0,0.8-0.2,1.5-0.6,1.9c-0.4,0.4-0.9,0.7-1.7,0.7c-0.7,0-1.3-0.2-1.6-0.7s-0.6-1.1-0.6-2V9.1
					h1.3v4.7c0,0.9,0.3,1.4,0.9,1.4c0.3,0,0.5-0.1,0.6-0.3c0.2-0.2,0.2-0.6,0.2-1V9.1H596.2z"/>
				<path class="st3" d="M601.8,16.2h-1.4l-1-2.6l-0.9,2.6H597l1.6-3.7l-1.5-3.4h1.3l0.9,2.3l0.8-2.3h1.4l-1.5,3.5L601.8,16.2z"/>
				<path class="st3" d="M607.8,16.2l-1.4-6.1h-0.1c0.1,0.5,0.1,0.9,0.1,1.3v4.8h-1.2V9.1h2l1.2,5.6h0l1.2-5.6h2.1v7.1h-1.3v-4.8
					c0-0.4,0-0.8,0.1-1.2h0l-1.4,6.1H607.8z"/>
				<path class="st3" d="M615.2,16.3c-0.7,0-1.2-0.2-1.6-0.7c-0.4-0.5-0.6-1.2-0.6-2.1c0-0.9,0.2-1.6,0.5-2.1
					c0.4-0.5,0.8-0.8,1.5-0.8c0.6,0,1.1,0.2,1.4,0.6c0.3,0.4,0.5,1,0.5,1.8v0.7h-2.6c0,0.5,0.1,0.8,0.3,1.1c0.2,0.2,0.4,0.4,0.8,0.4
					c0.4,0,0.9-0.1,1.3-0.4V16C616.3,16.2,615.8,16.3,615.2,16.3z M615,11.7c-0.2,0-0.3,0.1-0.5,0.3c-0.1,0.2-0.2,0.5-0.2,0.9h1.3
					c0-0.4-0.1-0.7-0.2-0.9C615.4,11.8,615.2,11.7,615,11.7z"/>
				<path class="st3" d="M620.7,16.2V13c0-0.4,0-0.7-0.1-0.9c-0.1-0.2-0.2-0.3-0.5-0.3c-0.3,0-0.5,0.1-0.6,0.4
					c-0.1,0.3-0.2,0.7-0.2,1.4v2.6H618v-5.4h1l0.2,0.7h0.1c0.1-0.3,0.3-0.4,0.5-0.6c0.2-0.1,0.5-0.2,0.8-0.2c0.5,0,0.9,0.2,1.1,0.5
					c0.2,0.3,0.4,0.8,0.4,1.5v3.5H620.7z"/>
				<path class="st3" d="M625.2,15.2c0.2,0,0.4,0,0.6-0.1v1c-0.2,0.1-0.5,0.2-1,0.2c-0.5,0-0.8-0.1-1-0.4c-0.2-0.3-0.3-0.7-0.3-1.3
					v-2.8h-0.5v-0.6l0.7-0.5l0.3-1.2h0.8v1.2h1v1h-1v2.9C624.7,15,624.9,15.2,625.2,15.2z"/>
				<path class="st3" d="M630.8,13.5c0,0.9-0.2,1.6-0.6,2.1c-0.4,0.5-0.9,0.7-1.6,0.7c-0.4,0-0.8-0.1-1.1-0.3
					c-0.3-0.2-0.6-0.6-0.7-1c-0.2-0.4-0.3-0.9-0.3-1.5c0-0.9,0.2-1.6,0.6-2.1c0.4-0.5,0.9-0.7,1.6-0.7c0.6,0,1.2,0.3,1.5,0.8
					C630.6,12,630.8,12.6,630.8,13.5z M627.9,13.5c0,0.6,0.1,1,0.2,1.3c0.1,0.3,0.3,0.4,0.6,0.4c0.5,0,0.8-0.6,0.8-1.7
					c0-0.6-0.1-1-0.2-1.3c-0.1-0.3-0.3-0.4-0.6-0.4c-0.3,0-0.5,0.1-0.6,0.4C627.9,12.5,627.9,12.9,627.9,13.5z"/>
				<path class="st3" d="M634.2,10.7c0.2,0,0.3,0,0.5,0.1l-0.2,1.3c-0.1,0-0.2,0-0.4,0c-0.3,0-0.6,0.1-0.7,0.4s-0.3,0.6-0.3,1.1v2.8
					h-1.3v-5.4h1.1l0.1,0.8h0c0.1-0.3,0.3-0.6,0.5-0.7S634,10.7,634.2,10.7z"/>
				<path class="st3" d="M638.4,14.6c0,0.5-0.2,0.9-0.5,1.2c-0.3,0.3-0.8,0.4-1.4,0.4c-0.5,0-1-0.1-1.3-0.3v-1.1
					c0.2,0.1,0.4,0.2,0.6,0.3c0.2,0.1,0.4,0.1,0.6,0.1c0.2,0,0.4-0.1,0.5-0.1c0.1-0.1,0.2-0.2,0.2-0.4c0-0.2-0.1-0.3-0.2-0.4
					c-0.1-0.1-0.3-0.3-0.6-0.5c-0.4-0.2-0.7-0.5-0.8-0.7c-0.2-0.3-0.3-0.6-0.3-0.9c0-0.5,0.2-0.8,0.5-1.1c0.3-0.3,0.8-0.4,1.3-0.4
					c0.5,0,0.9,0.1,1.4,0.4l-0.4,0.9c-0.3-0.2-0.7-0.3-0.9-0.3c-0.2,0-0.3,0-0.4,0.1s-0.1,0.2-0.1,0.3c0,0.1,0.1,0.3,0.2,0.4
					c0.1,0.1,0.3,0.3,0.6,0.4c0.3,0.2,0.6,0.4,0.7,0.5c0.1,0.1,0.2,0.3,0.3,0.5C638.3,14.2,638.4,14.4,638.4,14.6z"/>
				<path class="st3" d="M642.1,16.2V13c0-0.8-0.2-1.2-0.6-1.2c-0.3,0-0.5,0.2-0.6,0.5c-0.1,0.3-0.2,0.8-0.2,1.4v2.6h-1.3V8.6h1.3
					v1.7c0,0.2,0,0.6-0.1,1.2h0.1c0.3-0.5,0.7-0.8,1.2-0.8c0.5,0,0.9,0.2,1.1,0.5s0.4,0.8,0.4,1.5v3.5H642.1z"/>
				<path class="st3" d="M644.6,9.4c0-0.2,0.1-0.4,0.2-0.5c0.1-0.1,0.3-0.2,0.5-0.2c0.2,0,0.4,0.1,0.5,0.2c0.1,0.1,0.2,0.3,0.2,0.5
					c0,0.2-0.1,0.4-0.2,0.5c-0.1,0.1-0.3,0.2-0.5,0.2c-0.2,0-0.4-0.1-0.5-0.2C644.7,9.8,644.6,9.6,644.6,9.4z M646,16.2h-1.3v-5.4
					h1.3V16.2z"/>
				<path class="st3" d="M649.7,16.3c-0.2,0-0.4-0.1-0.6-0.2c-0.2-0.1-0.3-0.3-0.5-0.6h-0.1c0.1,0.4,0.1,0.7,0.1,0.8v2.2h-1.3v-7.8
					h1l0.2,0.7h0.1c0.3-0.5,0.7-0.8,1.2-0.8c0.5,0,0.9,0.2,1.2,0.7c0.3,0.5,0.4,1.2,0.4,2.1c0,0.9-0.1,1.6-0.4,2.1
					C650.6,16.1,650.2,16.3,649.7,16.3z M649.3,11.8c-0.3,0-0.4,0.1-0.5,0.4c-0.1,0.2-0.2,0.6-0.2,1.2v0.2c0,0.6,0.1,1,0.2,1.3
					c0.1,0.3,0.3,0.4,0.6,0.4c0.5,0,0.7-0.6,0.7-1.7c0-0.6-0.1-1-0.2-1.3C649.7,11.9,649.5,11.8,649.3,11.8z"/>
				<path class="st3" d="M654,15.2c-0.2,0.7-0.5,1.4-0.9,2.3h-1c0.2-0.9,0.4-1.7,0.5-2.5h1.3L654,15.2z"/>
				<path class="st3" d="M661.3,14.3c0,0.7-0.2,1.2-0.5,1.5c-0.3,0.4-0.8,0.5-1.5,0.5c-0.6,0-1.2-0.1-1.6-0.4v-1.3
					c0.5,0.3,1,0.5,1.5,0.5c0.3,0,0.4-0.1,0.6-0.2c0.1-0.1,0.2-0.3,0.2-0.6s-0.1-0.5-0.2-0.7c-0.2-0.2-0.4-0.4-0.8-0.7
					c-0.3-0.2-0.5-0.4-0.7-0.6c-0.2-0.2-0.3-0.4-0.4-0.7c-0.1-0.2-0.1-0.5-0.1-0.8c0-0.6,0.2-1.1,0.5-1.5c0.3-0.4,0.8-0.5,1.4-0.5
					c0.5,0,1.1,0.2,1.6,0.5l-0.4,1.1c-0.2-0.1-0.3-0.2-0.5-0.2c-0.2-0.1-0.4-0.1-0.5-0.1c-0.2,0-0.4,0.1-0.5,0.2
					c-0.1,0.1-0.2,0.3-0.2,0.6c0,0.2,0.1,0.4,0.2,0.6c0.1,0.2,0.4,0.4,0.7,0.6c0.5,0.3,0.8,0.6,1,1
					C661.2,13.5,661.3,13.8,661.3,14.3z"/>
				<path class="st3" d="M664.2,15.2c0.2,0,0.4,0,0.6-0.1v1c-0.2,0.1-0.5,0.2-1,0.2c-0.5,0-0.8-0.1-1-0.4c-0.2-0.3-0.3-0.7-0.3-1.3
					v-2.8h-0.5v-0.6l0.7-0.5l0.3-1.2h0.8v1.2h1v1h-1v2.9C663.8,15,663.9,15.2,664.2,15.2z"/>
				<path class="st3" d="M668.7,16.2l-0.2-0.7h-0.1c-0.1,0.2-0.3,0.4-0.5,0.6c-0.2,0.1-0.5,0.2-0.8,0.2c-0.5,0-0.9-0.2-1.1-0.5
					c-0.3-0.3-0.4-0.8-0.4-1.5v-3.5h1.3V14c0,0.4,0,0.7,0.1,0.9c0.1,0.2,0.2,0.3,0.5,0.3c0.3,0,0.5-0.1,0.6-0.4
					c0.1-0.3,0.2-0.8,0.2-1.4v-2.6h1.3v5.4H668.7z"/>
				<path class="st3" d="M672.5,16.3c-0.5,0-0.9-0.2-1.2-0.7c-0.3-0.5-0.4-1.2-0.4-2.1c0-0.9,0.1-1.6,0.4-2.1
					c0.3-0.5,0.7-0.8,1.2-0.8c0.2,0,0.5,0.1,0.6,0.2s0.3,0.3,0.5,0.6h0.1c0-0.5-0.1-0.8-0.1-1V8.6h1.3v7.6h-1l-0.2-0.7h0
					C673.4,16.1,673,16.3,672.5,16.3z M672.9,15.2c0.2,0,0.4-0.1,0.5-0.3c0.1-0.2,0.2-0.6,0.2-1.2v-0.2c0-0.6-0.1-1.1-0.2-1.3
					c-0.1-0.3-0.3-0.4-0.6-0.4c-0.2,0-0.4,0.1-0.5,0.4c-0.1,0.3-0.2,0.7-0.2,1.3c0,0.6,0.1,1,0.2,1.3
					C672.5,15.1,672.6,15.2,672.9,15.2z"/>
				<path class="st3" d="M678.2,16.3c-0.7,0-1.2-0.2-1.6-0.7s-0.6-1.2-0.6-2.1c0-0.9,0.2-1.6,0.5-2.1c0.4-0.5,0.8-0.8,1.5-0.8
					c0.6,0,1.1,0.2,1.4,0.6c0.3,0.4,0.5,1,0.5,1.8v0.7h-2.6c0,0.5,0.1,0.8,0.3,1.1c0.2,0.2,0.4,0.4,0.8,0.4c0.4,0,0.9-0.1,1.3-0.4
					V16C679.3,16.2,678.8,16.3,678.2,16.3z M678,11.7c-0.2,0-0.3,0.1-0.5,0.3c-0.1,0.2-0.2,0.5-0.2,0.9h1.3c0-0.4-0.1-0.7-0.2-0.9
					S678.2,11.7,678,11.7z"/>
				<path class="st3" d="M683.7,16.2V13c0-0.4,0-0.7-0.1-0.9c-0.1-0.2-0.2-0.3-0.5-0.3c-0.3,0-0.5,0.1-0.6,0.4s-0.2,0.7-0.2,1.4v2.6
					H681v-5.4h1l0.2,0.7h0.1c0.1-0.3,0.3-0.4,0.5-0.6s0.5-0.2,0.8-0.2c0.5,0,0.9,0.2,1.1,0.5c0.2,0.3,0.4,0.8,0.4,1.5v3.5H683.7z"/>
				<path class="st3" d="M688.2,15.2c0.2,0,0.4,0,0.6-0.1v1c-0.2,0.1-0.5,0.2-1,0.2c-0.5,0-0.8-0.1-1-0.4c-0.2-0.3-0.3-0.7-0.3-1.3
					v-2.8h-0.5v-0.6l0.7-0.5l0.3-1.2h0.8v1.2h1v1h-1v2.9C687.7,15,687.9,15.2,688.2,15.2z"/>
				<path class="st3" d="M626.1,19.5v4.6c0,0.8-0.2,1.5-0.6,1.9c-0.4,0.4-0.9,0.7-1.7,0.7c-0.7,0-1.3-0.2-1.6-0.7s-0.6-1.1-0.6-2
					v-4.6h1.3v4.7c0,0.9,0.3,1.4,0.9,1.4c0.3,0,0.5-0.1,0.6-0.3c0.2-0.2,0.2-0.6,0.2-1v-4.7H626.1z"/>
				<path class="st3" d="M631.6,26.6h-1.4l-1-2.6l-0.9,2.6h-1.4l1.6-3.7l-1.5-3.4h1.3l0.9,2.3l0.8-2.3h1.4l-1.5,3.5L631.6,26.6z"/>
				<path class="st3" d="M636.3,21.7c0,0.8-0.2,1.3-0.6,1.7c-0.4,0.4-0.9,0.6-1.7,0.6h-0.3v2.6h-1.3v-7.1h1.8
					C635.6,19.5,636.3,20.2,636.3,21.7z M633.8,22.9h0.3c0.3,0,0.6-0.1,0.7-0.3c0.2-0.2,0.2-0.5,0.2-0.9c0-0.4-0.1-0.7-0.2-0.8
					s-0.4-0.3-0.7-0.3h-0.3V22.9z"/>
				<path class="st3" d="M640.6,26.6l-0.4-1.8h-1.9l-0.4,1.8h-1.3l1.8-7.2h1.8l1.8,7.2H640.6z M639.9,23.6l-0.4-1.7
					c0-0.1-0.1-0.4-0.2-0.8c-0.1-0.4-0.1-0.7-0.1-0.8c0,0.3-0.1,0.6-0.2,0.9c-0.1,0.3-0.2,1.1-0.5,2.3H639.9z"/>
				<path class="st3" d="M648,26.6l-1.4-6.1h-0.1c0.1,0.5,0.1,0.9,0.1,1.3v4.8h-1.2v-7.1h2l1.2,5.6h0l1.2-5.6h2.1v7.1h-1.3v-4.8
					c0-0.4,0-0.8,0.1-1.2h0l-1.4,6.1H648z"/>
				<path class="st3" d="M658.5,26.6h-1.6l-2.2-5.2h-0.1c0.1,0.4,0.1,0.8,0.1,1.3v3.9h-1.2v-7.1h1.6l2.2,5.1h0.1
					c-0.1-0.3-0.1-0.7-0.1-1.2v-3.9h1.2V26.6z"/>
				<path class="st3" d="M634.7,37h-3.8v-1l1.3-1.8c0.3-0.5,0.6-0.9,0.7-1.1c0.1-0.2,0.2-0.5,0.3-0.7c0.1-0.2,0.1-0.4,0.1-0.7
					c0-0.3-0.1-0.5-0.2-0.6s-0.3-0.2-0.5-0.2c-0.2,0-0.3,0-0.5,0.1c-0.2,0.1-0.3,0.3-0.5,0.5l-0.7-0.8c0.3-0.4,0.7-0.7,1-0.8
					c0.3-0.1,0.6-0.2,1-0.2c0.6,0,1,0.2,1.4,0.5c0.3,0.3,0.5,0.8,0.5,1.4c0,0.3,0,0.5-0.1,0.8s-0.1,0.5-0.3,0.7
					c-0.1,0.2-0.3,0.5-0.4,0.8c-0.2,0.3-0.6,0.9-1.4,1.8v0h2.3V37z"/>
				<path class="st3" d="M639.6,33.4c0,1.3-0.2,2.2-0.5,2.8c-0.3,0.6-0.8,0.9-1.5,0.9c-0.7,0-1.2-0.3-1.5-0.9
					c-0.3-0.6-0.5-1.5-0.5-2.8c0-1.3,0.2-2.2,0.5-2.8c0.3-0.6,0.8-0.9,1.5-0.9c0.7,0,1.2,0.3,1.5,0.9
					C639.5,31.1,639.6,32.1,639.6,33.4z M637,33.4c0,1,0,1.7,0.1,2c0.1,0.3,0.2,0.5,0.5,0.5c0.2,0,0.3-0.1,0.4-0.2
					c0.1-0.1,0.2-0.4,0.2-0.7s0.1-0.9,0.1-1.6c0-1,0-1.7-0.1-2c-0.1-0.4-0.3-0.5-0.5-0.5c-0.2,0-0.4,0.2-0.5,0.5
					C637.1,31.7,637,32.4,637,33.4z"/>
				<path class="st3" d="M643.7,37h-1.3v-4.2c0-0.5,0-1,0.1-1.6c0,0-0.1,0.1-0.3,0.3c-0.1,0.2-0.4,0.5-0.8,0.9l-0.7-0.8l1.9-1.8h1.2
					V37z"/>
				<path class="st3" d="M647.5,32.5c0.5,0,1,0.2,1.3,0.6c0.3,0.4,0.5,0.9,0.5,1.5c0,0.8-0.2,1.4-0.6,1.8c-0.4,0.4-0.9,0.6-1.6,0.6
					c-0.6,0-1.1-0.1-1.5-0.4v-1.2c0.2,0.1,0.4,0.2,0.6,0.3c0.3,0.1,0.5,0.1,0.7,0.1c0.7,0,1-0.4,1-1.2c0-0.8-0.3-1.1-1-1.1
					c-0.3,0-0.6,0.1-0.9,0.2l-0.4-0.3l0.2-3.6h3V31h-1.9l-0.1,1.5C647,32.5,647.2,32.5,647.5,32.5z"/>
			</g>
		</g>
		<g>
			<g>
				<path class="st3" d="M164,16.5L164,16.5c0,1.8,0.4,3,1.2,3.9s1.9,1.3,3.4,1.3c1.5,0,2.9-0.5,4.1-1.5l0.6,1.2
					c-0.6,0.5-1.3,0.9-2.1,1.2c-0.8,0.3-1.7,0.5-2.6,0.5c-1.9,0-3.4-0.6-4.5-1.7c-1.1-1.1-1.6-2.7-1.6-4.7c0-1.3,0.2-2.4,0.7-3.4
					c0.5-1,1.2-1.8,2.1-2.3c0.9-0.5,1.9-0.8,3-0.8c1.7,0,2.9,0.5,3.9,1.6c0.9,1.1,1.4,2.6,1.4,4.5v0.3H164z M165.4,12.4
					c-0.7,0.7-1.2,1.7-1.4,2.9h8c-0.1-1.3-0.5-2.3-1.1-2.9c-0.6-0.7-1.5-1-2.7-1C167.1,11.4,166.2,11.8,165.4,12.4z"/>
				<path class="st3" d="M183,16.5l5.2,6.5h-1.9l-4.2-5.3l-4.2,5.3H176l5.2-6.5l-4.9-6.1h1.9l3.9,4.9l3.9-4.9h1.9L183,16.5z"/>
				<path class="st3" d="M200.5,11c0.8,0.5,1.5,1.3,2,2.3c0.5,1,0.7,2.1,0.7,3.4c0,1.3-0.2,2.4-0.7,3.4c-0.5,1-1.1,1.7-2,2.2
					s-1.8,0.8-2.9,0.8c-1,0-1.9-0.2-2.7-0.7c-0.7-0.5-1.3-1.1-1.7-2v7.9h-1.5V13.9c0-1.3-0.1-2.5-0.2-3.5h1.4l0.2,2.4
					c0.4-0.9,0.9-1.6,1.7-2c0.8-0.5,1.7-0.7,2.7-0.7C198.7,10.2,199.7,10.4,200.5,11z M200.5,20.5c0.7-0.9,1.1-2.1,1.1-3.8
					c0-1.6-0.4-2.9-1.1-3.8s-1.8-1.4-3-1.4c-1.3,0-2.4,0.5-3.1,1.4s-1.1,2.2-1.1,3.8c0,1.6,0.4,2.9,1.1,3.8c0.7,0.9,1.7,1.3,3.1,1.3
					C198.7,21.8,199.7,21.4,200.5,20.5z"/>
				<path class="st3" d="M208.3,16.5L208.3,16.5c0,1.8,0.4,3,1.2,3.9s1.9,1.3,3.4,1.3c1.5,0,2.9-0.5,4.1-1.5l0.6,1.2
					c-0.6,0.5-1.3,0.9-2.1,1.2c-0.8,0.3-1.7,0.5-2.6,0.5c-1.9,0-3.4-0.6-4.5-1.7c-1.1-1.1-1.7-2.7-1.7-4.7c0-1.3,0.2-2.4,0.7-3.4
					c0.5-1,1.2-1.8,2.1-2.3c0.9-0.5,1.9-0.8,3-0.8c1.7,0,2.9,0.5,3.9,1.6c0.9,1.1,1.4,2.6,1.4,4.5v0.3H208.3z M209.8,12.4
					c-0.7,0.7-1.2,1.7-1.4,2.9h8c-0.1-1.3-0.5-2.3-1.1-2.9c-0.7-0.7-1.5-1-2.7-1C211.4,11.4,210.5,11.8,209.8,12.4z"/>
				<path class="st3" d="M228.6,10.3l-0.1,1.4c-0.3-0.1-0.7-0.1-1.1-0.1c-1.3,0-2.2,0.4-2.8,1.2c-0.6,0.8-0.9,1.8-0.9,2.9V23h-1.5
					v-9.1c0-1.3-0.1-2.5-0.2-3.5h1.5l0.2,2.3c0.3-0.8,0.8-1.5,1.5-1.9c0.7-0.5,1.5-0.7,2.4-0.7C227.9,10.2,228.3,10.2,228.6,10.3z"
					/>
				<path class="st3" d="M231.6,5.3h2v2h-2V5.3z M231.8,23V10.5h1.5V23H231.8z"/>
				<path class="st3" d="M239.3,16.5L239.3,16.5c0,1.8,0.4,3,1.2,3.9s1.9,1.3,3.4,1.3c1.5,0,2.9-0.5,4.1-1.5l0.6,1.2
					c-0.6,0.5-1.3,0.9-2.1,1.2c-0.8,0.3-1.7,0.5-2.6,0.5c-1.9,0-3.4-0.6-4.5-1.7s-1.7-2.7-1.7-4.7c0-1.3,0.2-2.4,0.7-3.4
					c0.5-1,1.2-1.8,2.1-2.3c0.9-0.5,1.9-0.8,3-0.8c1.7,0,2.9,0.5,3.9,1.6c0.9,1.1,1.4,2.6,1.4,4.5v0.3H239.3z M240.8,12.4
					c-0.7,0.7-1.2,1.7-1.4,2.9h7.9c-0.1-1.3-0.5-2.3-1.1-2.9c-0.7-0.7-1.5-1-2.7-1C242.4,11.4,241.5,11.8,240.8,12.4z"/>
				<path class="st3" d="M263.4,15v8h-1.5v-7.9c0-1.3-0.3-2.2-0.8-2.8c-0.5-0.6-1.3-0.9-2.4-0.9c-1.3,0-2.3,0.4-3,1.1
					s-1.1,1.8-1.1,3.1V23h-1.5v-9.1c0-1.3-0.1-2.5-0.2-3.5h1.5l0.2,2.3c0.4-0.9,1-1.5,1.7-1.9c0.8-0.4,1.7-0.7,2.7-0.7
					C261.9,10.2,263.4,11.8,263.4,15z"/>
				<path class="st3" d="M270.5,22.4c-0.9-0.5-1.6-1.3-2-2.3c-0.5-1-0.7-2.1-0.7-3.4c0-1.3,0.2-2.4,0.7-3.4c0.5-1,1.2-1.8,2.1-2.3
					c0.9-0.5,1.9-0.8,3.1-0.8c0.8,0,1.7,0.1,2.4,0.4s1.4,0.7,1.9,1.2l-0.6,1.2c-0.7-0.5-1.3-0.9-1.9-1.2s-1.2-0.4-1.8-0.4
					c-1.4,0-2.4,0.5-3.2,1.4s-1.2,2.2-1.2,3.8c0,1.6,0.4,2.8,1.2,3.8c0.8,0.9,1.8,1.3,3.2,1.3c0.6,0,1.2-0.1,1.8-0.4
					c0.6-0.2,1.2-0.6,1.9-1.1l0.6,1.2c-0.5,0.5-1.2,0.9-2,1.2c-0.8,0.3-1.6,0.4-2.4,0.4C272.4,23.2,271.4,22.9,270.5,22.4z"/>
				<path class="st3" d="M282.6,16.5L282.6,16.5c0,1.8,0.4,3,1.2,3.9c0.8,0.9,1.9,1.3,3.4,1.3c1.5,0,2.9-0.5,4.1-1.5l0.6,1.2
					c-0.5,0.5-1.3,0.9-2.1,1.2c-0.8,0.3-1.7,0.5-2.6,0.5c-1.9,0-3.4-0.6-4.5-1.7s-1.7-2.7-1.7-4.7c0-1.3,0.2-2.4,0.7-3.4
					c0.5-1,1.2-1.8,2.1-2.3c0.9-0.5,1.9-0.8,3.1-0.8c1.6,0,2.9,0.5,3.9,1.6c0.9,1.1,1.4,2.6,1.4,4.5v0.3H282.6z M284,12.4
					c-0.7,0.7-1.2,1.7-1.4,2.9h8c-0.1-1.3-0.5-2.3-1.1-2.9c-0.6-0.7-1.5-1-2.7-1C285.7,11.4,284.8,11.8,284,12.4z"/>
			</g>
		</g>
		
			<rect x="367.4" y="46.5" transform="matrix(0.7071 -0.7071 0.7071 0.7071 72.9856 277.6299)" class="st58" width="8.4" height="8.4"/>
		
			<rect x="435.5" y="46.3" transform="matrix(0.7071 -0.7071 0.7071 0.7071 93.081 325.7175)" class="st59" width="8.4" height="8.4"/>
		
			<rect x="579.6" y="46.3" transform="matrix(0.7071 -0.7071 0.7071 0.7071 135.2854 427.6077)" class="st60" width="8.4" height="8.4"/>
		
			<rect x="634.7" y="46.5" transform="matrix(0.7071 -0.7071 0.7071 0.7071 151.2712 466.628)" class="st61" width="8.4" height="8.4"/>
		
			<rect x="686.8" y="46.3" transform="matrix(0.7071 -0.7071 0.7071 0.7071 166.6803 503.4019)" class="st62" width="8.4" height="8.4"/>
	</g>
</g>
</svg>
