<?xml version="1.0" encoding="utf-8"?>
<!-- Generator: Adobe Illustrator 19.1.0, SVG Export Plug-In . SVG Version: 6.00 Build 0)  -->
<svg version="1.1" xmlns="http://www.w3.org/2000/svg" xmlns:xlink="http://www.w3.org/1999/xlink" x="0px" y="0px"
	 viewBox="0 0 670.7 312.7" style="enable-background:new 0 0 670.7 312.7;" xml:space="preserve">
<style type="text/css">
	.st0{fill:#A8B301;}
	.st1{fill:#A1B2A8;}
	.st2{fill:#FFF6E1;}
	.st3{fill:#7BA178;}
	.st4{fill:#653C5A;}
	.st5{fill:#9C4276;}
	.st6{fill:#FF4C4E;}
	.st7{fill:#0C2E2B;}
	.st8{fill:none;stroke:#653C5A;stroke-width:2;stroke-miterlimit:10;}
	.st9{fill:#FFFFFF;}
	.st10{fill:none;stroke:#A1B2A8;stroke-miterlimit:10;}
	.st11{fill:#FFEBBA;stroke:#7BA178;stroke-miterlimit:10;}
	.st12{fill:#FFFFFF;stroke:#A1B2A8;stroke-miterlimit:10;}
	.st13{fill:#A1BC9F;stroke:#7BA178;stroke-miterlimit:10;}
	.st14{fill:none;stroke:#7BA178;stroke-miterlimit:10;}
	.st15{fill:#FFFFFF;stroke:#7BA178;stroke-miterlimit:10;}
	.st16{fill:#FFFFFF;stroke:#52684F;stroke-width:2;stroke-miterlimit:10;}
	.st17{fill:#7BA178;stroke:#FFFFFF;stroke-width:2;stroke-miterlimit:10;}
	.st18{fill:#FFFFFF;stroke:#9C4276;stroke-width:2;stroke-miterlimit:10;}
	.st19{fill:none;stroke:#A8B301;stroke-width:2;stroke-miterlimit:10;}
	.st20{fill:#FF645C;}
	.st21{fill:none;stroke:#FF4C4E;stroke-width:2;stroke-miterlimit:10;}
	.st22{opacity:0.55;fill:#2B2B2B;}
	.st23{fill:#F2DFEE;stroke:#653C5A;stroke-width:2;stroke-miterlimit:10;}
	.st24{fill:#653C5A;stroke:#B7A3B3;stroke-width:2;stroke-miterlimit:10;}
	.st25{fill:#FFF6E1;stroke:#7BA178;stroke-miterlimit:10;}
	.st26{opacity:0.73;fill:#0C2E2B;}
	.st27{opacity:0.6;fill:#0C2E2B;}
	.st28{fill:#638770;stroke:#0C2E2B;stroke-miterlimit:10;}
	.st29{fill:#476D56;stroke:#0C2E2B;stroke-miterlimit:10;}
	.st30{fill:#2B564E;stroke:#0C2E2B;stroke-miterlimit:10;}
	.st31{fill:#B1B26B;stroke:#0C2E2B;stroke-miterlimit:10;}
	.st32{fill:#EDBC7C;stroke:#0C2E2B;stroke-miterlimit:10;}
	.st33{font-family:'Muli-ExtraBoldItalic';}
	.st34{font-size:12px;}
	.st35{fill:none;stroke:#0C2E2B;stroke-miterlimit:10;}
	.st36{fill:#FF645C;stroke:#0C2E2B;stroke-miterlimit:10;}
	.st37{font-family:'Muli-Light';}
	.st38{fill:#5D5D5D;}
	.st39{fill:#1C665D;}
	.st40{fill:#F9F9F9;}
	.st41{display:none;}
	.st42{display:inline;}
	.st43{opacity:0.1;fill:#E20613;}
	.st44{display:inline;fill:#FFFFFF;}
</style>
<g id="web_layout">
	<g>
		<polygon class="st28" points="389.8,180.8 271.9,180.8 281.5,157.3 271.9,133.4 389.8,133.4 399.4,156.9 		"/>
		<polygon class="st29" points="267.6,180.8 149.7,180.8 159.3,157.3 149.7,133.4 267.6,133.4 277.2,156.9 		"/>
		<polygon class="st30" points="145.4,180.8 27.5,180.8 27.5,157.1 27.5,133.4 145.4,133.4 155,156.9 		"/>
		<polygon class="st31" points="512,180.8 394.1,180.8 403.7,157.3 394.1,133.4 512,133.4 521.6,156.9 		"/>
		<polygon class="st32" points="634.2,180.8 516.4,180.8 526,157.3 516.4,133.4 634.2,133.4 643.8,156.9 		"/>
		<text transform="matrix(1 0 0 1 58.4107 160.5978)" class="st9 st33 st34">RESEARCH</text>
		<text transform="matrix(1 0 0 1 175.1083 160.5978)" class="st9 st33 st34">INTERVIEWS</text>
		<text transform="matrix(1 0 0 1 306.1034 160.5978)" class="st9 st33 st34">ANALYSIS</text>
		<text transform="matrix(1 0 0 1 434.9572 160.5978)" class="st9 st33 st34">DESIGN</text>
		<text transform="matrix(1 0 0 1 534.6874 160.5978)" class="st9 st33 st34">DEVELOPMENT</text>
		<line class="st35" x1="91.8" y1="88.7" x2="91.8" y2="133.7"/>
		<circle class="st36" cx="91.7" cy="82.5" r="6.3"/>
		<line class="st35" x1="335.8" y1="88.7" x2="335.8" y2="133.7"/>
		<circle class="st36" cx="336.1" cy="82.5" r="6.3"/>
		<line class="st35" x1="580.8" y1="88.7" x2="580.8" y2="133.7"/>
		<circle class="st36" cx="581.1" cy="82.5" r="6.3"/>
		<line class="st35" x1="458.8" y1="225.7" x2="458.8" y2="180.7"/>
		<circle class="st36" cx="458.4" cy="231.2" r="6.3"/>
		<line class="st35" x1="213.8" y1="225.7" x2="213.8" y2="180.7"/>
		<circle class="st36" cx="214.1" cy="231.2" r="6.3"/>
		<text transform="matrix(1 0 0 1 41.276 29.0978)"><tspan x="0" y="0" class="st37 st34">Observe beginner  </tspan><tspan x="-14.5" y="16.4" class="st37 st34">classes lead by various  </tspan><tspan x="25.1" y="32.8" class="st37 st34">teachers.</tspan></text>
		<text transform="matrix(1 0 0 1 283.5211 29.0978)"><tspan x="0" y="0" class="st37 st34">Create finding and  </tspan><tspan x="1.5" y="16.4" class="st37 st34">recommendations  </tspan><tspan x="34.4" y="32.8" class="st37 st34">report.</tspan></text>
		<text transform="matrix(1 0 0 1 160.0367 257.7646)"><tspan x="0" y="0" class="st38 st37 st34">Talk to the owners,  </tspan><tspan x="-12.2" y="16.4" class="st38 st37 st34">teachers, members and  </tspan><tspan x="15" y="32.8" class="st38 st37 st34">new students.</tspan></text>
		<text transform="matrix(1 0 0 1 412.9051 257.7643)"><tspan x="0" y="0" class="st38 st37 st34">Build interactive </tspan><tspan x="-9.7" y="16.4" class="st38 st37 st34">prototype to test on  </tspan><tspan x="-18.6" y="32.8" class="st38 st37 st34">potential new students.</tspan></text>
		<text transform="matrix(1 0 0 1 516.3336 29.0978)"><tspan x="0" y="0" class="st37 st34">Build out new site with  </tspan><tspan x="6.8" y="16.4" class="st37 st34">help of development  </tspan><tspan x="18.5" y="32.8" class="st37 st34">team volunteers.</tspan></text>
	</g>
</g>
<g id="mobile_layout">
</g>
<g id="_x31_2_col_grid" class="st41">
</g>
<g id="Layer_4">
</g>
</svg>
