<?xml version="1.0" encoding="utf-8"?>
<!-- Generator: Adobe Illustrator 19.1.0, SVG Export Plug-In . SVG Version: 6.00 Build 0)  -->
<svg version="1.1" xmlns="http://www.w3.org/2000/svg" xmlns:xlink="http://www.w3.org/1999/xlink" x="0px" y="0px"
	 viewBox="0 0 220 221" style="enable-background:new 0 0 220 221;" xml:space="preserve">
<style type="text/css">
	.st0{fill:#F9EFED;}
	.st1{fill:#0C2E2B;stroke:#A8B301;stroke-width:3;stroke-miterlimit:10;}
	.st2{fill:none;stroke:#0C2E2B;stroke-width:3;stroke-miterlimit:10;}
	.st3{fill:#0C2E2B;}
	.st4{fill:#A8B301;}
	.st5{fill:#AD79A4;}
	.st6{fill:#E2C583;stroke:#E2C583;stroke-width:0.5;stroke-linejoin:round;stroke-miterlimit:10;}
	.st7{fill:#A1B2A8;}
	.st8{fill:#B1B277;}
	.st9{fill:#B28C7B;}
	.st10{fill:#EAB6AD;}
	.st11{fill:none;stroke:#FFFFFF;stroke-width:3;stroke-miterlimit:10;}
	.st12{fill:none;stroke:#FF4C4E;stroke-miterlimit:10;}
	.st13{fill:none;stroke:#A1B2A8;stroke-miterlimit:10;}
	.st14{fill:#FFFFFF;}
	.st15{fill:#FFEBBA;}
	.st16{fill:#7BA178;}
	.st17{fill:#A1BC9F;}
	.st18{fill:#FF4C4E;}
	.st19{fill:#9C4276;}
	.st20{fill:#EDDAD6;}
	.st21{fill:#EAB0A7;}
	.st22{fill:#653C5A;}
	.st23{fill:#F2DFEE;}
	.st24{fill:#FFFFFF;stroke:#E2C583;stroke-width:0.5;stroke-linecap:round;stroke-linejoin:round;stroke-miterlimit:10;}
	.st25{fill:none;stroke:#653C5A;stroke-width:2;stroke-miterlimit:10;}
	.st26{fill:none;stroke:#FF4C4E;stroke-width:2;stroke-miterlimit:10;}
	.st27{fill:#E2C583;}
	.st28{fill:none;stroke:#A8B301;stroke-width:2;stroke-miterlimit:10;}
	.st29{fill:none;stroke:#042311;stroke-width:2;stroke-miterlimit:10;}
	.st30{fill:#042311;}
	.st31{fill:#FFF6F5;}
	.st32{fill:#A1B2A8;stroke:#FFFFFF;stroke-miterlimit:10;}
	.st33{fill:#5B270D;}
	.st34{fill:none;stroke:#AD79A4;stroke-miterlimit:10;}
	.st35{fill:#FCFCFC;}
	.st36{fill:#3D281F;}
	.st37{fill:#34183A;}
	.st38{fill:#C19ABD;}
	.st39{fill:none;stroke:#FF4C4E;stroke-width:3;stroke-miterlimit:10;}
	.st40{fill:#E27479;}
	.st41{fill:#16514A;}
	.st42{fill:none;stroke:#653C5A;stroke-width:6;stroke-miterlimit:10;}
	.st43{fill:none;stroke:#EF898E;stroke-width:6;stroke-miterlimit:10;}
	.st44{fill:#EF898E;}
	.st45{fill:none;stroke:#A8B301;stroke-width:6;stroke-miterlimit:10;}
	.st46{fill:none;stroke:#16514A;stroke-width:6;stroke-miterlimit:10;}
	.st47{fill:none;stroke:#5B270D;stroke-miterlimit:10;}
	.st48{fill:#5B270D;stroke:#B28C7B;stroke-miterlimit:10;}
	.st49{fill:none;stroke:#AD79A4;stroke-linecap:round;stroke-miterlimit:10;}
	.st50{fill:#FCFCFC;stroke:#3D281F;stroke-miterlimit:10;}
	.st51{fill:#AD79A4;stroke:#34183A;stroke-miterlimit:10;}
	.st52{fill:none;stroke:#C19ABD;stroke-linecap:round;stroke-miterlimit:10;}
	.st53{fill:none;stroke:#F9EFED;stroke-width:3;stroke-miterlimit:10;}
	.st54{fill:none;stroke:#E2E2E2;stroke-width:3;stroke-miterlimit:10;}
	.st55{fill:none;stroke:#0C2E2B;stroke-miterlimit:10;}
	.st56{fill:none;stroke:#0C2E2B;stroke-width:2;stroke-miterlimit:10;}
	.st57{fill:#EAB6AD;stroke:#0C2E2B;stroke-miterlimit:10;}
	.st58{fill:#AD79A4;stroke:#0C2E2B;stroke-miterlimit:10;}
	.st59{fill:#E2C583;stroke:#0C2E2B;stroke-width:0.5;stroke-linejoin:round;stroke-miterlimit:10;}
	.st60{fill:#B1B277;stroke:#0C2E2B;stroke-miterlimit:10;}
	.st61{fill:#A1B2A8;stroke:#0C2E2B;stroke-miterlimit:10;}
	.st62{fill:#FFF6E1;}
</style>
<g id="graphic_resume">
</g>
<g id="pallet">
	<g id="Skills">
		<g>
			<g>
				<g>
					<rect y="138" class="st14" width="220" height="83"/>
					<path class="st10" d="M220,221H0v-83h220V221z M1,220h218v-81H1V220z"/>
				</g>
				<g>
					<rect y="1" class="st31" width="220" height="137"/>
					<path class="st10" d="M220,139H0V0h220V139z M1,138h218V1H1V138z"/>
				</g>
			</g>
			<g>
				<polygon class="st7" points="198.4,204.9 196.9,203.8 202.2,194.3 203.7,195.4 				"/>
				<g>
					<g>
						<rect x="159.5" y="160.6" class="st7" width="43.4" height="33.9"/>
						<path class="st7" d="M203.8,195.6h-45.2v-36h45.2V195.6z M160.4,193.5H202v-31.9h-41.6V193.5z"/>
						<polygon class="st7" points="197.7,205.1 153.4,205.1 153.4,170.1 155.1,170.1 155.1,203 197.7,203 						"/>
						<polygon class="st7" points="155,204.6 153.5,203.5 158.8,194 160.3,195.1 						"/>
						<polygon class="st7" points="155,171.1 153.5,170.1 158.5,160.1 160,161.1 						"/>
					</g>
				</g>
			</g>
			<g>
				<polygon class="st27" points="135.4,204.9 133.9,203.8 139.2,194.3 140.7,195.4 				"/>
				<g>
					<rect x="96" y="160.6" class="st27" width="43.4" height="33.9"/>
					<path class="st27" d="M140.3,195.6H95.1v-36h45.2V195.6z M96.9,193.5h41.6v-31.9H96.9V193.5z"/>
					<polygon class="st27" points="134.2,205.1 89.9,205.1 89.9,170.1 91.6,170.1 91.6,203 134.2,203 					"/>
					<polygon class="st27" points="91.5,204.9 90,203.8 95.3,194.3 96.8,195.4 					"/>
					<polygon class="st27" points="91.5,171.5 90,170.4 95,160.4 96.5,161.5 					"/>
				</g>
			</g>
			<g>
				<polygon class="st10" points="71.4,204.9 69.9,203.8 75.2,194.3 76.7,195.4 				"/>
				<g>
					<g>
						<rect x="32.5" y="160.6" class="st10" width="43.4" height="33.9"/>
						<path class="st10" d="M76.8,195.6H31.6v-36h45.2V195.6z M33.4,193.5H75v-31.9H33.4V193.5z"/>
						<polygon class="st10" points="70.7,205.1 26.4,205.1 26.4,170.1 28.1,170.1 28.1,203 70.7,203 						"/>
						<polygon class="st10" points="28,204.6 26.5,203.5 31.8,194 33.3,195.1 						"/>
						<polygon class="st10" points="28,171.1 26.5,170.1 31.5,160.1 33,161.1 						"/>
					</g>
				</g>
			</g>
			<rect x="25.3" y="9.3" class="st32" width="27.4" height="27.4"/>
			<rect x="25.3" y="40.5" class="st7" width="27.4" height="27.4"/>
			<rect x="61.9" y="9.3" class="st10" width="27.4" height="27.4"/>
			<rect x="61.6" y="40.5" class="st10" width="27.4" height="27.4"/>
			<rect x="98.5" y="9.3" class="st7" width="27.4" height="27.4"/>
			<rect x="135.1" y="9.3" class="st27" width="27.4" height="27.4"/>
			<rect x="135.1" y="42.1" class="st27" width="27.4" height="27.4"/>
			<rect x="171.7" y="9.3" class="st27" width="27.4" height="27.4"/>
			<rect x="98.5" y="40.5" class="st7" width="27.4" height="27.4"/>
			<rect x="61.5" y="72.2" class="st10" width="27.4" height="27.4"/>
			<rect x="98.5" y="72.2" class="st7" width="27.4" height="27.4"/>
			<rect x="171.7" y="42.1" class="st27" width="27.4" height="27.4"/>
			<rect x="98.5" y="103.8" class="st27" width="27.4" height="27.4"/>
		</g>
	</g>
</g>
</svg>
