<?xml version="1.0" encoding="utf-8"?>
<!-- Generator: Adobe Illustrator 19.1.0, SVG Export Plug-In . SVG Version: 6.00 Build 0)  -->
<svg version="1.1" xmlns="http://www.w3.org/2000/svg" xmlns:xlink="http://www.w3.org/1999/xlink" x="0px" y="0px"
	 viewBox="0 0 220 221" style="enable-background:new 0 0 220 221;" xml:space="preserve">
<style type="text/css">
	.st0{fill:#F9EFED;}
	.st1{fill:#0C2E2B;stroke:#A8B301;stroke-width:3;stroke-miterlimit:10;}
	.st2{fill:none;stroke:#0C2E2B;stroke-width:3;stroke-miterlimit:10;}
	.st3{fill:#0C2E2B;}
	.st4{fill:#A8B301;}
	.st5{fill:#AD79A4;}
	.st6{fill:#E2C583;stroke:#E2C583;stroke-width:0.5;stroke-linejoin:round;stroke-miterlimit:10;}
	.st7{fill:#A1B2A8;}
	.st8{fill:#B1B277;}
	.st9{fill:#B28C7B;}
	.st10{fill:#EAB6AD;}
	.st11{fill:none;stroke:#FFFFFF;stroke-width:3;stroke-miterlimit:10;}
	.st12{fill:none;stroke:#FF4C4E;stroke-miterlimit:10;}
	.st13{fill:none;stroke:#A1B2A8;stroke-miterlimit:10;}
	.st14{fill:#FFFFFF;}
	.st15{fill:#FFEBBA;}
	.st16{fill:#7BA178;}
	.st17{fill:#A1BC9F;}
	.st18{fill:#FF4C4E;}
	.st19{fill:#9C4276;}
	.st20{fill:#EDDAD6;}
	.st21{fill:#EAB0A7;}
	.st22{fill:#653C5A;}
	.st23{fill:#F2DFEE;}
	.st24{fill:#FFFFFF;stroke:#E2C583;stroke-width:0.5;stroke-linecap:round;stroke-linejoin:round;stroke-miterlimit:10;}
	.st25{fill:none;stroke:#653C5A;stroke-width:2;stroke-miterlimit:10;}
	.st26{fill:none;stroke:#FF4C4E;stroke-width:2;stroke-miterlimit:10;}
	.st27{fill:#E2C583;}
	.st28{fill:none;stroke:#A8B301;stroke-width:2;stroke-miterlimit:10;}
	.st29{fill:none;stroke:#042311;stroke-width:2;stroke-miterlimit:10;}
	.st30{fill:#042311;}
	.st31{fill:#FFF6F5;}
	.st32{fill:#A1B2A8;stroke:#FFFFFF;stroke-miterlimit:10;}
	.st33{fill:#5B270D;}
	.st34{fill:none;stroke:#AD79A4;stroke-miterlimit:10;}
	.st35{fill:#FCFCFC;}
	.st36{fill:#3D281F;}
	.st37{fill:#34183A;}
	.st38{fill:#C19ABD;}
	.st39{fill:none;stroke:#FF4C4E;stroke-width:3;stroke-miterlimit:10;}
	.st40{fill:#E27479;}
	.st41{fill:#16514A;}
	.st42{fill:none;stroke:#653C5A;stroke-width:6;stroke-miterlimit:10;}
	.st43{fill:none;stroke:#EF898E;stroke-width:6;stroke-miterlimit:10;}
	.st44{fill:#EF898E;}
	.st45{fill:none;stroke:#A8B301;stroke-width:6;stroke-miterlimit:10;}
	.st46{fill:none;stroke:#16514A;stroke-width:6;stroke-miterlimit:10;}
	.st47{fill:none;stroke:#5B270D;stroke-miterlimit:10;}
	.st48{fill:#5B270D;stroke:#B28C7B;stroke-miterlimit:10;}
	.st49{fill:none;stroke:#AD79A4;stroke-linecap:round;stroke-miterlimit:10;}
	.st50{fill:#FCFCFC;stroke:#3D281F;stroke-miterlimit:10;}
	.st51{fill:#AD79A4;stroke:#34183A;stroke-miterlimit:10;}
	.st52{fill:none;stroke:#C19ABD;stroke-linecap:round;stroke-miterlimit:10;}
	.st53{fill:none;stroke:#F9EFED;stroke-width:3;stroke-miterlimit:10;}
	.st54{fill:none;stroke:#E2E2E2;stroke-width:3;stroke-miterlimit:10;}
	.st55{fill:none;stroke:#0C2E2B;stroke-miterlimit:10;}
	.st56{fill:none;stroke:#0C2E2B;stroke-width:2;stroke-miterlimit:10;}
	.st57{fill:#EAB6AD;stroke:#0C2E2B;stroke-miterlimit:10;}
	.st58{fill:#AD79A4;stroke:#0C2E2B;stroke-miterlimit:10;}
	.st59{fill:#E2C583;stroke:#0C2E2B;stroke-width:0.5;stroke-linejoin:round;stroke-miterlimit:10;}
	.st60{fill:#B1B277;stroke:#0C2E2B;stroke-miterlimit:10;}
	.st61{fill:#A1B2A8;stroke:#0C2E2B;stroke-miterlimit:10;}
	.st62{fill:#FFF6E1;}
</style>
<g id="graphic_resume">
</g>
<g id="pallet">
	<g id="Skills">
		<g>
			<g>
				<rect y="138" class="st14" width="220" height="83"/>
				<path class="st10" d="M220,221H0v-83h220V221z M1,220h218v-81H1V220z"/>
			</g>
			<g>
				<rect y="1" class="st15" width="220" height="137"/>
				<path class="st10" d="M220,139H0V0h220V139z M1,138h218V1H1V138z"/>
			</g>
			<rect x="22" y="201" class="st16" width="169" height="1"/>
			<rect x="40.5" y="191.2" class="st40" width="20" height="9.9"/>
			<rect x="68.8" y="171.5" class="st19" width="20" height="29.7"/>
			<rect x="97.1" y="178.9" class="st7" width="20" height="22.3"/>
			<rect x="125.4" y="158.7" class="st4" width="20" height="42.4"/>
			<rect x="153.7" y="171.5" class="st41" width="20" height="29.7"/>
			<path class="st7" d="M195.9,130.7H26.9c-2.2,0-4-1.8-4-4v-114c0-2.2,1.8-4,4-4h169.1c2.2,0,4,1.8,4,4v114
				C199.9,128.9,198.1,130.7,195.9,130.7z"/>
			<g>
				<rect x="30.7" y="15.4" class="st20" width="162.1" height="107.9"/>
				<path class="st18" d="M193.3,123.8H30.2V14.9h163.1V123.8z M31.2,122.8h161.1V15.9H31.2V122.8z"/>
			</g>
			<g>
				<rect x="65.9" y="19" class="st14" width="93.7" height="100.8"/>
				<path class="st18" d="M160.1,120.3H65.4V18.5h94.7V120.3z M66.4,119.3h92.7V19.5H66.4V119.3z"/>
			</g>
			<rect x="71.5" y="24.8" class="st21" width="78.6" height="5.6"/>
			<rect x="71.5" y="33.6" class="st21" width="83.1" height="5.6"/>
			<rect x="71.5" y="42.7" class="st21" width="30.7" height="5.6"/>
			<rect x="90" y="69.5" class="st21" width="56.4" height="3.8"/>
			<g>
				<circle class="st14" cx="83" cy="71.5" r="3.2"/>
				<path class="st18" d="M83,75.2c-2.1,0-3.7-1.7-3.7-3.7s1.7-3.7,3.7-3.7c2.1,0,3.7,1.7,3.7,3.7S85,75.2,83,75.2z M83,68.7
					c-1.5,0-2.7,1.2-2.7,2.7s1.2,2.7,2.7,2.7s2.7-1.2,2.7-2.7S84.5,68.7,83,68.7z"/>
			</g>
			<rect x="90" y="56.6" class="st21" width="51.7" height="3.8"/>
			<g>
				<circle class="st14" cx="83" cy="58.5" r="3.2"/>
				<path class="st18" d="M83,62.3c-2.1,0-3.7-1.7-3.7-3.7s1.7-3.7,3.7-3.7c2.1,0,3.7,1.7,3.7,3.7S85,62.3,83,62.3z M83,55.8
					c-1.5,0-2.7,1.2-2.7,2.7s1.2,2.7,2.7,2.7s2.7-1.2,2.7-2.7S84.5,55.8,83,55.8z"/>
			</g>
			<rect x="90" y="82.1" class="st21" width="43.9" height="3.8"/>
			<circle class="st18" cx="83" cy="84.4" r="3.2"/>
			<rect x="90" y="95.1" class="st21" width="51.7" height="3.8"/>
			<g>
				<circle class="st14" cx="83" cy="97.3" r="3.2"/>
				<path class="st18" d="M83,101c-2.1,0-3.7-1.7-3.7-3.7s1.7-3.7,3.7-3.7c2.1,0,3.7,1.7,3.7,3.7S85,101,83,101z M83,94.6
					c-1.5,0-2.7,1.2-2.7,2.7s1.2,2.7,2.7,2.7s2.7-1.2,2.7-2.7S84.5,94.6,83,94.6z"/>
			</g>
			<rect x="90" y="108.3" class="st21" width="28.2" height="3.8"/>
			<g>
				<circle class="st14" cx="83" cy="110.2" r="3.2"/>
				<path class="st18" d="M83,114c-2.1,0-3.7-1.7-3.7-3.7s1.7-3.7,3.7-3.7c2.1,0,3.7,1.7,3.7,3.7S85,114,83,114z M83,107.5
					c-1.5,0-2.7,1.2-2.7,2.7s1.2,2.7,2.7,2.7s2.7-1.2,2.7-2.7S84.5,107.5,83,107.5z"/>
			</g>
		</g>
	</g>
</g>
</svg>
