<?xml version="1.0" encoding="utf-8"?>
<!-- Generator: Adobe Illustrator 19.1.0, SVG Export Plug-In . SVG Version: 6.00 Build 0)  -->
<svg version="1.1" xmlns="http://www.w3.org/2000/svg" xmlns:xlink="http://www.w3.org/1999/xlink" x="0px" y="0px"
	 viewBox="0 0 221 221" style="enable-background:new 0 0 221 221;" xml:space="preserve">
<style type="text/css">
	.st0{fill:#F9EFED;}
	.st1{fill:#0C2E2B;stroke:#A8B301;stroke-width:3;stroke-miterlimit:10;}
	.st2{fill:none;stroke:#0C2E2B;stroke-width:3;stroke-miterlimit:10;}
	.st3{fill:#0C2E2B;}
	.st4{fill:#A8B301;}
	.st5{fill:#AD79A4;}
	.st6{fill:#E2C583;stroke:#E2C583;stroke-width:0.5;stroke-linejoin:round;stroke-miterlimit:10;}
	.st7{fill:#A1B2A8;}
	.st8{fill:#B1B277;}
	.st9{fill:#B28C7B;}
	.st10{fill:#EAB6AD;}
	.st11{fill:none;stroke:#FFFFFF;stroke-width:3;stroke-miterlimit:10;}
	.st12{fill:none;stroke:#FF4C4E;stroke-miterlimit:10;}
	.st13{fill:none;stroke:#A1B2A8;stroke-miterlimit:10;}
	.st14{fill:#FFFFFF;}
	.st15{fill:#FFEBBA;}
	.st16{fill:#7BA178;}
	.st17{fill:#A1BC9F;}
	.st18{fill:#FF4C4E;}
	.st19{fill:#9C4276;}
	.st20{fill:#EDDAD6;}
	.st21{fill:#EAB0A7;}
	.st22{fill:#653C5A;}
	.st23{fill:#F2DFEE;}
	.st24{fill:#FFFFFF;stroke:#E2C583;stroke-width:0.5;stroke-linecap:round;stroke-linejoin:round;stroke-miterlimit:10;}
	.st25{fill:none;stroke:#653C5A;stroke-width:2;stroke-miterlimit:10;}
	.st26{fill:none;stroke:#FF4C4E;stroke-width:2;stroke-miterlimit:10;}
	.st27{fill:#E2C583;}
	.st28{fill:none;stroke:#A8B301;stroke-width:2;stroke-miterlimit:10;}
	.st29{fill:none;stroke:#042311;stroke-width:2;stroke-miterlimit:10;}
	.st30{fill:#042311;}
	.st31{fill:#FFF6F5;}
	.st32{fill:#A1B2A8;stroke:#FFFFFF;stroke-miterlimit:10;}
	.st33{fill:#5B270D;}
	.st34{fill:none;stroke:#AD79A4;stroke-miterlimit:10;}
	.st35{fill:#FCFCFC;}
	.st36{fill:#3D281F;}
	.st37{fill:#34183A;}
	.st38{fill:#C19ABD;}
	.st39{fill:none;stroke:#FF4C4E;stroke-width:3;stroke-miterlimit:10;}
	.st40{fill:#E27479;}
	.st41{fill:#16514A;}
	.st42{fill:none;stroke:#653C5A;stroke-width:6;stroke-miterlimit:10;}
	.st43{fill:none;stroke:#EF898E;stroke-width:6;stroke-miterlimit:10;}
	.st44{fill:#EF898E;}
	.st45{fill:none;stroke:#A8B301;stroke-width:6;stroke-miterlimit:10;}
	.st46{fill:none;stroke:#16514A;stroke-width:6;stroke-miterlimit:10;}
	.st47{fill:none;stroke:#5B270D;stroke-miterlimit:10;}
	.st48{fill:#5B270D;stroke:#B28C7B;stroke-miterlimit:10;}
	.st49{fill:none;stroke:#AD79A4;stroke-linecap:round;stroke-miterlimit:10;}
	.st50{fill:#FCFCFC;stroke:#3D281F;stroke-miterlimit:10;}
	.st51{fill:#AD79A4;stroke:#34183A;stroke-miterlimit:10;}
	.st52{fill:none;stroke:#C19ABD;stroke-linecap:round;stroke-miterlimit:10;}
	.st53{fill:none;stroke:#F9EFED;stroke-width:3;stroke-miterlimit:10;}
	.st54{fill:none;stroke:#E2E2E2;stroke-width:3;stroke-miterlimit:10;}
	.st55{fill:none;stroke:#0C2E2B;stroke-miterlimit:10;}
	.st56{fill:none;stroke:#0C2E2B;stroke-width:2;stroke-miterlimit:10;}
	.st57{fill:#EAB6AD;stroke:#0C2E2B;stroke-miterlimit:10;}
	.st58{fill:#AD79A4;stroke:#0C2E2B;stroke-miterlimit:10;}
	.st59{fill:#E2C583;stroke:#0C2E2B;stroke-width:0.5;stroke-linejoin:round;stroke-miterlimit:10;}
	.st60{fill:#B1B277;stroke:#0C2E2B;stroke-miterlimit:10;}
	.st61{fill:#A1B2A8;stroke:#0C2E2B;stroke-miterlimit:10;}
	.st62{fill:#FFF6E1;}
</style>
<g id="graphic_resume">
</g>
<g id="pallet">
	<g id="Skills">
		<g>
			<g>
				<rect x="1" y="1" class="st14" width="109" height="220"/>
				<path class="st5" d="M111,221H0V0h111V221z M1,220h109V1H1V220z"/>
			</g>
			<g>
				<rect x="110" y="1" class="st15" width="111" height="220"/>
				<path class="st5" d="M221,221H110V0h111V221z M111,220h109V1H111V220z"/>
			</g>
			<path class="st5" d="M0.8,205c0.4-0.3,0.8-0.7,1.3-0.9c1.2-0.6,2.5-1.1,3.6-1.8c1.1-0.6,2.2-1.4,3.2-2.2c1-0.8,1.1-2.5,0.3-3.5
				c-0.7-0.8-0.7-1.6-0.4-2.5c0.5-1.2,1-2.3,1.4-3.5c0.2-0.5,0.3-1,0.4-1.5c0.1-0.6,0.2-1.3,0.3-1.9c0.3-1.3,0.5-1.4,1.8-1.1
				c0.9,0.2,1.8,0.1,2.7,0.4c1.2,0.4,2.4,0.9,3.6,1.4c0.4,0.1,0.8,0.4,1.1,0.2c0.3-0.2,0.5-0.6,0.6-1c0.2-1.2-0.3-2.3-0.9-3.4
				c-0.4-0.7-0.7-1.5-0.7-2.3c-0.1-2.5-0.2-4.9-0.2-7.4c0-1.9-0.3-3.6-0.9-5.4c-0.4-1.2-0.7-2.3-1.1-3.5c-0.3-0.9-0.6-1.7-1-2.5
				c-1.3-2.8-1.1-5.6-0.2-8.5c0.1-0.4,0.2-0.9,0.3-1.3c0.1-0.5,0.2-1.1,0.4-1.6c1.5-2.9,2.4-6.1,4.3-8.7c1-1.3,2.2-2.5,3.5-3.5
				c2.8-2.2,5.7-4.2,8.6-6.2c0.8-0.5,1.7-0.9,2.6-1.2c2.8-0.9,5.6-1.7,8.6-2.1c1.4-0.2,2.9-0.1,4.3,0.3c1.6,0.4,3.3,0.3,5,0.4
				c0.9,0.1,1.9,0.1,2.8,0.3c3.3,1,6.6,2,9.7,3.2c2.5,1,4.9,2.4,7.3,3.7c0.4,0.2,0.8,0.5,1.3,0.7c1.6,0.5,2.6,1.6,3.6,2.9
				c0.7,0.9,1.4,1.8,2.2,2.5c0.8,0.7,1.7,1.4,2.5,2c0.4,0.3,0.5,0.5,0.1,0.9c-0.7,0.7-1.3,1.5-2,2.3c-0.5,0.5-0.6,1.2-0.5,1.9
				c0.5,3.7,1,7.4,1.5,11c0.1,1.1,0.2,2.1,0.3,3.2c0.1,1-0.2,1.8-1.2,2.4c-1.9,1.1-2.4,2.5-1.9,4.6c0.6,2.2,1.3,4.3,2.7,6.1
				c1.6,2.1,0.4,4.1-1.3,5c-0.6,0.3-1.3,0.5-2,0.7c-0.5,0.2-0.8,0.5-0.9,1c-0.2,1.6-0.6,3.2-0.9,4.7c-0.3,1.5-1.1,2.5-2.7,2.7
				c-1.5,0.1-1.5,0.6-0.7,1.6c1,1.2,0.8,2.3,0,3.4c-0.2,0.3-0.4,0.7-0.7,1c-0.7,1-0.9,2-0.5,3.3c0.5,1.4,0.5,3.1-0.4,4.4
				c-1,1.5-2.4,2.6-4.3,2.5c-1.5,0-2.9-0.1-4.4-0.1c-1,0-2,0.2-3,0.1c-1.2,0-2.4-0.1-3.6-0.2c-0.9-0.1-1.8-0.2-2.5,0.5
				c-0.6,0.6-0.7,1.3-0.2,2c0.6,0.7,1.2,1.4,1.7,2.2c0.5,0.8,0.9,1.6,1.5,2.4c0.7,0.9,1.4,1.6,2.2,2.5c0.1,0.1,0.3,0.2,0.5,0.2
				c1.8-0.1,3.3,0.8,4.6,1.9c0.2,0.1,0.2,0.5,0.4,0.7c-21.3,0-42.5,0-63.8,0C0.8,215.4,0.8,210.2,0.8,205z"/>
			<path class="st22" d="M219.7,220.8c-0.4-7.6-1-15.3-2.1-18.7c-2.4-7.4-7.2-9.8-9.6-12.1s-3-4-3-4s1.2-0.9,0-1.8
				c-0.7-0.5-1-0.3-1.3-0.1c0.3-1.3,0.3-6.1-3.3-23c-5-23-15.3-26.3-15.3-26.3c-4-3.6-16.7-4.4-24-4c-7.3,0.4-15.3,5.1-15.3,5.1
				c-2.5,0-4.5,4.4-5.8,6.9c-1.3,2.4,0,4.1,0,4.1c-4.1,3.8-4,17.1-3.7,18c0.3,0.8,0.3,2.1,0.5,4c0.3,1.9,0,2.2,0,2.2
				c-1.1,0.8-3.6,6.4-5,8.8c-1.5,2.4-0.2,4-0.2,4c0.6,1,2.2,1.6,3.6,1.7c1.4,0.1,2.4,1.9,2.4,1.9l-0.6,0.2c0,0-0.5,1.3,0.3,1.9
				c1.1,0.8,1.9,0.9,1.9,0.9l0.4,2c-4,1.6-0.6,4.1-0.6,4.1l0.9,2.6l0,2.3c0,0,0.6,4,4.6,4.6c4,0.6,6.6-0.3,6.6-0.3s4-1.5,5.5-1.5
				c1.5,0,4.7,8.8,4.7,8.8s1.7,3.9,1.6,7.7 M189.1,194.4c0,0,1.7-2.9,3-3.4s4.1-1.8,4.1-1.8s-1.1,1.6,0,1.9c1.1,0.2,1.8-0.5,1.8-0.5
				s0.2,6.1-1.9,10.8c-2.1,4.7-1,13.3-1,13.3l-4.3-7.7C190.8,207,188.8,195.9,189.1,194.4z"/>
			<g>
				<path class="st22" d="M206.6,98.1h-53.7c-2.2,0-4-1.8-4-4V88c0-2.2,1.8-4,4-4h53.7c2.2,0,4,1.8,4,4v6.2
					C210.6,96.3,208.8,98.1,206.6,98.1z"/>
				<path class="st23" d="M206.6,99.1h-53.7c-2.8,0-5-2.2-5-5V88c0-2.8,2.2-5,5-5h53.7c2.8,0,5,2.2,5,5v6.2
					C211.6,96.9,209.3,99.1,206.6,99.1z M152.9,85c-1.7,0-3,1.3-3,3v6.2c0,1.7,1.3,3,3,3h53.7c1.7,0,3-1.3,3-3V88c0-1.7-1.3-3-3-3
					H152.9z"/>
			</g>
			<g>
				<path class="st23" d="M153.5,75.8H17.7c-2.2,0-4-1.8-4-4V45.6c0-2.2,1.8-4,4-4h135.8c2.2,0,4,1.8,4,4v26.2
					C157.5,74,155.7,75.8,153.5,75.8z"/>
				<path class="st22" d="M153.5,76.8H17.7c-2.8,0-5-2.2-5-5V45.6c0-2.8,2.2-5,5-5h135.8c2.8,0,5,2.2,5,5v26.2
					C158.5,74.6,156.2,76.8,153.5,76.8z M17.7,42.6c-1.7,0-3,1.3-3,3v26.2c0,1.7,1.3,3,3,3h135.8c1.7,0,3-1.3,3-3V45.6
					c0-1.7-1.3-3-3-3H17.7z"/>
			</g>
			<g>
				<path class="st23" d="M122.9,115.6H17.7c-2.2,0-4-1.8-4-4V105c0-2.2,1.8-4,4-4h105.2c2.2,0,4,1.8,4,4v6.7
					C126.9,113.8,125.1,115.6,122.9,115.6z"/>
				<path class="st22" d="M122.9,116.6H17.7c-2.8,0-5-2.2-5-5V105c0-2.8,2.2-5,5-5h105.2c2.8,0,5,2.2,5,5v6.7
					C127.9,114.4,125.7,116.6,122.9,116.6z M17.7,102c-1.7,0-3,1.3-3,3v6.7c0,1.7,1.3,3,3,3h105.2c1.7,0,3-1.3,3-3V105
					c0-1.7-1.3-3-3-3H17.7z"/>
			</g>
			<g>
				<path class="st22" d="M204.6,30.1H16.3c-3.3,0-6-1.8-6-4v-6c0-2.2,2.7-4,6-4h188.3c3.3,0,6,1.8,6,4v6
					C210.6,28.3,207.9,30.1,204.6,30.1z"/>
				<path class="st23" d="M204.6,31.1H16.3c-3.9,0-7-2.2-7-5v-6c0-2.7,3.1-5,7-5h188.3c3.9,0,7,2.2,7,5v6
					C211.6,28.9,208.4,31.1,204.6,31.1z M16.3,17.2c-2.7,0-5,1.4-5,3v6c0,1.6,2.3,3,5,3h188.3c2.7,0,5-1.4,5-3v-6c0-1.6-2.3-3-5-3
					H16.3z"/>
			</g>
		</g>
	</g>
</g>
</svg>
