<?xml version="1.0" encoding="utf-8"?>
<!-- Generator: Adobe Illustrator 19.1.0, SVG Export Plug-In . SVG Version: 6.00 Build 0)  -->
<svg version="1.1" xmlns="http://www.w3.org/2000/svg" xmlns:xlink="http://www.w3.org/1999/xlink" x="0px" y="0px"
	 viewBox="0 0 220 220" style="enable-background:new 0 0 220 220;" xml:space="preserve">
<style type="text/css">
	.st0{fill:#F9EFED;}
	.st1{fill:#0C2E2B;stroke:#A8B301;stroke-width:3;stroke-miterlimit:10;}
	.st2{fill:none;stroke:#0C2E2B;stroke-width:3;stroke-miterlimit:10;}
	.st3{fill:#0C2E2B;}
	.st4{fill:#A8B301;}
	.st5{fill:#AD79A4;}
	.st6{fill:#E2C583;stroke:#E2C583;stroke-width:0.5;stroke-linejoin:round;stroke-miterlimit:10;}
	.st7{fill:#A1B2A8;}
	.st8{fill:#B1B277;}
	.st9{fill:#B28C7B;}
	.st10{fill:#EAB6AD;}
	.st11{fill:none;stroke:#FFFFFF;stroke-width:3;stroke-miterlimit:10;}
	.st12{fill:none;stroke:#FF4C4E;stroke-miterlimit:10;}
	.st13{fill:none;stroke:#A1B2A8;stroke-miterlimit:10;}
	.st14{fill:#FFFFFF;}
	.st15{fill:#FFEBBA;}
	.st16{fill:#7BA178;}
	.st17{fill:#A1BC9F;}
	.st18{fill:#FF4C4E;}
	.st19{fill:#9C4276;}
	.st20{fill:#EDDAD6;}
	.st21{fill:#EAB0A7;}
	.st22{fill:#653C5A;}
	.st23{fill:#F2DFEE;}
	.st24{fill:#FFFFFF;stroke:#E2C583;stroke-width:0.5;stroke-linecap:round;stroke-linejoin:round;stroke-miterlimit:10;}
	.st25{fill:none;stroke:#653C5A;stroke-width:2;stroke-miterlimit:10;}
	.st26{fill:none;stroke:#FF4C4E;stroke-width:2;stroke-miterlimit:10;}
	.st27{fill:#E2C583;}
	.st28{fill:none;stroke:#A8B301;stroke-width:2;stroke-miterlimit:10;}
	.st29{fill:none;stroke:#042311;stroke-width:2;stroke-miterlimit:10;}
	.st30{fill:#042311;}
	.st31{fill:#FFF6F5;}
	.st32{fill:#A1B2A8;stroke:#FFFFFF;stroke-miterlimit:10;}
	.st33{fill:#5B270D;}
	.st34{fill:none;stroke:#AD79A4;stroke-miterlimit:10;}
	.st35{fill:#FCFCFC;}
	.st36{fill:#3D281F;}
	.st37{fill:#34183A;}
	.st38{fill:#C19ABD;}
	.st39{fill:none;stroke:#FF4C4E;stroke-width:3;stroke-miterlimit:10;}
	.st40{fill:#E27479;}
	.st41{fill:#16514A;}
	.st42{fill:none;stroke:#653C5A;stroke-width:6;stroke-miterlimit:10;}
	.st43{fill:none;stroke:#EF898E;stroke-width:6;stroke-miterlimit:10;}
	.st44{fill:#EF898E;}
	.st45{fill:none;stroke:#A1B2A8;stroke-width:6;stroke-miterlimit:10;}
	.st46{fill:none;stroke:#16514A;stroke-width:6;stroke-miterlimit:10;}
	.st47{fill:none;stroke:#5B270D;stroke-miterlimit:10;}
	.st48{fill:#5B270D;stroke:#B28C7B;stroke-miterlimit:10;}
	.st49{fill:none;stroke:#AD79A4;stroke-linecap:round;stroke-miterlimit:10;}
	.st50{fill:#FCFCFC;stroke:#3D281F;stroke-miterlimit:10;}
	.st51{fill:#AD79A4;stroke:#34183A;stroke-miterlimit:10;}
	.st52{fill:none;stroke:#C19ABD;stroke-linecap:round;stroke-miterlimit:10;}
	.st53{fill:none;stroke:#F9EFED;stroke-width:3;stroke-miterlimit:10;}
	.st54{fill:none;stroke:#E2E2E2;stroke-width:3;stroke-miterlimit:10;}
	.st55{fill:none;stroke:#0C2E2B;stroke-miterlimit:10;}
	.st56{fill:none;stroke:#0C2E2B;stroke-width:2;stroke-miterlimit:10;}
	.st57{fill:#EAB6AD;stroke:#0C2E2B;stroke-miterlimit:10;}
	.st58{fill:#AD79A4;stroke:#0C2E2B;stroke-miterlimit:10;}
	.st59{fill:#E2C583;stroke:#0C2E2B;stroke-width:0.5;stroke-linejoin:round;stroke-miterlimit:10;}
	.st60{fill:#B1B277;stroke:#0C2E2B;stroke-miterlimit:10;}
	.st61{fill:#A1B2A8;stroke:#0C2E2B;stroke-miterlimit:10;}
	.st62{fill:#FFF6E1;}
</style>
<g id="graphic_resume">
</g>
<g id="pallet">
	<g id="Skills">
		<g>
			<g>
				<path class="st7" d="M2.3,218.5l216.6-216v215.8H1.8 M0,219.3h219.8V0.1L0,219.3L0,219.3z"/>
				<polygon class="st27" points="220.8,0.3 0.8,0.3 0.8,219.9 				"/>
			</g>
			<g>
				<path class="st14" d="M163.9,55.9c13.7,13.7,22.2,32.7,22.2,53.7c0,42-34,76-76,76c-21,0-40.1-8.5-53.8-22.4L0,219.3h219.8V0.1
					L163.9,55.9z"/>
				<path class="st14" d="M110.1,33.6c-42,0-76,34-76,76c0,20.9,8.5,39.9,22.2,53.6L163.9,55.9C150.1,42.1,131.1,33.6,110.1,33.6z"
					/>
				<path class="st7" d="M110.1,185.6c42,0,76-34,76-76c0-21-8.5-39.9-22.2-53.7L56.3,163.2C70,177,89.1,185.6,110.1,185.6z"/>
			</g>
			<g>
				<g>
					<path class="st42" d="M146,157c24.2-17.9,31.6-51.4,16.2-78.1"/>
					<g>
						<polygon class="st22" points="161.6,158.8 147.5,156 150.3,141.9 143.1,146.6 140.3,160.7 154.4,163.6 						"/>
					</g>
				</g>
			</g>
			<g>
				<g>
					<path class="st43" d="M61.7,144.9c17.9,24.2,51.4,31.6,78.1,16.2"/>
					<g>
						<polygon class="st44" points="59.8,160.4 62.7,146.3 76.8,149.2 72,142 57.9,139.1 55,153.2 						"/>
					</g>
				</g>
			</g>
			<g>
				<path class="st14" d="M9.7,24.7c1.8,2.9,3.9,5.6,6.4,8c8.5,8.2,20.3,12.7,33.4,12.6l0.6-3.9C24.9,41.5,6.9,23.9,8,0.5L3.8,0.9
					C3.4,9.6,5.4,17.8,9.7,24.7z"/>
				<g>
					<polygon class="st14" points="40.6,50.4 48.5,43.4 42,37.1 48.1,36.8 54.5,43.1 46.7,50.1 					"/>
				</g>
			</g>
			<g>
				<path class="st27" d="M163,201.1c2.8,2.5,6,4.6,9.4,6.4c11.6,5.9,25.4,7,38.8,3l-0.8-4.3c-25.7,7.7-50.6-5.1-57.8-29.8l-4.2,1.7
					C151.1,187.3,156.2,195.1,163,201.1z"/>
				<g>
					<polygon class="st27" points="204,218.4 209.6,208.7 200.7,204.1 206.8,202 215.7,206.6 210.1,216.2 					"/>
				</g>
			</g>
			<g>
				<g>
					<path class="st45" d="M73.5,61.6c-24.2,17.9-31.6,51.4-16.2,78.1"/>
					<g>
						<polygon class="st7" points="57.9,59.8 72,62.6 69.2,76.7 76.4,72 79.2,57.9 65.1,55 						"/>
					</g>
				</g>
			</g>
			<g>
				<g>
					<path class="st46" d="M157.4,73C139.5,48.9,106,41.5,79.3,56.8"/>
					<g>
						<polygon class="st41" points="159.3,57.5 156.4,71.6 142.3,68.7 147.1,75.9 161.2,78.8 164,64.7 						"/>
					</g>
				</g>
			</g>
		</g>
		<g>
			<path class="st27" d="M218.8,1v218H1V1H218.8 M219.8,0H0v220h219.8V0L219.8,0z"/>
		</g>
	</g>
</g>
</svg>
