<?xml version="1.0" encoding="utf-8"?>
<!-- Generator: Adobe Illustrator 19.1.0, SVG Export Plug-In . SVG Version: 6.00 Build 0)  -->
<svg version="1.1" xmlns="http://www.w3.org/2000/svg" xmlns:xlink="http://www.w3.org/1999/xlink" x="0px" y="0px"
	 viewBox="0 0 224 225" style="enable-background:new 0 0 224 225;" xml:space="preserve">
<style type="text/css">
	.st0{fill:#F9EFED;}
	.st1{fill:#0C2E2B;stroke:#A8B301;stroke-width:3;stroke-miterlimit:10;}
	.st2{fill:none;stroke:#0C2E2B;stroke-width:3;stroke-miterlimit:10;}
	.st3{fill:#0C2E2B;}
	.st4{fill:#A8B301;}
	.st5{fill:#AD79A4;}
	.st6{fill:#E2C583;stroke:#E2C583;stroke-width:0.5;stroke-linejoin:round;stroke-miterlimit:10;}
	.st7{fill:#A1B2A8;}
	.st8{fill:#B1B277;}
	.st9{fill:#B28C7B;}
	.st10{fill:#EAB6AD;}
	.st11{fill:none;stroke:#FFFFFF;stroke-width:3;stroke-miterlimit:10;}
	.st12{fill:none;stroke:#FF4C4E;stroke-miterlimit:10;}
	.st13{fill:none;stroke:#A1B2A8;stroke-miterlimit:10;}
	.st14{fill:#FFFFFF;}
	.st15{fill:#FFEBBA;}
	.st16{fill:#7BA178;}
	.st17{fill:#A1BC9F;}
	.st18{fill:#FF4C4E;}
	.st19{fill:#9C4276;}
	.st20{fill:#EDDAD6;}
	.st21{fill:#EAB0A7;}
	.st22{fill:#653C5A;}
	.st23{fill:#F2DFEE;}
	.st24{fill:#FFFFFF;stroke:#E2C583;stroke-width:0.5;stroke-linecap:round;stroke-linejoin:round;stroke-miterlimit:10;}
	.st25{fill:none;stroke:#653C5A;stroke-width:2;stroke-miterlimit:10;}
	.st26{fill:none;stroke:#FF4C4E;stroke-width:2;stroke-miterlimit:10;}
	.st27{fill:#E2C583;}
	.st28{fill:none;stroke:#A8B301;stroke-width:2;stroke-miterlimit:10;}
	.st29{fill:none;stroke:#042311;stroke-width:2;stroke-miterlimit:10;}
	.st30{fill:#042311;}
	.st31{fill:#FFF6F5;}
	.st32{fill:#A1B2A8;stroke:#FFFFFF;stroke-miterlimit:10;}
	.st33{fill:#5B270D;}
	.st34{fill:none;stroke:#AD79A4;stroke-miterlimit:10;}
	.st35{fill:#FCFCFC;}
	.st36{fill:#3D281F;}
	.st37{fill:#34183A;}
	.st38{fill:#C19ABD;}
	.st39{fill:none;stroke:#FF4C4E;stroke-width:3;stroke-miterlimit:10;}
	.st40{fill:#E27479;}
	.st41{fill:#16514A;}
	.st42{fill:none;stroke:#FFFFFF;stroke-miterlimit:10;}
	.st43{fill:none;stroke:#653C5A;stroke-width:6;stroke-miterlimit:10;}
	.st44{fill:none;stroke:#EF898E;stroke-width:6;stroke-miterlimit:10;}
	.st45{fill:#EF898E;}
	.st46{fill:none;stroke:#A1B2A8;stroke-width:6;stroke-miterlimit:10;}
	.st47{fill:none;stroke:#16514A;stroke-width:6;stroke-miterlimit:10;}
	.st48{fill:none;stroke:#5B270D;stroke-miterlimit:10;}
	.st49{fill:#5B270D;stroke:#B28C7B;stroke-miterlimit:10;}
	.st50{fill:none;stroke:#AD79A4;stroke-linecap:round;stroke-miterlimit:10;}
	.st51{fill:#FCFCFC;stroke:#3D281F;stroke-miterlimit:10;}
	.st52{fill:#AD79A4;stroke:#34183A;stroke-miterlimit:10;}
	.st53{fill:none;stroke:#C19ABD;stroke-linecap:round;stroke-miterlimit:10;}
	.st54{fill:none;stroke:#F9EFED;stroke-width:3;stroke-miterlimit:10;}
	.st55{fill:none;stroke:#E2E2E2;stroke-width:3;stroke-miterlimit:10;}
	.st56{fill:none;stroke:#0C2E2B;stroke-miterlimit:10;}
	.st57{fill:none;stroke:#0C2E2B;stroke-width:2;stroke-miterlimit:10;}
	.st58{fill:#EAB6AD;stroke:#0C2E2B;stroke-miterlimit:10;}
	.st59{fill:#AD79A4;stroke:#0C2E2B;stroke-miterlimit:10;}
	.st60{fill:#E2C583;stroke:#0C2E2B;stroke-width:0.5;stroke-linejoin:round;stroke-miterlimit:10;}
	.st61{fill:#B1B277;stroke:#0C2E2B;stroke-miterlimit:10;}
	.st62{fill:#A1B2A8;stroke:#0C2E2B;stroke-miterlimit:10;}
	.st63{fill:#FFF6E1;}
</style>
<g id="graphic_resume">
</g>
<g id="pallet">
	<g id="Skills">
		<g>
			<g>
				<rect x="74" y="1" class="st15" width="149" height="224"/>
				<path class="st5" d="M224,225H74V0h150V225z M224,126V1H76v223h148V126"/>
			</g>
			<g>
				<rect x="1" y="1" class="st14" width="75" height="224"/>
				<path class="st5" d="M77,225H0V0h77V225z M1,224h75V1H1V224z"/>
			</g>
			<g>
				<g id="XMLID_2_">
					<g>
						<path class="st33" d="M194.7,126.3c2.4,4.8,4.7,11.4,3.9,15.9c-1.2,7-6.1,13.8-7.3,14.8c-1.2,1-4.9,6.7-4.9,6.7
							s-10.9,3.9-29.1,3.9h-0.4c-18.2,0-29.1-3.9-29.1-3.9s-3.8-5.7-4.9-6.8c-1.2-1-6.1-7.8-7.3-14.8c-0.7-4.5,1.5-10.8,3.8-15.7
							c1.5,0.6,17.7,1.1,37.4,1.1c20.7,0,37.5-0.5,37.5-1.2L194.7,126.3z"/>
						<path class="st14" d="M188.4,9.5l10,13.3l-5.2,13c-6.4-0.4-18.4-0.7-32.3-0.7C174.4,22.7,188.4,9.5,188.4,9.5z"/>
						<path class="st48" d="M156.8,125.2c20.7,0,37.5,0.5,37.5,1.2c0,0.7-16.8,1.2-37.5,1.2c-19.8,0-35.9-0.5-37.4-1.1
							c0-0.1,0.1-0.1,0.1-0.2C121.5,125.7,137.5,125.2,156.8,125.2z"/>
						<path class="st14" d="M193.2,35.8l-0.5,1.4c-7,0.4-19.9,0.7-34.7,0.7c1-0.9,2-1.8,3-2.7C174.9,35.2,186.8,35.4,193.2,35.8z"/>
						<path class="st14" d="M192.7,37.2l-14.5,36.5l-0.3-0.1c0-0.7-9.1-1.2-20.3-1.2c-11.2,0-20.3,0.5-20.3,1.2l-0.2,0.1l-5.5-13.5
							l2.7-2.3c0.8-0.5,1.7-1.2,3-1.9c2.5-1.6,11.2-9.3,20.8-18.1C172.7,37.9,185.6,37.6,192.7,37.2z"/>
						<path class="st33" d="M178.1,73.7l-0.5,1.2l-12,30.2l-14.9,2.4L137,73.7l0.2-0.1c0,0.7,9.1,1.2,20.3,1.2
							c11.2,0,20.3-0.5,20.3-1.2L178.1,73.7z"/>
						<path class="st49" d="M157.5,72.4c11.2,0,20.3,0.5,20.3,1.2c0,0.7-9.1,1.2-20.3,1.2c-11.2,0-20.3-0.5-20.3-1.2
							C137.2,72.9,146.3,72.4,157.5,72.4z"/>
						<path class="st14" d="M160.6,35.1L160.6,35.1c-1.2,0-2.4,0-3.6,0c-15,0-28.1,0.3-35.4,0.7l-6-14.8L134,9.5L160.6,35.1z"/>
						<path class="st14" d="M160.6,35.1l-3.2,2.7c-0.1,0-0.3,0-0.4,0c-14.6,0-27.4-0.2-34.8-0.6l-0.6-1.5c7.3-0.4,20.4-0.7,35.4-0.7
							C158.2,35.1,159.4,35.1,160.6,35.1z"/>
						<path class="st14" d="M157.4,37.9l-23.2,20c-2.4,1.6-2.7,2.1-2.7,2.3l-9.3-22.9c7.4,0.4,20.2,0.6,34.8,0.6
							C157.1,37.9,157.3,37.9,157.4,37.9z"/>
						<path class="st14" d="M134.2,57.9l-2.7,2.3l0,0v0C131.5,60,131.8,59.5,134.2,57.9z"/>
						<path class="st14" d="M131.5,60.1L131.5,60.1C131.5,60.2,131.5,60.2,131.5,60.1z"/>
						<path class="st14" d="M119.5,126.3c0,0.1-0.1,0.1-0.1,0.2c-0.1,0-0.1-0.1-0.1-0.1C119.3,126.4,119.4,126.3,119.5,126.3z"/>
					</g>
					<g>
						<polyline class="st34" points="131.5,60.1 122.2,37.2 121.6,35.8 115.6,20.9 134,9.5 160.6,35.1 						"/>
						<path class="st34" d="M131.5,60.2C131.5,60.2,131.5,60.2,131.5,60.2L131.5,60.2c0-0.2,0.3-0.7,2.7-2.3c0.8-0.5,1.7-1.2,3-1.9
							c2.5-1.6,11.2-9.3,20.8-18.1c1-0.9,2-1.8,3-2.7c13.5-12.4,27.5-25.6,27.5-25.6l10,13.3l-5.2,13l-0.5,1.4l-14.5,36.5l-0.5,1.2
							l-12,30.2l-14.9,2.4L137,73.7L131.5,60.2L131.5,60.2"/>
						<path class="st34" d="M121.6,35.8c-3.8,0.2-6,0.4-6,0.7c0,0,0,0,0.1,0.1c0.1,0.1,0.5,0.2,1,0.2c1.1,0.2,3,0.3,5.5,0.4
							c7.4,0.4,20.2,0.6,34.8,0.6c0.1,0,0.3,0,0.4,0c0.2,0,0.3,0,0.5,0c14.8,0,27.7-0.3,34.7-0.7c2.6-0.1,4.4-0.3,5.2-0.5
							c0.3-0.1,0.5-0.1,0.5-0.2c0-0.2-1.9-0.5-5.2-0.7c-6.4-0.4-18.4-0.7-32.3-0.7c-0.1,0-0.2,0-0.3,0c-1.2,0-2.4,0-3.6,0
							C142,35.1,128.9,35.4,121.6,35.8z"/>
						<path class="st50" d="M198.6,36.7C198.6,36.7,198.6,36.7,198.6,36.7c-0.3,0.5-13.4,24.8-19.1,39c-1.6,4-2.7,7.2-2.7,8.8
							c0,7.4,12.2,33,14.5,36c0.8,1.1,2.1,3.2,3.3,5.7c2.4,4.8,4.7,11.4,3.9,15.9c-1.2,7-6.1,13.8-7.3,14.8c-1.2,1-4.9,6.7-4.9,6.7
							s-10.9,3.9-29.1,3.9h-0.4c-18.2,0-29.1-3.9-29.1-3.9s-3.8-5.7-4.9-6.8c-1.2-1-6.1-7.8-7.3-14.8c-0.7-4.5,1.5-10.8,3.8-15.7
							c0-0.1,0.1-0.1,0.1-0.2c1.3-2.6,2.5-4.7,3.3-5.8c2.3-3.1,14.5-28.6,14.5-36c0-7.4-21.8-47.8-21.8-47.8"/>
					</g>
				</g>
			</g>
			<path class="st9" d="M127.9,136.5c1.1,0.2,3.4,6.1,5,7.9c1.6,1.8,4.8,13.3,8.3,14.7c3.5,1.4,2.7,5.9,1.3,5.9s-9.8,2.3-11.7,0
				c-1.8-2.3-12-19.1-11.1-21.5c0.9-2.5,3.3-8.6,3.3-8.6L127.9,136.5z"/>
			<path class="st51" d="M141,197.3c-0.3,5.8,1.5,10.1,6.3,13c13.8,8.1,27.5,6.6,41.1-0.2c1.8-0.9,4-3.8,4.1-5.9
				c0.2-4.9,2.7-6.3,6.2-7.2c1-0.3,2-0.6,2.9-1c7.7-3.5,12.3-11.9,11.6-21.3c-0.7-9.7-4.2-14.1-14.1-15.8c-4.6-0.8-5.9-2.7-4.5-7.4
				c0.3-1.1,0.4-2.3,0.7-3.4c1.5-5.9,0.8-8.6-4.5-10.2c-6-1.9-12.3-3.4-18.5-3.8c-9.8-0.7-19.7-0.3-29,4.1c-3.4,1.6-4.3,4.4-3.9,8.4
				c1.1,8.8,1.9,17.6,2.8,25.4C141.7,181.1,141.3,189.2,141,197.3z M148.1,148.4c-1.8-0.5-3.2-2.9-4.8-4.4c1.5-1.5,2.8-3.9,4.6-4.5
				c12.8-4.5,25.7-4.5,38.5-0.1c1.9,0.6,3.3,3.1,5,4.7c-1.6,1.5-3,3.9-4.9,4.3c-6.5,1.7-13.2,2.7-19.8,4
				C160.4,151.1,154.1,150.1,148.1,148.4z M192.3,174.1c0.5-1.8,1-4.7,2.1-5.1c1.6-0.6,4.1-0.1,5.6,1c5.2,4,4.2,14.2-1.5,16.9
				c-3.8,1.8-6.2,0.1-6.3-4.4c0-1.5,0-3,0-4.4C192.2,176.7,191.9,175.3,192.3,174.1z"/>
			<g>
				<path class="st52" d="M97.4,97.4c0,0,4.5,1.6,4.8,12.3c0,0,6.3,7.3,3.8,17.9c0,0,6.2,6.1,4.6,15c0,0-1.3,3.1-0.1,5.1
					s2.1,2.4,2.1,2.4v0.9c0,0,24.5,2.2,25.6-24.1s20.5-34.4,20.5-34.4l7.1,4c0,0-20.6,4-21.6,29.5c-1,25.4-28.4,32.1-28.4,32.1
					l-1.4,1.6c0,0,1.7,1.9,0.6,3.4c-1.1,1.5-2.9,7.8-26.1,8.5s-40.6-1-48.9-6.6s-2.5-8.8-2.5-8.8s0-9.6,2.7-12.3
					c0,0,0.7-11.7,5.2-17.8c0,0-0.7-9.3,1.7-14.5s2.8-12,2.8-12s-2-3.9-3.4-3.9c-1.4,0-2,2.2-2,2.2s-1.7,1.2-2.9-0.9
					c-1.3-2.1-2-5.7-3.8-4.8c-1.8,0.9-3.4,7.9-4.9,9.3c-1.5,1.3-6,4.6-7,6.1c-1,1.5-0.1,6.3-4.3,9s-5.6,3-5.7,4.8
					c-0.1,1.8,1.5,5.2,0,5.5s-5.2,3.4-7.4,1.2c-2.2-2.2-2.5-4-1.5-6.6s4.3-6.4,7.4-8.8c3.1-2.4,2.8-6.7,5.6-9.6
					c2.8-2.8,5.9-4.9,6.4-6.6s2.2-8.2,6.4-11.1c4.2-2.8,11.7-0.4,13.1,0c1.4,0.4,3.5,2.5,3.5,3s-0.3,2.7-0.3,2.7l3.6,2.7l0.6,1.6
					l1.4-0.1l-1-1.6l1.5-3.3l14.1,0.6l2.1-0.7l0.4-3.4c0,0-5-3-6.3-8.2l21.5-0.6c0,0-5.3,7.9-7.3,8.5v5.7h16.7l2.5,2.4l-1,1.8
					L97.4,97.4z"/>
				<g>
					<path class="st38" d="M53.1,96.2c0,0,0.6,0.1,1.7,0.2c0.5,0.1,1.2,0.1,2,0.2c0.4,0,0.8,0,1.2,0.1c0.4,0,0.9,0.1,1.3,0.2
						c1.9,0.2,4,0.5,6.4,0.7c2.3,0.2,4.8,0.3,7.3,0.4c2.5,0.1,5,0.1,7.3,0.1c2.3,0,4.5-0.1,6.4-0.2c0.5,0,0.9-0.1,1.3-0.1
						c0.4,0,0.8,0,1.2,0c0.8,0,1.4,0,2-0.1c1.1-0.1,1.7-0.1,1.7-0.1s-0.6,0.2-1.7,0.5c-0.5,0.1-1.2,0.3-1.9,0.4
						c-0.8,0.1-1.6,0.3-2.6,0.3c-1.9,0.1-4.1,0.2-6.4,0.2c-2.4,0-4.9,0-7.4-0.1c-2.5-0.1-5-0.2-7.4-0.4c-2.3-0.2-4.5-0.4-6.4-0.7
						c-0.5-0.1-0.9-0.1-1.3-0.2c-0.4-0.1-0.8-0.2-1.2-0.3c-0.7-0.2-1.4-0.4-1.9-0.5C53.7,96.4,53.1,96.2,53.1,96.2z"/>
				</g>
				<path class="st38" d="M52.2,104.9c0.4-0.1,0.6,3.5,3.1,4.9s-0.6,2.8-3.1,0.7C49.7,108.5,52.2,104.9,52.2,104.9z"/>
				<path class="st38" d="M49,120.8c0.4-0.1,0.6,3.7,3.2,5.1s-0.6,2.9-3.2,0.8C46.4,124.6,49,120.8,49,120.8z"/>
				<path class="st38" d="M42.1,151.8c0.8-0.2,1.2,4.9,6,6.7c4.8,1.9-1.2,3.8-6,1C37.3,156.7,42.1,151.8,42.1,151.8z"/>
				<path class="st38" d="M45.1,135.7c0.6-0.2,0.9,3.8,4.5,5.3c3.6,1.5-0.9,3-4.5,0.8C41.5,139.6,45.1,135.7,45.1,135.7z"/>
				<path class="st53" d="M107.5,151.7c-1.6,2.5-0.2,5.4,1,5.9"/>
			</g>
		</g>
		<rect x="223" y="0" class="st5" width="1.4" height="227.6"/>
	</g>
</g>
</svg>
