<?xml version="1.0" encoding="utf-8"?>
<!-- Generator: Adobe Illustrator 19.1.0, SVG Export Plug-In . SVG Version: 6.00 Build 0)  -->
<svg version="1.1" xmlns="http://www.w3.org/2000/svg" xmlns:xlink="http://www.w3.org/1999/xlink" x="0px" y="0px"
	 viewBox="0 0 220.8 220.3" style="enable-background:new 0 0 220.8 220.3;" xml:space="preserve">
<style type="text/css">
	.st0{fill:#F9EFED;}
	.st1{fill:#0C2E2B;stroke:#A8B301;stroke-width:3;stroke-miterlimit:10;}
	.st2{fill:none;stroke:#0C2E2B;stroke-width:3;stroke-miterlimit:10;}
	.st3{fill:#0C2E2B;}
	.st4{fill:#A8B301;}
	.st5{fill:#AD79A4;}
	.st6{fill:#E2C583;stroke:#E2C583;stroke-width:0.5;stroke-linejoin:round;stroke-miterlimit:10;}
	.st7{fill:#A1B2A8;}
	.st8{fill:#B1B277;}
	.st9{fill:#B28C7B;}
	.st10{fill:#EAB6AD;}
	.st11{fill:none;stroke:#FFFFFF;stroke-width:3;stroke-miterlimit:10;}
	.st12{fill:none;stroke:#FF4C4E;stroke-miterlimit:10;}
	.st13{fill:none;stroke:#A1B2A8;stroke-miterlimit:10;}
	.st14{fill:#FFFFFF;}
	.st15{fill:#FFEBBA;}
	.st16{fill:#7BA178;}
	.st17{fill:#A1BC9F;}
	.st18{fill:#FF4C4E;}
	.st19{fill:#9C4276;}
	.st20{fill:#EDDAD6;}
	.st21{fill:#EAB0A7;}
	.st22{fill:#653C5A;}
	.st23{fill:#F2DFEE;}
	.st24{fill:#FFFFFF;stroke:#E2C583;stroke-width:0.5;stroke-linecap:round;stroke-linejoin:round;stroke-miterlimit:10;}
	.st25{fill:none;stroke:#653C5A;stroke-width:2;stroke-miterlimit:10;}
	.st26{fill:none;stroke:#FF4C4E;stroke-width:2;stroke-miterlimit:10;}
	.st27{fill:#E2C583;}
	.st28{fill:none;stroke:#A8B301;stroke-width:2;stroke-miterlimit:10;}
	.st29{fill:none;stroke:#042311;stroke-width:2;stroke-miterlimit:10;}
	.st30{fill:#042311;}
	.st31{fill:#FFF6F5;}
	.st32{fill:#A1B2A8;stroke:#FFFFFF;stroke-miterlimit:10;}
	.st33{fill:#5B270D;}
	.st34{fill:none;stroke:#AD79A4;stroke-miterlimit:10;}
	.st35{fill:#FCFCFC;}
	.st36{fill:#3D281F;}
	.st37{fill:#34183A;}
	.st38{fill:#C19ABD;}
	.st39{fill:none;stroke:#FF4C4E;stroke-width:3;stroke-miterlimit:10;}
	.st40{fill:#E27479;}
	.st41{fill:#16514A;}
	.st42{fill:none;stroke:#FFFFFF;stroke-miterlimit:10;}
	.st43{fill:none;stroke:#653C5A;stroke-width:6;stroke-miterlimit:10;}
	.st44{fill:none;stroke:#EF898E;stroke-width:6;stroke-miterlimit:10;}
	.st45{fill:#EF898E;}
	.st46{fill:none;stroke:#A1B2A8;stroke-width:6;stroke-miterlimit:10;}
	.st47{fill:none;stroke:#16514A;stroke-width:6;stroke-miterlimit:10;}
	.st48{fill:none;stroke:#5B270D;stroke-miterlimit:10;}
	.st49{fill:#5B270D;stroke:#B28C7B;stroke-miterlimit:10;}
	.st50{fill:none;stroke:#AD79A4;stroke-linecap:round;stroke-miterlimit:10;}
	.st51{fill:#FCFCFC;stroke:#3D281F;stroke-miterlimit:10;}
	.st52{fill:#AD79A4;stroke:#34183A;stroke-miterlimit:10;}
	.st53{fill:none;stroke:#C19ABD;stroke-linecap:round;stroke-miterlimit:10;}
	.st54{fill:none;stroke:#F9EFED;stroke-width:3;stroke-miterlimit:10;}
	.st55{fill:none;stroke:#E2E2E2;stroke-width:3;stroke-miterlimit:10;}
	.st56{fill:none;stroke:#0C2E2B;stroke-miterlimit:10;}
	.st57{fill:none;stroke:#0C2E2B;stroke-width:2;stroke-miterlimit:10;}
	.st58{fill:#EAB6AD;stroke:#0C2E2B;stroke-miterlimit:10;}
	.st59{fill:#AD79A4;stroke:#0C2E2B;stroke-miterlimit:10;}
	.st60{fill:#E2C583;stroke:#0C2E2B;stroke-width:0.5;stroke-linejoin:round;stroke-miterlimit:10;}
	.st61{fill:#B1B277;stroke:#0C2E2B;stroke-miterlimit:10;}
	.st62{fill:#A1B2A8;stroke:#0C2E2B;stroke-miterlimit:10;}
	.st63{fill:#FFF6E1;}
</style>
<g id="graphic_resume">
</g>
<g id="pallet">
	<g id="Skills">
		<g>
			<polygon class="st14" points="0.8,0.3 0.8,219.8 220.8,0.3 			"/>
			<path class="st7" d="M218.4,1.3L1.8,217.4V1.3h217 M220.8,0.3H0.8v219.6L220.8,0.3L220.8,0.3z"/>
			<polygon class="st15" points="171.8,20.3 48.8,20.3 48.8,171.2 171.8,47.7 			"/>
			<path class="st16" d="M47.8,172.4V20.3h125V48L47.8,172.4z M48.8,21.3v148.7l123-122.4V21.3H48.8z"/>
			<polygon class="st7" points="1,219.8 220.8,219.8 220.8,0 			"/>
			<path class="st17" d="M197.3,174.8h-6.8c-5.1,0-9.3-4.2-9.3-9.3v-29.6c0-5.1,4.2-9.3,9.3-9.3h6.8c5.1,0,9.3,4.2,9.3,9.3v29.6
				C206.6,170.6,202.4,174.8,197.3,174.8z"/>
			<path class="st14" d="M197.3,175.3h-6.8c-5.4,0-9.8-4.4-9.8-9.8v-29.6c0-5.4,4.4-9.8,9.8-9.8h6.8c5.4,0,9.8,4.4,9.8,9.8v29.6
				C207.1,170.9,202.7,175.3,197.3,175.3z M190.5,127.2c-4.8,0-8.8,3.9-8.8,8.8v29.6c0,4.8,3.9,8.8,8.8,8.8h6.8
				c4.8,0,8.8-3.9,8.8-8.8v-29.6c0-4.8-3.9-8.8-8.8-8.8H190.5z"/>
			<rect x="192.8" y="127.3" class="st14" width="1" height="14"/>
			<rect x="180.8" y="141.3" class="st14" width="26" height="1"/>
			<rect x="25.9" y="53.4" class="st15" width="7.6" height="42.8"/>
			<path class="st16" d="M34,96.7h-8.6V52.9H34V96.7z M26.4,95.7H33V53.9h-6.6V95.7z"/>
			<path class="st15" d="M30.7,105.7h-2c-1.5,0-2.8-1.2-2.8-2.8v-4.8h7.6v4.8C33.5,104.4,32.2,105.7,30.7,105.7z"/>
			<path class="st16" d="M30.7,106.2h-2c-1.8,0-3.3-1.5-3.3-3.3v-5.3H34v5.3C34,104.7,32.5,106.2,30.7,106.2z M26.4,98.6v4.3
				c0,1.3,1,2.3,2.3,2.3h2c1.3,0,2.3-1,2.3-2.3v-4.3H26.4z"/>
			<polygon class="st15" points="25.9,52.3 29.6,41.9 33.3,52.3 			"/>
			<path class="st16" d="M34,52.3h-8.9l4.4-12.3L34,52.3z M26.6,51.3h6l-3-8.4L26.6,51.3z"/>
			<path class="st16" d="M29.9,46.2c-0.6,0-1.3-0.4-2.1-1.2l0.7-0.7c0.6,0.6,1.1,0.9,1.4,0.9c0.3-0.1,0.5-0.6,0.5-0.6l1,0.3
				c0,0.1-0.3,1-1.2,1.3C30.2,46.2,30.1,46.2,29.9,46.2z"/>
			<rect x="27.8" y="53.3" class="st16" width="1" height="43"/>
			<rect x="30.8" y="53.3" class="st16" width="1" height="43"/>
			<rect x="12.4" y="115.1" class="st15" width="24.6" height="16.4"/>
			<path class="st16" d="M37.6,132.1H11.9v-17.4h25.6V132.1z M12.9,131.1h23.6v-15.4H12.9V131.1z"/>
			<polygon class="st16" points="34.1,136.7 9,136.7 9,119.7 10,119.7 10,135.7 34.1,135.7 			"/>
			
				<rect x="35.1" y="131.1" transform="matrix(0.8393 0.5436 -0.5436 0.8393 78.4792 2.1738)" class="st16" width="1" height="5.5"/>
			
				<rect x="10.4" y="131.1" transform="matrix(0.8393 0.5436 -0.5436 0.8393 74.5236 15.5574)" class="st16" width="1" height="5.5"/>
			
				<rect x="10.4" y="114.8" transform="matrix(0.8646 0.5025 -0.5025 0.8646 60.552 10.4663)" class="st16" width="1" height="5.6"/>
			<path class="st16" d="M162.8,52.4l-11.7,1.1c0,0-0.1,0-0.1,0l-13.6,0.2l-27.3,0.1l-13.6-0.1c0,0-0.1,0-0.1,0l-13.3-1.2
				c0,0,0,0-0.1,0l-13.4-0.4c-4.5,0-7.9-0.3-12.5-0.2c-0.1,0-0.6-0.5-0.6-0.6l-0.6-0.6l-0.7-24.7c0-0.2,0.1-0.4,0.3-0.4L83,25.2
				l27.3-0.1l13.6,0c4.5,0,9.1,0,13.6,0.1l27.3,0.3c0.1,0,0.3,0.2,0.3,0.4c0,9.1-0.9,16.1-1,25.1c0,0-0.1,0.2-0.1,0.5
				C163.7,52,163.3,52.3,162.8,52.4z M163.4,53.7c0.7,0,1.3-0.6,1.3-1.3c-0.1-8.6-0.2-18-0.3-26.6l0.3,0.4l-27.3,0.3
				c-4.5,0.1-9.1,0.1-13.6,0.1l-13.6,0L83,26.5l-26.4,0.4l0.3-0.4l-2,24.8c0,0.5,0.3,0.9,0.7,1.1l0.4,0.1c0.5,0.2,1.1,0.3,1.6,0.3
				c4.1,0,7.5,0,11.7,0c0.1,0,0.1,0,0.2,0l11.4,0.2c0.1,0,2.1,0.7,2.2,0.7l14.4,0.6l12.4,0.4l27.2-0.4l14.3-0.1L163.4,53.7z"/>
			<g>
				<path class="st16" d="M162.8,52.4l-6.6,0.6l-3.3,0.3l-1.7,0.2c-0.6,0-1.1,0-1.7,0l-13.3,0.3L122.9,54l-13.3,0.1l-6.7-0.1
					c-2.2,0-4.4,0-6.7-0.1L83,52.8l-13.3-0.5c-2.2,0-4.4-0.1-6.7-0.2L59.7,52l-1.7,0l-0.4,0l-0.2,0c-0.1,0-0.1,0-0.3,0
					c-0.1-0.1-0.2-0.2-0.3-0.3c-0.1-0.1-0.2-0.2-0.3-0.4l0,0.1L56,50.7l0,0l0-0.1l-0.6-20.2l-0.1-2.5l0-1.3l0-0.6
					c0-0.2,0-0.7,0.6-0.7l5.1-0.1l10.1-0.2L81,24.8c3.4-0.1,6.7-0.1,10.1-0.1l20.2-0.1l20.2,0.1c3.4,0,6.7,0,10.1,0.1l10.1,0.2
					l10.1,0.2l2.5,0.1l0.2,0c0,0,0.2,0,0.3,0.1c0.2,0.1,0.2,0.3,0.2,0.4c0,0.3,0,0.4,0,0.7l0,1.3c0,1.7-0.1,3.4-0.2,5.1l-0.6,10.1
					c-0.1,1.7-0.2,3.4-0.2,5.1l-0.1,2.5c0,0.2,0,0.4,0,0.6c-0.1,0.2-0.1,0.4-0.2,0.6C163.7,52.1,163.3,52.4,162.8,52.4z M162.8,52.3
					c0.4,0,0.8-0.3,0.9-0.7c0.1-0.2,0.1-0.4,0.1-0.6c0-0.2,0-0.4,0-0.6l0-2.5c0-1.7,0.1-3.4,0.2-5.1c0.2-3.4,0.4-6.7,0.5-10.1
					c0.1-1.7,0.1-3.4,0.1-5.1l0-1.3l0-0.6c0-0.1,0-0.1,0-0.1c0,0,0.1,0,0,0l-0.2,0l-2.5,0l-10.1,0l-40.5-0.1l-40.5,0l-10.1,0l-5.1,0
					c0,0-0.1,0,0,0.2l0,0.6l0,1.3l0.1,2.5l0.5,20.2l0-0.1l0.6,0.6l0,0.1c0,0.1,0.3,0.4,0.5,0.5l0.7,0l1.7,0l3.3,0.1
					c2.2,0.1,4.4,0.1,6.7,0.1L83,52.2l13.3,1c2.2,0.1,4.4,0,6.6,0l6.7,0l13.3,0l13.3,0.1l13.3,0c0.6,0,1.1,0,1.7,0l1.7-0.1l3.3-0.3
					L162.8,52.3z"/>
				<path class="st16" d="M163.4,53.7c0.6,0,1.1-0.4,1.2-1c0-0.6,0-1.2,0-1.8l0-3.6l-0.1-7.2l-0.3-14.3l0-0.8l0.5,0.7l0.3,0.4
					l0.3,0.4l-0.5,0l-13.5,0.3l-13.5,0.2l-13.5,0l-13.5-0.1l-13.5-0.2l-13.5-0.1l-27,0.5l-0.5,0l0.3-0.5l0.3-0.4l0.6-0.9l-0.1,1
					l-1.5,20.1l-0.2,2.5l-0.1,1.3l0,0.6c0,0.2,0,0.4,0,0.5c0.1,0.3,0.2,0.5,0.5,0.6c0.4,0.2,0.7,0.3,1.1,0.3c0.7,0.1,1.6,0,2.4,0
					l5,0l2.5,0c0.9,0,1.6,0,2.5,0l0,0l11.4,0.2l0,0l0,0c0.1,0,0.1,0,0.2,0l0.1,0l0.2,0l0.3,0.1l0.6,0.2l0.6,0.2l0.2,0l0.1,0l0,0
					c0,0-0.1,0-0.1,0l0.3,0l2.6,0.1l5.2,0.2l10.3,0.4l5.2,0.2l2.6,0.1c0.8,0.1,1.7,0,2.6,0l10.3-0.1l10.3,0c3.4,0,6.9,0,10.3,0
					c3.4,0,6.9,0.1,10.3,0L163.4,53.7z M163.4,53.8l-10.3,0.4c-1.7,0.1-3.5,0.1-5.2,0.1l-5.2,0.1c-3.4,0.1-6.9,0.1-10.3,0.2
					l-10.3,0.3l-10.3,0.2c-0.9,0-1.7,0.1-2.6,0l-2.6-0.1l-5.2-0.2c-3.4-0.1-6.9-0.2-10.3-0.4l-5.2-0.2l-2.6-0.1l-0.3,0
					c0,0-0.1,0-0.2,0l0,0l-0.1,0l-0.2,0l-0.6-0.2l-1.1-0.4l0.1,0l-11.4-0.2l0,0l-10,0l-1.3,0c-0.4,0-0.9,0-1.3-0.1
					c-0.4-0.1-0.9-0.2-1.3-0.4c-0.5-0.2-1-0.7-1.1-1.2c-0.1-0.4,0-0.5,0-0.7l0.1-0.6l0.1-1.3l0.2-2.5l1.8-20l0.5,0.2L56.8,27
					l-0.2-0.4l27-0.2l13.5,0l13.5-0.1l27-0.2l13.5-0.1l13.5,0l-0.2,0.4l-0.3-0.4l0.5-0.1l0,14.3l0,7.2l0,3.6c0,0.6,0,1.2,0,1.8
					C164.6,53.3,164,53.8,163.4,53.8z"/>
			</g>
			<g>
				<path class="st16" d="M65.8,111.4l-0.2-3.4l-0.2-3.4l-0.2-6.8l0-3.4l0.1-3.4l0-3.4c0-1.1,0-2.3-0.1-3.4c0-0.3,0.2-0.5,0.4,0
					l-0.2,0l18.8-0.3c0.1,0,0.3,0,0.3,0.1l0.3,6.8l0.2,6.8l0,3.4c0,1.1,0,2.3,0,3.4l-0.1,6.8c0,0-0.1,0.1-0.3,0.1
					c-6.3,0.1-12.2,0.4-18.5,0.5C66.1,111.7,65.8,111.4,65.8,111.4z M65.9,110.9c0,0.3,0.2,0.5,0.5,0.5c6-0.1,11.4-0.4,17.5-0.5
					l0.3-0.1l-0.1-6.5c-0.1-1.1-0.1-2.3-0.1-3.4l-0.1-3.4l0-6.8l0.3-6.9l-0.5,0.4l-18.4,0l0.2,0c0,1.1,0,2.3,0,3.4l0.1,3.4l0.2,3.4
					l0.1,3.4l0,6.8L66,108L65.9,110.9z"/>
			</g>
			<g>
				<path class="st16" d="M88.1,111l-0.1-3.4l0-3.4l0.1-6.8l0.1-3.4l0.2-3.4l0.2-3.4c0.1-1.1,0.1-2.3,0.1-3.4c0,0,0.1,0,0.2,0
					l0.1-0.3l18.7,0.7c0.1,0,0.3,0,0.3,0.1l0,6.8l-0.1,6.8l-0.1,3.4c0,1.1-0.1,2.3-0.1,3.4l-0.4,6.8c0,0-0.1,0.1-0.3,0.1
					c-6.3-0.2-12.6-0.3-18.8-0.5C88.1,111.1,88.1,111,88.1,111z M88.2,110.5c0,0.2,0.2,0.4,0.4,0.4c6.1,0.1,11.9,0.1,18.1,0.2l0-0.7
					l0-5.8c0-1.1,0-2.3,0-3.4l0.1-3.4l0.3-6.8c0,0,0,0,0-0.1l0.6-6.8l-0.5,0.3l-18.4-0.7l0.2,0c-0.1,1.1-0.1,2.3-0.1,3.4l0,3.4
					l0,3.4l0,3.4l-0.3,6.8l-0.2,3.4L88.2,110.5z"/>
			</g>
			<g>
				<path class="st16" d="M64.5,118.1l5.5-0.3l5.5-0.2l11.1-0.1l5.5,0.1l5.5,0.2l5.5,0.1c1.8,0,3.7,0,5.5,0c0,0,0.1,0.1,0.1,0.2v0
					l0,25.6c0,0.2,0,0.4-0.1,0.4l-11.1,0.2l-11.1,0.1l-5.5,0c-1.8,0-3.7,0-4.5-0.1l-11.1-0.3c-1.1,0-1.1-0.2-1.1-0.4
					c-0.3-3.9-0.3-8.2-0.3-12.4C64.1,127.1,64.1,122.5,64.5,118.1C64.5,118.1,64.5,118.1,64.5,118.1z M64.9,118.6
					c0,8.5,0.3,15.8,0.3,24.3l0.3,0.3l10,0c1.8-0.1,3.7-0.1,5.5-0.1l5.5,0l11.1,0.1l11.1,0.2l-0.1,0.4l0-25.6l0.1,0.2
					c-1.8,0-3.7,0-5.5,0l-5.5,0.1l-5.5,0.2l-5.5,0.1l-11.1-0.1l-5.5-0.2L64.9,118.6z"/>
			</g>
			<g>
				<path class="st16" d="M110.5,111.4l-0.2-3.4l-0.2-3.4l-0.2-6.8l0-3.4L110,91l0-3.4c0-1.1,0-2.3-0.1-3.4c0,0,0.1-0.4,0.2-0.4
					l0.2,0.2l18.6-0.2c0.1,0,0.3,0,0.3,0.1l0.3,6.8l0.2,6.8l0,3.4c0,1.1,0,2.3,0,3.4l-0.1,6.8c0,0-0.1,0.1-0.3,0.1
					C123.1,111.3,116.8,111.3,110.5,111.4C110.5,111.4,110.5,111.4,110.5,111.4z M110.6,111.4c6.3-0.1,12.5-0.2,18.8-0.3l-0.3,0.1
					l-0.3-6.8c-0.1-1.1-0.1-2.3-0.1-3.4l-0.1-3.4l0-6.8l-0.1-6.3l-0.1-0.3l-18.3,0l0.2,0c0,1.1,0,2.3,0,3.4l0.1,3.4l0.2,3.4l0.1,3.4
					l0,6.8l-0.1,3.4L110.6,111.4z"/>
			</g>
			<path class="st16" d="M61.7,59.6c1.3-0.4,2.6-0.6,3.9-0.6c1.3,0,2.7,0.1,4,0.3l0,0l0,0c0.7,0.4,1.5,0.7,2.3,0.9
				c0.8,0.2,1.6,0.5,2.3,0.4c0.2,0,0.4,0,0.5-0.1c0.1,0,0.4-0.2,0.5-0.3l1.1-0.6c0.7-0.4,1.5-0.8,2.3-1.2c0.8-0.3,1.6-0.7,2.4-0.9
				c0.8-0.2,1.8-0.2,2.6-0.2c0.8,0,1.7,0.1,2.6,0.3c0.9,0.2,1.6,0.7,2.3,1.2c0.7,0.5,1.3,0.8,2.1,1.1c0.8,0.2,1.6,0.4,2.4,0.5
				c1.6,0.2,3.3,0.3,5,0.2c1.7-0.1,3.3-0.4,4.9-0.9c0.4-0.1,0.8-0.3,1.1-0.5c0.2-0.1,0.4-0.2,0.7-0.2c0.2,0,0.5,0,0.7,0.1
				c0.9,0.3,1.5,0.8,2.2,1.4l-0.1-0.1c1.3,0.2,2.6,0.3,3.9,0.4c0.6,0,1.3,0,1.9-0.1c0.3,0,0.6-0.1,0.9-0.2c0.1,0,0.3-0.1,0.4-0.2
				l0.5-0.2c0.3-0.1,0.7-0.2,1-0.3c0.3-0.1,0.7-0.2,1-0.2c0.7-0.1,1.3-0.2,2-0.3c1.3-0.2,2.7-0.3,4-0.4l0.2,0l0.2,0.2
				c0.2,0.2,0.5,0.5,0.8,0.6c0.3,0.2,0.7,0.3,1,0.5c0.7,0.2,1.5,0.4,2.3,0.4c0.4,0,0.7,0,1.2,0c0.4,0,0.7-0.1,1.1-0.2
				c0.7-0.2,1.4-0.5,2.1-0.8c0.7-0.4,1.3-0.9,1.9-1.4c0.3-0.3,0.6-0.5,1-0.8l0.1-0.1l0,0l0,0l0.1,0l0,0l0.1,0c0.1,0,0.2-0.1,0.4-0.1
				c0.4-0.1,0.6,0,0.8,0c0.9,0.2,1.7,0.5,2.4,0.8c0.8,0.3,1.5,0.7,2.2,1.2l-0.3-0.1c1.7-0.1,3.4-0.2,5.1-0.1
				c0.9,0.1,1.7,0.2,2.5,0.5c0.8,0.3,1.6,0.6,2.3,1.1l-0.2,0l5.1-1.2l0,0.1l-5,1.5l-0.1,0l-0.1-0.1c-0.7-0.4-1.5-0.7-2.3-0.9
				c-0.8-0.2-1.6-0.3-2.4-0.4c-1.6-0.1-3.3,0-5,0.2l-0.1,0l-0.1-0.1c-0.7-0.4-1.4-0.7-2.2-1c-0.7-0.3-1.5-0.6-2.2-0.7
				c-0.2,0-0.4,0-0.4,0c0,0,0,0-0.1,0l-0.1,0.1l-0.1,0l0,0l0,0c0,0,0.1-0.1,0.1,0l0,0l0,0l-0.1,0.1c-0.3,0.2-0.6,0.5-0.9,0.8
				c-0.6,0.5-1.3,1.1-2,1.5c-0.7,0.4-1.5,0.8-2.4,1c-0.4,0.1-0.9,0.2-1.3,0.2c-0.4,0-0.9,0-1.3,0c-0.8-0.1-1.7-0.2-2.5-0.5
				c-0.4-0.1-0.8-0.3-1.2-0.6c-0.4-0.3-0.7-0.5-1.1-0.9l0.4,0.2c-1.3,0.1-2.6,0.2-3.9,0.3c-0.6,0.1-1.3,0.2-1.9,0.3
				c-0.3,0.1-0.6,0.1-0.9,0.2c-0.3,0.1-0.6,0.2-0.9,0.3l-0.5,0.2c-0.2,0.1-0.3,0.1-0.5,0.2c-0.3,0.1-0.7,0.1-1,0.2
				c-0.7,0.1-1.4,0.1-2,0c-1.3-0.1-2.7-0.3-4-0.5l-0.1,0l-0.1-0.1c-0.6-0.6-1.2-1.1-1.9-1.4c-0.2-0.1-0.4-0.1-0.5-0.1
				c-0.1,0-0.4,0.1-0.5,0.2c-0.4,0.2-0.8,0.4-1.2,0.5c-1.6,0.5-3.3,0.7-5,0.9c-1.7,0.1-3.4,0.1-5.1-0.1c-0.8-0.1-1.7-0.2-2.5-0.4
				c-0.8-0.2-1.7-0.6-2.4-1.1c-0.7-0.4-1.4-0.8-2.2-1c-0.8-0.2-1.6-0.2-2.4-0.3c-0.9,0-1.6,0-2.4,0.2c-0.8,0.2-1.5,0.5-2.3,0.8
				c-0.8,0.3-1.5,0.7-2.2,1.1l-1.1,0.6c-0.2,0.1-0.3,0.2-0.6,0.3c-0.3,0.1-0.5,0.1-0.7,0.2c-0.9,0-1.8-0.2-2.6-0.5
				c-0.8-0.3-1.6-0.7-2.3-1.1l0.1,0c-1.3-0.3-2.6-0.5-3.9-0.5C64.3,59.4,63,59.5,61.7,59.6L61.7,59.6z"/>
			<path class="st16" d="M61.7,68.5c1.3,0.3,2.6,0.4,3.9,0.3c1.3-0.1,2.6-0.2,3.8-0.5l-0.1,0c0.8-0.4,1.5-0.8,2.3-1.1
				c0.8-0.3,1.6-0.5,2.6-0.5c0.2,0,0.5,0,0.7,0.2c0.3,0.1,0.4,0.2,0.6,0.3l1.1,0.6c0.7,0.4,1.5,0.8,2.2,1.1c0.7,0.3,1.5,0.6,2.3,0.8
				c0.8,0.2,1.5,0.2,2.4,0.2c0.8,0,1.6-0.1,2.4-0.3c0.8-0.2,1.5-0.5,2.1-1c0.7-0.5,1.5-0.9,2.4-1.1c0.8-0.2,1.7-0.3,2.5-0.4
				c1.7-0.1,3.3-0.2,5-0.1c1.7,0.2,3.3,0.4,4.9,0.9c0.4,0.1,0.8,0.3,1.2,0.5c0.1,0.1,0.4,0.2,0.5,0.1c0.2,0,0.4,0,0.5-0.1
				c0.7-0.3,1.4-0.8,1.9-1.4L107,67l0.1,0c1.3-0.3,2.6-0.5,3.9-0.5c0.7,0,1.3,0,2,0c0.3,0,0.7,0.1,1,0.2c0.2,0,0.3,0.1,0.5,0.2
				L115,67c0.3,0.1,0.6,0.2,0.9,0.3c0.3,0.1,0.6,0.1,0.9,0.2c0.6,0.1,1.3,0.2,1.9,0.3c1.3,0.1,2.6,0.2,3.9,0.3l-0.4,0.2
				c0.3-0.4,0.7-0.7,1.1-0.9c0.4-0.2,0.8-0.4,1.2-0.6c0.8-0.3,1.7-0.4,2.5-0.5c0.4,0,0.9,0,1.3,0c0.4,0,0.9,0.1,1.3,0.2
				c0.8,0.2,1.6,0.5,2.4,1c0.7,0.4,1.4,1,2,1.5c0.3,0.3,0.6,0.5,0.9,0.8l0.1,0.1l0,0l0,0l0,0c-0.1-0.1,0,0-0.1,0l0,0l0.1,0
				c0.1,0,0.2,0.1,0.2,0.1c0,0,0.3,0,0.4,0c0.7-0.1,1.5-0.4,2.2-0.7c0.7-0.3,1.4-0.7,2.1-1l0.1-0.1l0.1,0c1.6,0.2,3.3,0.3,4.9,0.2
				c0.8,0,1.6-0.1,2.4-0.4c0.8-0.2,1.6-0.5,2.2-0.9l0.1-0.1l0.1,0l5,1.5l0,0.1l-5.1-1.2l0.2,0c-0.7,0.5-1.5,0.8-2.3,1.1
				c-0.8,0.3-1.7,0.4-2.5,0.5c-1.7,0.1-3.4,0.1-5.1-0.1l0.3-0.1c-0.7,0.4-1.4,0.8-2.2,1.2c-0.8,0.3-1.5,0.7-2.4,0.8
				c-0.2,0-0.4,0.1-0.8,0c-0.2,0-0.3-0.1-0.4-0.1l-0.1,0l0,0l-0.1,0l0,0l0,0l-0.1-0.1c-0.4-0.3-0.7-0.5-1-0.8
				c-0.6-0.5-1.2-1-1.9-1.4c-0.7-0.4-1.4-0.7-2.1-0.8c-0.4-0.1-0.7-0.1-1.1-0.2c-0.4,0-0.8,0-1.2,0c-0.8,0-1.5,0.1-2.2,0.4
				c-0.4,0.1-0.7,0.3-1,0.5c-0.3,0.2-0.6,0.4-0.8,0.6l-0.2,0.2l-0.2,0c-1.3-0.1-2.6-0.2-4-0.4c-0.7-0.1-1.3-0.2-2-0.3
				c-0.3-0.1-0.7-0.1-1-0.2c-0.3-0.1-0.7-0.2-1-0.3l-0.5-0.2c-0.1,0-0.3-0.1-0.4-0.2c-0.3-0.1-0.6-0.1-0.9-0.2
				c-0.6-0.1-1.3-0.1-1.9-0.1c-1.3,0-2.6,0.1-3.9,0.4l0.1-0.1c-0.6,0.6-1.3,1.1-2.1,1.4c-0.2,0.1-0.4,0.1-0.7,0.1
				c-0.3,0-0.5-0.1-0.7-0.2c-0.4-0.2-0.7-0.3-1.1-0.5c-1.5-0.5-3.2-0.8-4.8-0.9c-1.6-0.1-3.3-0.1-4.9,0.2c-0.8,0.1-1.6,0.3-2.4,0.5
				c-0.8,0.2-1.5,0.6-2.1,1.1c-0.7,0.5-1.5,0.9-2.3,1.2c-0.9,0.3-1.7,0.3-2.6,0.3c-0.8,0-1.8,0-2.6-0.2c-0.8-0.2-1.6-0.5-2.4-0.9
				c-0.8-0.4-1.5-0.7-2.2-1.2l-1.1-0.6c-0.2-0.1-0.4-0.2-0.5-0.3c-0.1-0.1-0.3-0.1-0.5-0.1c-0.7,0-1.5,0.2-2.3,0.4
				c-0.8,0.2-1.5,0.6-2.3,0.9l0,0l0,0c-1.3,0.2-2.6,0.4-4,0.3C64.2,69.1,62.9,69,61.7,68.5L61.7,68.5z"/>
			<path class="st16" d="M153.7,75.5c-1.3,0.4-2.6,0.6-3.9,0.6c-1.3,0-2.7-0.1-4-0.3l0,0l0,0c-0.7-0.4-1.5-0.7-2.3-0.9
				c-0.8-0.2-1.6-0.5-2.3-0.4c-0.2,0-0.4,0-0.5,0.1c-0.1,0-0.4,0.2-0.5,0.3l-1.1,0.6c-0.7,0.4-1.5,0.8-2.3,1.2
				c-0.8,0.3-1.6,0.7-2.4,0.9c-0.8,0.2-1.8,0.2-2.6,0.2c-0.8,0-1.7-0.1-2.6-0.3c-0.9-0.2-1.6-0.7-2.3-1.2c-0.7-0.5-1.3-0.8-2.1-1.1
				c-0.8-0.2-1.6-0.4-2.4-0.5c-1.6-0.2-3.3-0.3-5-0.2c-1.7,0.1-3.3,0.4-4.9,0.9c-0.4,0.1-0.8,0.3-1.1,0.5c-0.2,0.1-0.4,0.2-0.7,0.2
				c-0.2,0-0.5,0-0.7-0.1c-0.9-0.3-1.5-0.8-2.2-1.4l0.1,0.1c-1.3-0.2-2.6-0.3-3.9-0.4c-0.6,0-1.3,0-1.9,0.1c-0.3,0-0.6,0.1-0.9,0.2
				c-0.1,0-0.3,0.1-0.4,0.2l-0.5,0.2c-0.3,0.1-0.7,0.2-1,0.3c-0.3,0.1-0.7,0.2-1,0.2c-0.7,0.1-1.3,0.2-2,0.3c-1.3,0.2-2.7,0.3-4,0.4
				L92,76l-0.2-0.2c-0.2-0.2-0.5-0.5-0.8-0.6c-0.3-0.2-0.7-0.3-1-0.5c-0.7-0.2-1.5-0.4-2.3-0.4c-0.4,0-0.7,0-1.2,0
				c-0.4,0-0.7,0.1-1.1,0.2c-0.7,0.2-1.4,0.5-2.1,0.8c-0.7,0.4-1.3,0.9-1.9,1.4c-0.3,0.3-0.6,0.5-1,0.8l-0.1,0.1l0,0l0,0l-0.1,0l0,0
				l-0.1,0c-0.1,0-0.2,0.1-0.4,0.1c-0.4,0.1-0.6,0-0.8,0c-0.9-0.2-1.7-0.5-2.4-0.8c-0.8-0.3-1.5-0.7-2.2-1.2l0.3,0.1
				c-1.7,0.1-3.4,0.2-5.1,0.1c-0.9-0.1-1.7-0.2-2.5-0.5c-0.8-0.3-1.6-0.6-2.3-1.1l0.2,0l-5.1,1.2l0-0.1l5-1.5l0.1,0l0.1,0.1
				c0.7,0.4,1.5,0.7,2.3,0.9c0.8,0.2,1.6,0.3,2.4,0.4c1.6,0.1,3.3,0,5-0.2l0.1,0l0.1,0.1c0.7,0.4,1.4,0.7,2.2,1
				c0.7,0.3,1.5,0.6,2.2,0.7c0.2,0,0.4,0,0.4,0c0,0,0,0,0.1,0l0.1-0.1l0.1,0l0,0l0,0c0,0-0.1,0.1-0.1,0l0,0l0,0l0.1-0.1
				c0.3-0.2,0.6-0.5,0.9-0.8c0.6-0.5,1.3-1.1,2-1.5c0.7-0.4,1.5-0.8,2.4-1c0.4-0.1,0.9-0.2,1.3-0.2c0.4,0,0.9,0,1.3,0
				c0.8,0.1,1.7,0.2,2.5,0.5c0.4,0.1,0.8,0.3,1.2,0.6c0.4,0.3,0.7,0.5,1.1,0.9L92.2,75c1.3-0.1,2.6-0.2,3.9-0.3
				c0.6-0.1,1.3-0.2,1.9-0.3c0.3-0.1,0.6-0.1,0.9-0.2c0.3-0.1,0.6-0.2,0.9-0.3l0.5-0.2c0.2-0.1,0.3-0.1,0.5-0.2
				c0.3-0.1,0.7-0.1,1-0.2c0.7-0.1,1.4-0.1,2,0c1.3,0.1,2.7,0.3,4,0.5l0.1,0L108,74c0.6,0.6,1.2,1.1,1.9,1.4
				c0.2,0.1,0.4,0.1,0.5,0.1c0.1,0,0.4-0.1,0.5-0.2c0.4-0.2,0.8-0.4,1.2-0.5c1.6-0.5,3.3-0.7,5-0.9c1.7-0.1,3.4-0.1,5.1,0.1
				c0.8,0.1,1.7,0.2,2.5,0.4c0.8,0.2,1.7,0.6,2.4,1.1c0.7,0.4,1.4,0.8,2.2,1c0.8,0.2,1.6,0.2,2.4,0.3c0.9,0,1.6,0,2.4-0.2
				c0.8-0.2,1.5-0.5,2.3-0.8c0.8-0.3,1.5-0.7,2.2-1.1l1.1-0.6c0.2-0.1,0.3-0.2,0.6-0.3c0.3-0.1,0.5-0.1,0.7-0.2
				c0.9,0,1.8,0.2,2.6,0.5c0.8,0.3,1.6,0.7,2.3,1.1l-0.1,0c1.3,0.3,2.6,0.5,3.9,0.5C151.1,75.8,152.4,75.7,153.7,75.5L153.7,75.5z"
				/>
			<polygon class="st14" points="47.8,171.2 47.8,202.3 171.8,202.3 171.8,47.7 			"/>
			<path class="st7" d="M172.8,202.3h-125v-31.3l0.1-0.1L172.8,46.5V202.3z M48.8,201.3h123V49l-123,122.4V201.3z"/>
			<path class="st7" d="M155.4,111.4h-18.7V83.3h18.7V111.4z M137.8,110.4h16.7V84.3h-16.7V110.4z"/>
			<path class="st7" d="M155.4,144.5H112v-27.1h43.4V144.5z M113,143.5h41.4v-25.1H113V143.5z"/>
			<rect x="65.7" y="160.1" class="st7" width="90.2" height="3.8"/>
			<rect x="65.7" y="170.8" class="st7" width="81.3" height="3.8"/>
			<polygon class="st7" points="106.8,144.3 74.8,144.3 75.8,143.3 105.8,143.3 105.8,118.3 101.8,118.3 102.8,117.3 106.8,117.3 
							"/>
			<path class="st13" d="M159.8,193.3h-22.7c-1.1,0-1.9-0.9-1.9-1.9v-5.7c0-1.1,0.9-1.9,1.9-1.9h22.7c1.1,0,1.9,0.9,1.9,1.9v5.7
				C161.7,192.4,160.9,193.3,159.8,193.3z"/>
			<polygon class="st7" points="154.8,78.3 154.8,74.3 146.2,74.3 142.4,78.3 			"/>
			<polygon class="st7" points="156.8,69.3 156.8,64.3 155.2,64.3 151.4,69.3 			"/>
			<polygon class="st7" points="153.8,153.3 153.8,149.3 70,149.3 66.2,153.3 			"/>
			<polygon class="st7" points="129.8,112.3 109.8,112.3 109.8,108.3 110.8,108.3 110.8,111.3 128.8,111.3 128.8,90.3 129.8,90.3 
							"/>
			<path class="st42" d="M172.8,50c0,0,33,1.9,34,27c0.8,18.6-10.8,25.4-14,31.9c-5.4,11.1,0,17.8,0,17.8"/>
		</g>
	</g>
</g>
</svg>
